/* XPM */
static char *bomb_explose_2_horiz_r_24x24[] = {
/* columns rows colors chars-per-pixel */
"24 24 184 2 ",
"   c #7D0000",
".  c #780906",
"X  c #700609",
"o  c #700104",
"O  c #7F180D",
"+  c #6C1211",
"@  c #7D1710",
"#  c #771C10",
"$  c #7E1D11",
"%  c #6C291A",
"&  c #752716",
"*  c #732B19",
"=  c #7D2513",
"-  c #66351E",
";  c #6C331D",
":  c #70321C",
">  c #5C3C24",
",  c #593420",
"<  c #643821",
"1  c #5C4428",
"2  c #564A2C",
"3  c #5B4D2C",
"4  c #58512E",
"5  c #4C5B35",
"6  c #475234",
"7  c #525531",
"8  c #505C34",
"9  c #604226",
"0  c #61552E",
"q  c #44653B",
"w  c #496539",
"e  c #426C3E",
"r  c #3D7442",
"t  c #367C47",
"y  c #397A46",
"u  c #416F40",
"i  c #407040",
"p  c #820100",
"a  c #8D0101",
"s  c #8C0B04",
"d  c #940000",
"f  c #9C0101",
"g  c #930C00",
"h  c #9C0E02",
"j  c #83130B",
"k  c #881009",
"l  c #81190F",
"z  c #991403",
"x  c #A20200",
"c  c #AF0300",
"v  c #A70D00",
"b  c #A90800",
"n  c #BE0D00",
"m  c #A41300",
"M  c #AC1500",
"N  c #AE1B00",
"B  c #B41500",
"V  c #B31B00",
"C  c #BC1B00",
"Z  c #BB1600",
"A  c #84210E",
"S  c #843115",
"D  c #9F3110",
"F  c #9D3911",
"G  c #B42100",
"H  c #BD2400",
"J  c #A93109",
"K  c #C61900",
"L  c #CC1C00",
"P  c #C02700",
"I  c #CF2300",
"U  c #C52B00",
"Y  c #CC2E00",
"T  c #C73400",
"R  c #CC3100",
"E  c #D53500",
"W  c #DE3300",
"Q  c #D53A00",
"!  c #DB3B00",
"~  c #EA2E00",
"^  c #E53500",
"/  c #E23C00",
"(  c #EC3E00",
")  c #F83D00",
"_  c #DD4300",
"`  c #CD5300",
"'  c #E54500",
"]  c #ED4600",
"[  c #E54A00",
"{  c #EA4A00",
"}  c #F04400",
"|  c #F34C00",
" . c #FC4C00",
".. c #EC5600",
"X. c #FB5500",
"o. c #F45E02",
"O. c #FA5C00",
"+. c #F55500",
"@. c #EF6400",
"#. c #F36300",
"$. c #FC6400",
"%. c #FF6802",
"&. c #F7680C",
"*. c #F77400",
"=. c #FD7500",
"-. c #FB7C00",
";. c #FD6C26",
":. c #2B844D",
">. c #34824A",
",. c #F78700",
"<. c #FE8300",
"1. c #FC8C01",
"2. c #F99401",
"3. c #F69D00",
"4. c #FB9C01",
"5. c #FA9C1A",
"6. c #F4A500",
"7. c #F9A501",
"8. c #FAAC00",
"9. c #FCA40A",
"0. c #F8B400",
"q. c #F8BC02",
"w. c #FABF0A",
"e. c #FAAC15",
"r. c #F9BC18",
"t. c #FB9F20",
"y. c #F9A228",
"u. c #F8C303",
"i. c #F8CC05",
"p. c #F8C50B",
"a. c #F8D601",
"s. c #F8DA0C",
"d. c #F8D60C",
"f. c #FAC61A",
"g. c #F8DC15",
"h. c #F9D816",
"j. c #FAD623",
"k. c #F8D925",
"l. c #F7D237",
"z. c #F8E627",
"x. c #F9E429",
"c. c #F8EC2A",
"v. c #F8FE29",
"b. c #F8F02D",
"n. c #F8EA3E",
"m. c #F8EB36",
"M. c #F8FC35",
"N. c #F8F439",
"B. c #F7D444",
"V. c #F8FF44",
"C. c #F7FF4D",
"Z. c #F8FE4B",
"A. c #F8EF52",
"S. c #F8EE5E",
"D. c #F8FA54",
"F. c #F8FF5A",
"G. c #F8DE7C",
"H. c #F8CF66",
"J. c #F8E065",
"K. c #F8FB65",
"L. c #F8F16C",
"P. c #F8F96E",
"I. c #F8FF7E",
"U. c #F8F871",
"Y. c #F8FC82",
"T. c #F8F794",
"R. c #F8FC9C",
"E. c #F8FD95",
"W. c #F8E4A3",
"Q. c #F8F8A3",
"!. c #F8FCAD",
"~. c #F8F3A4",
"^. c #F8FCBA",
"/. c #F8F8B5",
"(. c #F9DAC7",
"). c #F8FFC7",
"_. c #F8F9C9",
"`. c #F8FAD2",
"'. c #F8F7D9",
"]. c #F8FADC",
"[. c #F8FAE3",
"{. c #F8FAF5",
"}. c #F8F7FF",
"|. c #F8FAFE",
/* pixels */
"d 1 q k f j w :.8 a < y i u u i i i i i i i i i ",
"m = - z B z % > * m A > < 5 >.i i e i i i i i i ",
"Y B x U Q U x d b R Z f x < u u r r r i i i i i ",
"| Y H { X.' H N U | E V C x % r >.y y i e r i i ",
"<...^  .=.-.{ K T 1.*.' ' L h : < ; * 7 y i i i ",
"p.t.;.#.3.w.=._ ` 6.-.| O.' V f d d s 3 y i i i ",
"N.~.(.9.i.m.8.6.3.#.E R X.! m p d l w r i e i i ",
"M.^.|.W.A.v.z.e.=.<.[ _ ,.#.I m p X , e >.t r e ",
"K.T.].|.^.C.V.5.$.p.2.=.0.9.&.! N g d - q 5 e r ",
"[.Y.D.[.{._.Z.u.8.b.f.3.6.z.l.#.| [ U s . s 4 r ",
"}.`./.}.}.}./.n.z.^.L.s.k.x.r.O.( E U V x a # ; ",
"{.{.'._.[.|.|.!.I.[.!.F.Z.h.2.=._ P H R G   a f ",
"{.~.N.M.Q.|.}.|.`.F.!.].Z.i.7.8.=.( H U V p a d ",
"}.T.M.R.].|.}.].P.g.W.|.^.S.h.u.8.=.[ G s d * 9 ",
"`.L.n._.|.|.].P.a.2.H.[.|.Q.g.7.0.8.%.N o l 8 t ",
"D.j.q.N.).{.K.g.4.o.e.Y.|.G.4.$.2.8.$.n + e r i ",
"d.4.<.i.B.J.V.r.O. .f.D.J.y.o.E @.-._ L v & 8 u ",
"2.@.{ ,.4.q.z.5.} } t.j.7.$.W H ! ^ V J D k 2 u ",
"o.! U | 1.q.q.1.{ U [ %.$._ H U Y Z f < r e u u ",
"X.! U } 1.8.-...H g Z ~ W R C c S 0 1 q t y r i ",
"{ U G | 4.8.$.^ M p l F M Z M @ 6 :.t r u i i i ",
"U g s { 2.8.$./ V d 2 w s x j w y i i i u i u i ",
"H g p U #.*._ N s d $ < 1 3 7 r r u i i i i i i ",
"P z p G { +.R g   a f j q y r e i i i i i i i i "
};
