/* XPM */
static char *bomb_explose_2_verti_down_24x24[] = {
/* columns rows colors chars-per-pixel */
"24 24 191 2 ",
"   c #790507",
".  c #7D1A0F",
"X  c #7B1E12",
"o  c #711912",
"O  c #6C2518",
"+  c #672E1D",
"@  c #792C17",
"#  c #732918",
"$  c #7A2313",
"%  c #65341F",
"&  c #7F3018",
"*  c #793F1E",
"=  c #5E3722",
"-  c #633521",
";  c #653B22",
":  c #3E633C",
">  c #5B4529",
",  c #5A4B2B",
"<  c #56512E",
"1  c #4F5632",
"2  c #4D5A34",
"3  c #485F38",
"4  c #525431",
"5  c #575A32",
"6  c #655B2E",
"7  c #6B592C",
"8  c #476038",
"9  c #446B3D",
"0  c #4A6A3C",
"q  c #4B6237",
"w  c #5E6231",
"e  c #47703E",
"r  c #3B6E40",
"t  c #357746",
"y  c #3C7442",
"u  c #397A46",
"i  c #367C48",
"p  c #3D7E4A",
"a  c #416F40",
"s  c #417141",
"d  c #487648",
"f  c #860303",
"g  c #8C0302",
"h  c #840907",
"j  c #8B0A05",
"k  c #960200",
"l  c #9C0201",
"z  c #960801",
"x  c #9A0B02",
"c  c #8C150B",
"v  c #85180E",
"b  c #961206",
"n  c #9D1507",
"m  c #821913",
"M  c #A50100",
"N  c #AE0100",
"B  c #A50A01",
"V  c #AB0B01",
"C  c #B50000",
"Z  c #B30F00",
"A  c #A91401",
"S  c #AD1A01",
"D  c #B51601",
"F  c #B81400",
"G  c #BC1D00",
"H  c #B31805",
"J  c #98250D",
"K  c #893E19",
"L  c #B62201",
"P  c #BC2400",
"I  c #BC2D03",
"U  c #B73709",
"Y  c #A8360C",
"T  c #CB0B00",
"R  c #C11F00",
"E  c #C81800",
"W  c #D31B00",
"Q  c #C12600",
"!  c #CC2100",
"~  c #C22900",
"^  c #CA2B00",
"/  c #D22400",
"(  c #D22A00",
")  c #DD2D00",
"_  c #C23009",
"`  c #C23706",
"'  c #D43300",
"]  c #D43B00",
"[  c #DE3C00",
"{  c #DC3500",
"}  c #E43500",
"|  c #EC3400",
" . c #E53C00",
".. c #EF3A00",
"X. c #86471D",
"o. c #9F4314",
"O. c #D84801",
"+. c #E44300",
"@. c #E24800",
"#. c #EC4C00",
"$. c #F24C00",
"%. c #FA4F00",
"&. c #F35300",
"*. c #FD5200",
"=. c #FA5A00",
"-. c #DE6F00",
";. c #D56500",
":. c #DC7500",
">. c #EF6600",
",. c #E36800",
"<. c #EE6B00",
"1. c #FC6300",
"2. c #F46D00",
"3. c #FB6F00",
"4. c #E47200",
"5. c #E27B00",
"6. c #F57200",
"7. c #FC7500",
"8. c #F77E00",
"9. c #FC7A00",
"0. c #FE7C0A",
"q. c #27824F",
"w. c #358149",
"e. c #30884D",
"r. c #298B50",
"t. c #ED8300",
"y. c #FC8400",
"u. c #FB8A00",
"i. c #F98907",
"p. c #FB9501",
"a. c #FC9B00",
"s. c #FF920C",
"d. c #FD9515",
"f. c #FAA400",
"g. c #F9AE00",
"h. c #F9AC0A",
"j. c #F8B301",
"k. c #FABE00",
"l. c #F9BA0B",
"z. c #FCA613",
"x. c #FAB811",
"c. c #FCC202",
"v. c #F8C40C",
"b. c #F8CA0B",
"n. c #F8C901",
"m. c #FAD30B",
"M. c #F8DD0E",
"N. c #F8CC14",
"B. c #FAC110",
"V. c #F8D914",
"C. c #F8D519",
"Z. c #F8E518",
"A. c #F9CE20",
"S. c #F9E42C",
"D. c #F8EB2B",
"F. c #F8F326",
"G. c #F8ED33",
"H. c #F8E53D",
"J. c #F8FC35",
"K. c #F8F53C",
"L. c #F8FB3A",
"P. c #F8C044",
"I. c #F8FA42",
"U. c #F8FF49",
"Y. c #F8FA58",
"T. c #F8E953",
"R. c #F8EB67",
"E. c #F8FF61",
"W. c #F8F668",
"Q. c #F8FD6A",
"!. c #F8F776",
"~. c #F8FB71",
"^. c #F8F97E",
"/. c #F8E578",
"(. c #F8F180",
"). c #F8FA82",
"_. c #F8FB8C",
"`. c #F8F793",
"'. c #F8FF9E",
"]. c #F8F8A2",
"[. c #F8FAB5",
"{. c #F8FCBB",
"}. c #F8FBC6",
"|. c #F8F9CC",
" X c #F8FCD3",
".X c #F8FADC",
"XX c #F8F9EB",
"oX c #F8F9E6",
"OX c #F8F8F5",
"+X c #F8F7FF",
"@X c #F8F8FC",
/* pixels */
"d s s s 9 : y w.: m v : u 9 y 9 a y 9 y 9 y y 9 ",
"d : s y 9 5 e : 2 J c 4 y 9 < 9 u e y 9 y 9 9 y ",
"d : s w.< g < q h D D f 8 < g < i s a s e s s e ",
"d y t r.2 g X m B [ +.D m - , O > w.y a y : s y ",
"d 9 6 5 ; x k M ' =.&.~ C X 2 b z 4 r u y : y e ",
"s w I B z I k A &.1.+.Q ~ A g L D f 4 i s y e y ",
"d e 7 J E #.P G *.y.6.O.t.;.N M $ < $ % y y s s ",
"s u q.X.} =.+.O.6.B.l.7.a.u.O.P K 2 $ ; u y : s ",
"y r y K ) &.%.3.g.G.G.j.1.6.j.9./ f 4 u a a a a ",
"t : O n ( %.9.f.g.Z.J.S.p.h.S.i.W f o # # 8 u e ",
"7 * M E @.6.f.c.b.R.).L.V.D.U.z.] x M M g 3 w.s ",
"~ Q ~  .9.j.g.b.U..X XI.L.U.K.N.4.P ~ D h 2 u s ",
"^ ' $.y.j.j.V.!..X_.).}.E.M.l.c.:.G  .{ S v > s ",
"S G +.8.f.g.b.R.{.(.].+X[.T.v.c.<.' 9.<.Q N O s ",
"g l L  .7.g.g.v.I.|.+XOX+X{.J.b.y.1.g.5.D l - s ",
"k l P +.7.f.V.W.|.OX+XOX+X}.J.L.A.p.9.' j , 9 r ",
"% @ L | 0.C.M./.+X@X@XOX[.~.L.D.C.j.1.T   r e.s ",
"e 6 ~ ..d.I.n.P.oX@X+XOX~.J.K.l.f.f.7./ h 1 y d ",
"U ` $.u.g.l.C.F.Y.|.+XOX.X_.F.c.8.>.f.,.H c > s ",
"X.o.O.2.f.N.^.].). X@X@X+XoX`.H.h.8.p.,.F M - w.",
"0 6 I ..s.I.{.+X@X@X@XOX@X@XoXQ.M.a.1.} G k + a ",
"Y U #.y.N.I.L.`.@X@XOX@X@X XY.N.i.=.*.[ S k f v ",
"! ( +.2.x.K.Q.[.+X@X@XOX{.T.m.V.z.6.y.>.' H B Z ",
"Q I P  .s.I.}.+XOXOX+XOX~.m.j.G.S.g.j.i.#.^ P _ "
};
