/* XPM */
static char *bomb_explose_1_horiz_24x24[] = {
/* columns rows colors chars-per-pixel */
"24 24 176 2 ",
"   c #750000",
".  c #7D0000",
"X  c #5C5D32",
"o  c #774B23",
"O  c #65592D",
"+  c #715427",
"@  c #426C3E",
"#  c #4A6A3B",
"$  c #3B7242",
"%  c #367545",
"&  c #800000",
"*  c #8A0300",
"=  c #8C0800",
"-  c #900000",
";  c #950D00",
":  c #9B0F00",
">  c #9B1000",
",  c #A51800",
"<  c #A91A00",
"1  c #BA1A00",
"2  c #B31D00",
"3  c #8D3F18",
"4  c #8C3D17",
"5  c #B52101",
"6  c #BC2500",
"7  c #BC2902",
"8  c #A1390F",
"9  c #A5370D",
"0  c #B13007",
"q  c #B83106",
"w  c #B63E0C",
"e  c #C61E00",
"r  c #CC1E00",
"t  c #D81B00",
"y  c #C02700",
"u  c #CD2100",
"i  c #C32A00",
"p  c #CB2C00",
"a  c #D02F00",
"s  c #DB2C00",
"d  c #CB3200",
"f  c #CF3C06",
"g  c #D33500",
"h  c #DB3600",
"j  c #DB3C00",
"k  c #E02A00",
"l  c #E23300",
"z  c #ED3100",
"x  c #E33C00",
"c  c #FA3E00",
"v  c #85451D",
"b  c #A84A13",
"n  c #CB4300",
"m  c #DE4100",
"M  c #ED4200",
"N  c #E54B00",
"B  c #EB4A00",
"V  c #F84400",
"C  c #F04C00",
"Z  c #FA4E00",
"A  c #E35100",
"S  c #E95900",
"D  c #F25400",
"F  c #F95200",
"G  c #F35C00",
"H  c #FB5B00",
"J  c #EE6E00",
"K  c #F16400",
"L  c #FC6300",
"P  c #F46800",
"I  c #FC6B00",
"U  c #FE7200",
"Y  c #F67A00",
"T  c #FB7B02",
"R  c #F27300",
"E  c #FA8401",
"W  c #F78B00",
"Q  c #FC8C00",
"!  c #FC9301",
"~  c #F69D00",
"^  c #FA9C01",
"/  c #F8981C",
"(  c #F4A300",
")  c #F8A200",
"_  c #F7A800",
"`  c #F8AD00",
"'  c #FCA909",
"]  c #FAB303",
"[  c #F9BC02",
"{  c #F7B008",
"}  c #F8BC0B",
"|  c #FAB308",
" . c #F8B715",
".. c #F8BF2C",
"X. c #F8CD01",
"o. c #F9C20B",
"O. c #FBCB0B",
"+. c #F8D203",
"@. c #F8D40B",
"#. c #F7DF0C",
"$. c #F9DF0B",
"%. c #F8C613",
"&. c #F8CB14",
"*. c #F8C718",
"=. c #F8CD1A",
"-. c #F8DD12",
";. c #F8D918",
":. c #F8D31A",
">. c #F8F30F",
",. c #F8E617",
"<. c #F8EB17",
"1. c #F8E41C",
"2. c #F8F61C",
"3. c #F8C621",
"4. c #F8C822",
"5. c #FAD723",
"6. c #F8DF24",
"7. c #F8D92C",
"8. c #F8C13C",
"9. c #F8D03E",
"0. c #F9E323",
"q. c #F8EB22",
"w. c #F8E32A",
"e. c #F8E92C",
"r. c #F8F425",
"t. c #F8FC2C",
"y. c #F8E234",
"u. c #F8EB32",
"i. c #F8FA33",
"p. c #F8F53D",
"a. c #F8FC3D",
"s. c #F8F436",
"d. c #F7CB4D",
"f. c #F8E243",
"g. c #F8F741",
"h. c #F8FB43",
"j. c #F8F14F",
"k. c #F8F84D",
"l. c #F8EC53",
"z. c #F8FC55",
"x. c #F8FD5C",
"c. c #F8FF64",
"v. c #F8F56B",
"b. c #F8FC6C",
"n. c #F8EA72",
"m. c #F8FD73",
"M. c #F8F47B",
"N. c #F8F87C",
"B. c #F8DF82",
"V. c #F8FB84",
"C. c #F8F68F",
"Z. c #F8F88E",
"A. c #F8F994",
"S. c #F8F79B",
"D. c #F8FC9D",
"F. c #F8F8A4",
"G. c #F8FAAC",
"H. c #F8E6BC",
"J. c #F8F7B7",
"K. c #F8FAB1",
"L. c #F8F2BF",
"P. c #F8FABB",
"I. c #F8E2C4",
"U. c #F8EFC5",
"Y. c #F8F6C7",
"T. c #F8FBC1",
"R. c #F8FACB",
"E. c #F8F7D0",
"W. c #F8FAD3",
"Q. c #F8F9DD",
"!. c #F8F9E3",
"~. c #F8F6ED",
"^. c #F8F8EA",
"/. c #F8F8F4",
"(. c #F8F7FF",
"). c #F8F8FC",
/* pixels */
"y + # 0 t 9 # % $ $ 4 s G H N y 5 j H d 6 6 = . ",
"m b o 5 s f v # $ o f M Z Y P h s S E S g 6 * . ",
"H x e p S L k o O a V H L ` | I H Q [ T M 6 ; * ",
"Z g y B Q ^ F i q B Z L ( e.y.) ^ ` ` U x 6 2 5 ",
"E S l V ' -.! C z F L ) -.t.i.w.1.@.) I l 1 h x ",
"o.^ L U d.c.;.Q H L ( w.b.m.x.h.b.l.} E N n K I ",
"p.*.` 1.K.Q.k.O.^ ) @.c.^.).G.i.R.R.u.} ~ ( ( ` ",
"i.X. .G./.^.z.<.#.6.M.W.(.F.V.K.S.c.t.[ o.0.[ ] ",
"v.5.3.T./.E.h.x.b.a.T.(.).N.C.(.A.z.v.=.;.h.9.8.",
"/.C.r.i.P.Q.p.K.W.a.F.(.)././.)././.^.v.2.h.R.^.",
"(.Q.G.F.Q./.P.V.V.K.Q.(.).A.S.(.).(.).z.z.E.).).",
").(.(.(.(.(.(.A.M.(.(.(.(.V.v.P.^.(./.Z.A.Q.(.(.",
"/.)./.).)./.)././.)././.).(.G.h.P.(.).).F.h.R.).",
"/.P.b.m.W.(.(.(.Q.V.W.Q.V.!.).R.V.K.(.P.z.i.m.V.",
"(.A.>.$.n.T.K.~.E.t.P.U.-.M.R.H.y.j.T.f.,.h.q.,.",
"/.D.q.] :.h.s.T.W.h.R.I.` 0.e.] ( =.p.} =.p.o.] ",
"m.c.a.u.r.c.Y.K.j.%.I.^.u.$.` U L ! @.w.e.%.E U ",
"t.7...y.1.l.E.m.X.` B.G.u.| P x l D ! w.5.E N x ",
"p./ F ( ` } s.=.) ` e.e.` I x 6 2 a H ^ ! B p y ",
"&.Y F ] Q T +.^ L I | [ U N p y ; > g I G p p p ",
"E E E ! I F J A l x R Y x p 2 , . * 6 j h 6 < , ",
"F W ( G Z N 7 5 5 6 N C 6 y < .   ; p y 7 5 * & ",
"F A n d s w X v e 6 B C y > * * . ; i p < = * * ",
"G m 6 7 u 8 @ v u 7 B D y ; & * . ; y p < & * - "
};
