/* XPM */
static char *bomb_explode_vrt_24x24[] = {
/* columns rows colors chars-per-pixel */
"24 24 187 2 ",
"   c #7E2A15",
".  c #6A2A1A",
"X  c #603421",
"o  c #157832",
"O  c #2B6E34",
"+  c #386834",
"@  c #217B3C",
"#  c #554229",
"$  c #684123",
"%  c #7B4F22",
"&  c #870000",
"*  c #8B0000",
"=  c #880C07",
"-  c #8D0C08",
";  c #930200",
":  c #9A0200",
">  c #9D0A00",
",  c #84110A",
"<  c #9F1703",
"1  c #A40400",
"2  c #A30D00",
"3  c #AC0F00",
"4  c #A41100",
"5  c #A91400",
"6  c #AE1900",
"7  c #B31700",
"8  c #B41D00",
"9  c #B91C00",
"0  c #92260D",
"q  c #8C3012",
"w  c #BD2400",
"e  c #BB2800",
"r  c #B23500",
"t  c #A42908",
"y  c #C20A00",
"u  c #C32300",
"i  c #CC2200",
"p  c #C02900",
"a  c #CB2E00",
"s  c #D82C00",
"d  c #D32800",
"f  c #C33300",
"g  c #CD3300",
"h  c #CC3D02",
"j  c #D13100",
"k  c #D83400",
"l  c #D43A00",
"z  c #DC3C00",
"x  c #E62B00",
"c  c #E03300",
"v  c #E93C00",
"b  c #85401A",
"n  c #845B24",
"m  c #CD4200",
"M  c #D04B00",
"N  c #DA4B00",
"B  c #D45300",
"V  c #E64000",
"C  c #EB4300",
"Z  c #F34600",
"A  c #F14B00",
"S  c #F94C00",
"D  c #E95500",
"F  c #F65600",
"G  c #FB5300",
"H  c #F35B00",
"J  c #FC5E00",
"K  c #D96100",
"L  c #DD7A00",
"P  c #F16700",
"I  c #FC6200",
"U  c #FE6C00",
"Y  c #F66606",
"T  c #EC7800",
"R  c #F57700",
"E  c #FB7400",
"W  c #F77B00",
"Q  c #FC7901",
"!  c #298245",
"~  c #E98C00",
"^  c #F18400",
"/  c #FA8400",
"(  c #F38800",
")  c #FC8C01",
"_  c #FF860C",
"`  c #F88F08",
"'  c #F39600",
"]  c #FD9401",
"[  c #F29F00",
"{  c #FC9C00",
"}  c #FB9717",
"|  c #F9A401",
" . c #F8AB00",
".. c #F7A504",
"X. c #F9B402",
"o. c #F9BB04",
"O. c #FAB60B",
"+. c #FCB80B",
"@. c #FDA017",
"#. c #F8A810",
"$. c #E7A507",
"%. c #FDBA28",
"&. c #F9C302",
"*. c #FECF0C",
"=. c #FCC20B",
"-. c #F8DC08",
";. c #F8D40B",
":. c #FDC518",
">. c #F9C916",
",. c #F9D715",
"<. c #F8DB12",
"1. c #F8D41B",
"2. c #F7D918",
"3. c #F8DB19",
"4. c #F8E415",
"5. c #F9EA14",
"6. c #F8E71D",
"7. c #FCEA1B",
"8. c #F8F419",
"9. c #F8D523",
"0. c #F7DE25",
"q. c #F8D429",
"w. c #F8DC28",
"e. c #F8E626",
"r. c #F8E12A",
"t. c #F8EA29",
"y. c #F8F12C",
"u. c #F9E436",
"i. c #F8EB32",
"p. c #F8FE36",
"a. c #F8F13D",
"s. c #F8FB3A",
"d. c #F8C750",
"f. c #F8CD52",
"g. c #F8E640",
"h. c #F8F345",
"j. c #F8FB45",
"k. c #F8FD4C",
"l. c #F8FA55",
"z. c #F7F259",
"x. c #F8FA5D",
"c. c #F8D27E",
"v. c #F8EE68",
"b. c #F8FC66",
"n. c #F8FE6C",
"m. c #F8F26E",
"M. c #F8EE77",
"N. c #F7FE71",
"B. c #F5F67B",
"V. c #F8F47D",
"C. c #EAF786",
"Z. c #EBF78A",
"A. c #F2F784",
"S. c #F4F68C",
"D. c #F8F182",
"F. c #F3F795",
"G. c #F5F69C",
"H. c #F9F694",
"J. c #EAF798",
"K. c #F8D6A5",
"L. c #EDF8A5",
"P. c #F5F6A7",
"I. c #F5F7AB",
"U. c #F3F8AB",
"Y. c #F8EABE",
"T. c #F7F7B0",
"R. c #F2F8B2",
"E. c #F7F7BB",
"W. c #F2F9BA",
"Q. c #F8F0B3",
"!. c #F7F7C7",
"~. c #F7F7CB",
"^. c #F4FACB",
"/. c #F3F9D3",
"(. c #F8F8D3",
"). c #F7F9DB",
"_. c #F8F8DB",
"`. c #F7F9E1",
"'. c #F8F8E2",
"]. c #F5FAEF",
"[. c #F8F9EC",
"{. c #F8F7F1",
"}. c #F8F8F7",
"|. c #F8F7FF",
" X c #F7FAFE",
".X c #F8F8FB",
"XX c #F3FCF4",
/* pixels */
"; 2 g A / =.y.L. X}.}.}.}.}..X.XZ.6.X.X.~ a 9 p ",
";   n h H ] >.v.F.A.!. X}..X.X.X/.D.3.&.( z 9 5 ",
", # + t x I { <.p.j.T. X.X}..X}.{.^.N.e.| E 9 * ",
"O X - 6 c I | <.b.).}.}.}..X.X.XV.b.{.Z.7.X.r * ",
"! $ y k P ]  .3.l.S.(..X}.}..X.XE.P.U.z.*.] h 8 ",
"+ b s S ] &. .9.j.j.Q..X.X}.}..X}.W.p.&.W A a e ",
"- 4 g Z ) o. .<.n.`..X}.}.}..X.XF.j.j.} C a 2 ; ",
": 1 m ^ / ` q.,.q.V./..X.X.X.X.XB.8.9._ v w ; & ",
"* 1 m ..E Y u.,.o.h.R.|..X}.|.|.C.5.X.P v g 6 > ",
"; 2 g H G J | -.l.(.}.}..X}.|. XC.5.X.M i F l e ",
"$ q d S E | 1.B./. X X.X.X X.X.X).H.u.$.K z 8 4 ",
"o % d v R +.e.F.[.}.}.[.~.'.}.|.{.E.h.*.^ g 2 ; ",
"o n i 9 z U | <.N.[..X~.h.G. X XJ.t.o.R G F g w ",
". 0 a c P | 1.M.!..X.X'.P.).{.A.s.8.r.#.E J z f ",
"1 3 a C E o.e.G.'.!.'..X.X'.P.x.x.b.a.<.{ J a 9 ",
"w w w w z U | w.k.s.I..X.XB.l.'.}.Y.O.X.{ J 9 ; ",
"a k D L T ) q.8.s.S._..X.XE.R. XK.d.w.,.' l : & ",
"8 j Y { =.3.i.h.S. X.X}.}..X X Xf.&.i.:.T g 5 > ",
"; 4 g Z %.s.X.c.}.}..X}.}.}..X.XA.4.o.R G F l p ",
"& : f ( } } 1.Q. X.X}.}..X}..X.X/.S.3...U G u 2 ",
"2 7 N ' Q E 9.B.(. X X}.}.}.}.}.|.].Z.i.O.Q e > ",
"p z F G / X. .<.n.]..X}.}. X}.}..X|. XZ.7.X.B e ",
"4 j U ^ ..o.1.M.U.V.!..X}.}.}.}..X'.F.u.+./ f 4 ",
"; u U ..X.o.y.W.`.h.F..X}..X}.}.|.^.k.;.] J 7 ; "
};
