/* XPM */
static char *bomb_explose_1_verti_24x24[] = {
/* columns rows colors chars-per-pixel */
"24 24 176 2 ",
"   c #7E2A15",
".  c #6A2A1A",
"X  c #603421",
"o  c #554229",
"O  c #4E5D35",
"+  c #684123",
"@  c #7B4F22",
"#  c #4B6238",
"$  c #357F49",
"%  c #3B7744",
"&  c #870000",
"*  c #8B0000",
"=  c #880C07",
"-  c #8D0C08",
";  c #930200",
":  c #9A0200",
">  c #9D0A00",
",  c #84110A",
"<  c #9F1703",
"1  c #A40400",
"2  c #A30D00",
"3  c #AC0F00",
"4  c #A41100",
"5  c #A91400",
"6  c #AE1900",
"7  c #B31700",
"8  c #B41D00",
"9  c #B91C00",
"0  c #92260D",
"q  c #8C3012",
"w  c #BD2400",
"e  c #BB2800",
"r  c #B23500",
"t  c #A42908",
"y  c #C20A00",
"u  c #C32300",
"i  c #CC2200",
"p  c #C02900",
"a  c #CB2E00",
"s  c #D82C00",
"d  c #D32800",
"f  c #C33300",
"g  c #CD3300",
"h  c #CC3D02",
"j  c #D13100",
"k  c #D83400",
"l  c #D43A00",
"z  c #DC3C00",
"x  c #E62B00",
"c  c #E03300",
"v  c #ED3B00",
"b  c #E43C00",
"n  c #85401A",
"m  c #845B24",
"M  c #CD4200",
"N  c #D04B00",
"B  c #DA4B00",
"V  c #D45300",
"C  c #E64000",
"Z  c #EB4300",
"A  c #F34600",
"S  c #F14B00",
"D  c #F94C00",
"F  c #E95500",
"G  c #F65600",
"H  c #FB5300",
"J  c #F35B00",
"K  c #FC5E00",
"L  c #D96100",
"P  c #DD7A00",
"I  c #F16700",
"U  c #FC6200",
"Y  c #F46A00",
"T  c #FE6C00",
"R  c #F8610B",
"E  c #ED7400",
"W  c #EA7B00",
"Q  c #F57700",
"!  c #FB7400",
"~  c #F77B00",
"^  c #FC7901",
"/  c #31854C",
"(  c #E98C00",
")  c #F18400",
"_  c #FA8400",
"`  c #F38800",
"'  c #FC8C01",
"]  c #FF860C",
"[  c #F88F08",
"{  c #F39600",
"}  c #FD9401",
"|  c #F29F00",
" . c #FC9C00",
".. c #FB9717",
"X. c #F7A504",
"o. c #F9A401",
"O. c #F8AB00",
"+. c #F9B402",
"@. c #F9BB04",
"#. c #FAB60B",
"$. c #FCB80B",
"%. c #FDA017",
"&. c #F8A810",
"*. c #E7A507",
"=. c #FDBA28",
"-. c #F9C302",
";. c #FECF0C",
":. c #FCC20B",
">. c #F8DC08",
",. c #F8D40B",
"<. c #FDC518",
"1. c #F9C916",
"2. c #F9D715",
"3. c #F8DB12",
"4. c #F8D41B",
"5. c #F7D918",
"6. c #F8DB19",
"7. c #F8E415",
"8. c #F9EA14",
"9. c #F8E71D",
"0. c #FCEA1B",
"q. c #F8F419",
"w. c #F8D523",
"e. c #F7DE25",
"r. c #F8D429",
"t. c #F8DE2D",
"y. c #F8D923",
"u. c #F8E626",
"i. c #F8E12A",
"p. c #F8EA29",
"a. c #F8F12C",
"s. c #F9E436",
"d. c #F8EB32",
"f. c #F8FE36",
"g. c #F8F13D",
"h. c #F8FB3A",
"j. c #F8C750",
"k. c #F8CD52",
"l. c #F8E640",
"z. c #F8F345",
"x. c #F8FB45",
"c. c #F8FD4C",
"v. c #F8FA55",
"b. c #F7F259",
"n. c #F8FA5D",
"m. c #F8D27E",
"M. c #F8EE68",
"N. c #F8FC66",
"B. c #F8FE6C",
"V. c #F8F26E",
"C. c #F8EE77",
"Z. c #F8FF71",
"A. c #F8F57B",
"S. c #F8F87D",
"D. c #F8FA84",
"F. c #F8FC8B",
"G. c #F8F182",
"H. c #F9F795",
"J. c #F8FB93",
"K. c #F8FA9D",
"L. c #F8D6A5",
"P. c #F8F9A0",
"I. c #F8FAAB",
"U. c #F8EABE",
"Y. c #F8F0B3",
"T. c #F8FAB3",
"R. c #F8FABD",
"E. c #F8F9CB",
"W. c #F8FBD4",
"Q. c #F8FADB",
"!. c #F8F9E2",
"~. c #F8F9EC",
"^. c #F8F7F1",
"/. c #F8F9F6",
"(. c #F8F7FF",
"). c #F8F8FB",
/* pixels */
"; 2 g S _ :.a.I.).)./.)././.(.(.J.9.+.@.( p 9 p ",
";   m h J } 1.M.K.D.E.).)./.).).W.G.5.-.` b 9 5 ",
", o # t x U  .3.f.x.I.)./.).)./.^.E.Z.u.o.! 9 * ",
"# X - 8 c U | 7.N.Q.).)././.(.(.S.N.^.J.0.+.r * ",
"/ + y k I } o.6.v.D.W.).)./.).).R.P.I.b.;.} h 6 ",
"O n s D } @.O.w.x.z.Y.(.)././.)./.R.h.-.^ S a e ",
"- < a A ' @.O.3.B.!.)./.)./.(.(.J.x.x...Z g 4 ; ",
": 1 h ` ' [ r.2.r.S.W.)././.(.(.D.q.y.] v w ; & ",
"; 1 M o.! R s.2.@.z.T.).).).).).F.8.O.Y b g 5 > ",
"; 2 g J H J X.>.v.W./.).)./.).).F.8.+.N i J z w ",
"X q d D ! X.4.A.Q.).).(.).(.).).Q.H.d.*.L z 8 4 ",
"/ @ d C Q $.u.J.~./.).~.E.!.).).^.R.z.;.) g 2 ; ",
"% m i 9 b T o.6.B.~.(.E.x.P.(.(.K.p.@.^ H G g w ",
". 0 a z I X.4.V.E.(.(.!.P.!.^.D.h.q.i.&.! K z g ",
"1 3 a C ! +.u.K.!.E.!.(.(.!.I.b.b.N.g.2. .K a 8 ",
"w w p 9 z T o.i.c.h.I.).(.A.v.!./.E.#.+. .K w ; ",
"a k F P W ' r.q.h.J.W.(.).R.T.).L.j.t.2.{ l > & ",
"8 j U  .:.5.d.z.F.).(././.(.).(.k.-.d.1.E g 5 > ",
"; 4 j S =.f.+.m./.).)./././.(.(.F.8.+.! H G j p ",
"& : f ` ....4.Y.(.(./././.).).).Q.F.6.X.T H p 2 ",
"> 7 B { ! Q y.S.W.).(.).)./././.)./.F.d.$.^ e > ",
"p z K D _ +.O.2.B.~.(./././.)./.).).).F.0.+.V e ",
"4 j T _ o.-.4.C.T.S.R.(.)././.).).!.H.l.$._ f 4 ",
"; u ! X.O.@.a.R.!.z.H.(.)././.).).E.c.,.} K 7 ; "
};
