/* XPM */
static char *bomb_explode_hrz_l_24x24[] = {
/* columns rows colors chars-per-pixel */
"24 24 191 2 ",
"   c #6F0104",
".  c #7E0101",
"X  c #780906",
"o  c #710508",
"O  c #7D190E",
"+  c #691513",
"@  c #751B12",
"#  c #7D1E11",
"$  c #5A311F",
"%  c #6D2E1C",
"&  c #792113",
"*  c #732C19",
"=  c #732816",
"-  c #67331D",
";  c #6E321D",
":  c #73301A",
">  c #583E25",
",  c #643A22",
"<  c #623722",
"1  c #147731",
"2  c #107830",
"3  c #1A7936",
"4  c #1F7A3A",
"5  c #1E7232",
"6  c #3E6434",
"7  c #326C35",
"8  c #247D3E",
"9  c #276A34",
"0  c #5B4629",
"q  c #524F2F",
"w  c #5B4C2B",
"e  c #5F562F",
"r  c #56522F",
"t  c #495A33",
"y  c #604326",
"u  c #456033",
"i  c #820200",
"p  c #8C0301",
"a  c #8C0A04",
"s  c #870B04",
"d  c #940100",
"f  c #9B0101",
"g  c #930C00",
"h  c #85130C",
"j  c #8B1708",
"k  c #991704",
"l  c #A30301",
"z  c #A30D01",
"x  c #AC0401",
"c  c #BA0B00",
"v  c #A41401",
"b  c #AE1500",
"n  c #AB1A00",
"m  c #B21500",
"M  c #BD1700",
"N  c #B41C00",
"B  c #BB1900",
"V  c #84240E",
"C  c #812311",
"Z  c #9E2F10",
"A  c #803618",
"S  c #B32100",
"D  c #BC2400",
"F  c #A8320A",
"G  c #A03810",
"H  c #C01800",
"J  c #CA1900",
"K  c #C12600",
"L  c #CF2100",
"P  c #C42B00",
"I  c #CA2C00",
"U  c #D12500",
"Y  c #CC3200",
"T  c #C03804",
"R  c #D43300",
"E  c #DA3200",
"W  c #D63B00",
"Q  c #D93B00",
"!  c #E43500",
"~  c #EC3000",
"^  c #E33A00",
"/  c #EC3E00",
"(  c #F73A00",
")  c #CC4F00",
"_  c #DD4200",
"`  c #E54300",
"'  c #EB4500",
"]  c #E54A01",
"[  c #EB4C00",
"{  c #F84700",
"}  c #F44C00",
"|  c #ED5D00",
" . c #F35100",
".. c #FD5301",
"X. c #F55C00",
"o. c #FB5B01",
"O. c #EF6000",
"+. c #F36302",
"@. c #FB6200",
"#. c #FE6A02",
"$. c #F76A06",
"%. c #F47000",
"&. c #FD7400",
"*. c #FB7B00",
"=. c #FD6F27",
"-. c #29844A",
";. c #F48602",
":. c #FC8301",
">. c #F68900",
",. c #FA9401",
"<. c #F69C00",
"1. c #FB9B00",
"2. c #FB941A",
"3. c #F3A400",
"4. c #FBA401",
"5. c #FAAB01",
"6. c #FFA509",
"7. c #F8B400",
"8. c #F8BD03",
"9. c #FAA21D",
"0. c #FAA913",
"q. c #F7B511",
"w. c #F9B91C",
"e. c #FFA029",
"r. c #F4A624",
"t. c #ECC30C",
"y. c #F8C304",
"u. c #F8CC05",
"i. c #FAC10A",
"p. c #F8D400",
"a. c #F8D80B",
"s. c #F8CC17",
"d. c #F8DA13",
"f. c #F8D218",
"g. c #FBC620",
"h. c #FAD824",
"j. c #F7D438",
"k. c #F8E927",
"l. c #F9E428",
"z. c #F8EC2B",
"x. c #F5FC2D",
"c. c #EEEC35",
"v. c #F8E83F",
"b. c #F8EC36",
"n. c #F8FC36",
"m. c #F8F63B",
"M. c #F7D447",
"N. c #F8EC40",
"B. c #F8FE44",
"V. c #F7FF4F",
"C. c #F8FD4C",
"Z. c #F8EE59",
"A. c #F8FD55",
"S. c #F8FF5A",
"D. c #F8DC64",
"F. c #F8D271",
"G. c #F8FC60",
"H. c #F8F16C",
"J. c #F5F669",
"K. c #E8F578",
"L. c #EDF78E",
"P. c #EAF783",
"I. c #F5F690",
"U. c #F0F896",
"Y. c #F6F69C",
"T. c #F4F685",
"R. c #F8E6A8",
"E. c #F8E2A5",
"W. c #EDF9AE",
"Q. c #F5F6A2",
"!. c #F0F8A6",
"~. c #F2F8AD",
"^. c #F6F7B5",
"/. c #F0F8B6",
"(. c #F5F9BA",
"). c #F9DDCD",
"_. c #F0FAC7",
"`. c #F7F7CB",
"'. c #F5F8CC",
"]. c #F5F9D6",
"[. c #F8F7DA",
"{. c #F7F8DD",
"}. c #F8F8DE",
"|. c #F8F8D1",
" X c #F5FBE2",
".X c #F6F7E4",
"XX c #F8F8F5",
"oX c #F8F7FF",
"OX c #F5FCFD",
"+X c #F8F8FD",
"@X c #F5F9F7",
/* pixels */
"2 2 2 2 2 2 2 2 2 2 1 2 & f d . g P  .[ D s g D ",
"2 2 2 2 2 2 2 2 2 t w 0 > & d p n Q %.+.Y p a D ",
"2 2 2 2 2 2 2 1 1 # l d 6 q d n E @.4.4.[ g g D ",
"2 2 2 2 2 3 -.9 @ v M m G V . v E o.5.1. .D P ] ",
"2 2 1 4 1 0 e A x B I Q ~ M g D [ *.5.,.{ I Q ..",
"2 2 1 1 0 d M I P D Q @.#.] I ' :.8.8.,. .P W X.",
"2 q h Z F m ! ^ D E X.1.h.r.[ ( 2.z.8.4.;.[ | ,.",
"2 6 = z J _ *.+.R X.e.D.A.g...o.q.B.D.M.u.:.1.a.",
"2 2 2 + c o.5.1.@.,.F.OXP.w.X.,.d.S.@X_.m.8.h.C.",
"3 u #   b #.5.7.4.d.U.+X XF.,.p.J.].+XOX'.N.H.'.",
"y = d a S ] *.4.y.d.Z.(.OXR.d.J.].+XoX[.Y.n.L.+X",
"d p i N P K ^ &.5.5.u.C.].W.A.].+X+XoXQ.n.m.Q.XX",
"f p i S I K D _ &.>.f.C.S.!..XK.!.+X+X.X`.[.XX@X",
"; @ p l N I R / o.s.k.h.a.H./.l.v.(.+X+XoX^.|.@X",
"1 r a X a P ] ..X.j.l.4.1.s.z.5.y.C.`.@X[.C.T..X",
"2 1 t 5 < d k n Q $.6.7.&.1.y.+.9.B.A.(.OX[.I.J.",
"2 2 3 8 1 $ o p v U +.;._ ] :.*.0.k.x.Z.E.OXW.x.",
"2 2 2 2 2 7 h p i n ` ..I W #.<.5.7.b.u.0.).Y.c.",
"2 2 2 1 w d d d d N ] o.} ;.3.) _ *.i.1.o.=.9.t.",
"2 2 2 2 r = ; , * z L ] ' *.;.P J ] :.&.{ ! | ;.",
"2 2 2 2 2 3 3 8 2 @ z B N Q [ P m K ' o.` D Y [ ",
"2 2 2 2 2 2 2 2 2 1 * l f B I l d l I R K f N D ",
"2 2 2 2 2 2 2 2 2 4 t < < j k * > * k m k < C k ",
"2 2 2 2 2 2 2 2 2 2 2 2 1 * s 9 -.u s l O 1 , h "
};
