/* XPM */
static char *bomb_explode_vrt_u_24x24[] = {
/* columns rows colors chars-per-pixel */
"24 24 199 2 ",
"   c #790507",
".  c #7D1A0F",
"X  c #7B120C",
"o  c #7B1E12",
"O  c #711912",
"+  c #6C2518",
"@  c #672E1D",
"#  c #792C17",
"$  c #732918",
"%  c #7A2313",
"&  c #65341F",
"*  c #7F3018",
"=  c #793F1E",
"-  c #5E3722",
";  c #633521",
":  c #653B22",
">  c #157731",
",  c #1A7633",
"<  c #117830",
"1  c #1A7936",
"2  c #1D7938",
"3  c #2A6D34",
"4  c #386634",
"5  c #247D3D",
"6  c #5B4529",
"7  c #5A4B2B",
"8  c #56512E",
"9  c #475D33",
"0  c #4A5932",
"q  c #4F5632",
"w  c #535430",
"e  c #555B32",
"r  c #655B2E",
"t  c #6B5A2C",
"y  c #6B572A",
"u  c #5B6331",
"i  c #860303",
"p  c #8C0302",
"a  c #840907",
"s  c #8B0A05",
"d  c #960200",
"f  c #9C0201",
"g  c #960801",
"h  c #9A0B02",
"j  c #8C150B",
"k  c #85180E",
"l  c #961206",
"z  c #9D1507",
"x  c #821B12",
"c  c #A50100",
"v  c #AE0100",
"b  c #A50A01",
"n  c #AA0C02",
"m  c #B50000",
"M  c #B30F00",
"N  c #A91401",
"B  c #AD1A01",
"V  c #B51601",
"C  c #B81400",
"Z  c #BC1D00",
"A  c #B41E00",
"S  c #98250D",
"D  c #893E19",
"F  c #B62201",
"G  c #BC2400",
"H  c #BC2D03",
"J  c #B13308",
"K  c #BC3B09",
"L  c #A8360C",
"P  c #CB0B00",
"I  c #C11F00",
"U  c #C81800",
"Y  c #D31B00",
"T  c #C12600",
"R  c #CC2100",
"E  c #C22900",
"W  c #CA2B00",
"Q  c #D22400",
"!  c #D22A00",
"~  c #DD2D00",
"^  c #C23706",
"/  c #D43300",
"(  c #D43B00",
")  c #DE3C00",
"_  c #DC3500",
"`  c #E43500",
"'  c #EC3400",
"]  c #E53C00",
"[  c #EF3A00",
"{  c #86471D",
"}  c #9F4314",
"|  c #D44E00",
" . c #DC4201",
".. c #E44300",
"X. c #E24800",
"o. c #EC4C00",
"O. c #F24C00",
"+. c #FA4F00",
"@. c #F35300",
"#. c #FD5200",
"$. c #FA5A00",
"%. c #D56500",
"&. c #DE6F00",
"*. c #DC7500",
"=. c #EF6600",
"-. c #E36800",
";. c #EE6B00",
":. c #FC6300",
">. c #F46D00",
",. c #FB6F00",
"<. c #E47200",
"1. c #E27B00",
"2. c #F57200",
"3. c #FC7500",
"4. c #F77E00",
"5. c #FC7A00",
"6. c #FE7C0A",
"7. c #28864C",
"8. c #ED8300",
"9. c #FC8400",
"0. c #FB8A00",
"q. c #FF860D",
"w. c #F38C00",
"e. c #FB9501",
"r. c #FC9B00",
"t. c #FF920C",
"y. c #FD9515",
"u. c #FAA400",
"i. c #F9AE00",
"p. c #F9AC0A",
"a. c #F8B301",
"s. c #FABE00",
"d. c #F9BA0B",
"f. c #FCA613",
"g. c #FAB811",
"h. c #FCC202",
"j. c #F8C901",
"k. c #F8C40C",
"l. c #F8CA0B",
"z. c #FAD30B",
"x. c #F8DD0E",
"c. c #FAC110",
"v. c #F8CC14",
"b. c #F8D914",
"n. c #F8D11F",
"m. c #F8D716",
"M. c #F8E61E",
"N. c #F8E411",
"B. c #F9CE20",
"V. c #F9E42C",
"C. c #F8EB2B",
"Z. c #F8F326",
"A. c #F8ED33",
"S. c #F8E53D",
"D. c #F8FC35",
"F. c #F8F53C",
"G. c #F8FB3A",
"H. c #F8C044",
"J. c #F8FA42",
"K. c #F8FF49",
"L. c #F8F856",
"P. c #F8FB59",
"I. c #F8E953",
"U. c #F8EC60",
"Y. c #F8EA6D",
"T. c #F8FF61",
"R. c #F8F668",
"E. c #F8FD6A",
"W. c #F5F673",
"Q. c #F5F870",
"!. c #F8FE70",
"~. c #F4F77D",
"^. c #F1EE7A",
"/. c #EDF889",
"(. c #F4F683",
"). c #F8F180",
"_. c #F5F68D",
"`. c #F5F692",
"'. c #EAF798",
"]. c #F5F6A1",
"[. c #EDF9B9",
"{. c #F7F7B4",
"}. c #F7F7B9",
"|. c #F2F9B8",
" X c #F0F8B2",
".X c #F7F7C6",
"XX c #F4F9CA",
"oX c #F8F8CF",
"OX c #F5F8C4",
"+X c #F8F8D6",
"@X c #F8F8DD",
"#X c #F5FAD9",
"$X c #F8F9E6",
"%X c #F7F9E8",
"&X c #F8F9ED",
"*X c #F8F8F5",
"=X c #F8F7FF",
"-X c #F8F8FC",
";X c #F5FAF7",
/* pixels */
"< < < < < < < > < . k < < < < < < < < < < < < < ",
"< < < < > w > < 0 j j w < > 8 > < < < < < < < < ",
"< < < 1 8 p 8 3 s V V i 3 8 p 8 2 < < < < < < < ",
"< < 1 7.9 p . % n ) ] V x - 7 + 6 5 < < < < < < ",
"< 1 r e : g d c / $.@.E m o 4 l l 8 < > < < < < ",
"< u H b g H g N @.:...E T N d F C i 0 1 < < < < ",
"< , t S U o.G Z #.9.2.] 8.%.v c # 8 o : < < < < ",
"< > 7.{ ` $... .2.c.d.3.e.w.| F # 9 % : 1 < < < ",
"< > > D ~ @.#.>.a.A.A.a.=.3.a.5.Q i 0 1 > < < < ",
"1 > + l ! +.5.u.i.M.G.V.e.p.V.q.Y i O $ $ 3 < < ",
"y = c U X.2.u.h.l.Y.~.G.m.C.K.f.( h c v p 4 5 < ",
"T T E ] 5.a.i.l.J.+XXXJ.G.J.F.z.<.G E M a 9 1 < ",
"W / O.9.i.a.b.W.@X(.(..XT.N.d.h.*.Z ] _ B k 6 < ",
"B Z X.4.u.i.v.U.}.~.].=X|.I.d.s.<._ 5.;.Z v + < ",
"d g F ] 3.i.i.l.J.XX=X*X=X|.D.l.5.:.i.1.V g ; < ",
"d f G ] 3.u.b.R..X*X=X*X=X.XD.G.B.e.9./ s 6 > < ",
"& # F ' 6.n.x.Y.-X-X-X;X{.!.F.C.b.a.:.P   < 7.< ",
"< r E [ y.J.j.H.&X;X-X*XQ.D.F.d.u.u.3.Q a q > < ",
"J ^ @.0.a.d.m.C.L..X=X*X@X/.Z.h.4.:.u.&.N j 6 < ",
"{ }  .>.u.v.).'.(.+X=X=X=X$X`.S.p.4.e.-.C c & 1 ",
"> r H ' y.J. X=X=X=X;X*X;X-X$XE.x.r.:.` A f @ , ",
"L K @.9.v.J.J._.=X=X*X*X-XXXP.v.w.$.#.) B d i X ",
"U ! ..>.g.J.E.{.=X=X;X*X|.U.z.m.f.2.9.=./ B b b ",
"E G G ` t.J.[.-X*X*X=X&X!.z.a.A.V.i.a.0.O.W F H "
};
