/* XPM */
static char *bomb_explose_2_horiz_l_24x24[] = {
/* columns rows colors chars-per-pixel */
"24 24 187 2 ",
"   c #6F0104",
".  c #7E0101",
"X  c #750707",
"o  c #7D190E",
"O  c #691513",
"+  c #751B12",
"@  c #7D1E11",
"#  c #5A311F",
"$  c #6D2E1C",
"%  c #792113",
"&  c #732C19",
"*  c #732816",
"=  c #67331D",
"-  c #6E321D",
";  c #73301A",
":  c #583E25",
">  c #643A22",
",  c #623722",
"<  c #5B4629",
"1  c #524F2F",
"2  c #5B4C2B",
"3  c #5B542F",
"4  c #4E5C34",
"5  c #425938",
"6  c #505733",
"7  c #634429",
"8  c #43643A",
"9  c #4C6138",
"0  c #426C3E",
"q  c #3D7442",
"w  c #3A7A45",
"e  c #377E48",
"r  c #347C47",
"t  c #416F40",
"y  c #407040",
"u  c #477749",
"i  c #4D7A4D",
"p  c #4A774A",
"a  c #527E52",
"s  c #820200",
"d  c #8C0301",
"f  c #8C0A04",
"g  c #940101",
"h  c #9B0101",
"j  c #930C00",
"k  c #85130C",
"l  c #8B1708",
"z  c #991605",
"x  c #9D1717",
"c  c #A30301",
"v  c #A30D01",
"b  c #AC0401",
"n  c #BA0B00",
"m  c #A41401",
"M  c #AE1500",
"N  c #AB1A00",
"B  c #B21500",
"V  c #BD1700",
"C  c #B41C00",
"Z  c #BB1900",
"A  c #84240E",
"S  c #812311",
"D  c #9E2F10",
"F  c #803618",
"G  c #B32100",
"H  c #BC2400",
"J  c #A8320A",
"K  c #AC2315",
"L  c #A03810",
"P  c #C01800",
"I  c #CA1900",
"U  c #C12600",
"Y  c #CF2100",
"T  c #C42B00",
"R  c #CA2C00",
"E  c #D12500",
"W  c #CC3200",
"Q  c #D43300",
"!  c #DA3200",
"~  c #D63B00",
"^  c #D93B00",
"/  c #E43500",
"(  c #EC3000",
")  c #E33A00",
"_  c #EC3E00",
"`  c #F73A00",
"'  c #CC4F00",
"]  c #DD4200",
"[  c #D34314",
"{  c #E54300",
"}  c #EB4500",
"|  c #E54900",
" . c #EB4C00",
".. c #F84700",
"X. c #F44C00",
"o. c #ED5D00",
"O. c #F35100",
"+. c #FD5301",
"@. c #F55C00",
"#. c #FB5B01",
"$. c #F55710",
"%. c #EF6000",
"&. c #F36302",
"*. c #FB6200",
"=. c #FE6A02",
"-. c #F76A06",
";. c #F47000",
":. c #FD7400",
">. c #FB7B00",
",. c #FD6F27",
"<. c #2A864E",
"1. c #33834B",
"2. c #3C804B",
"3. c #F68600",
"4. c #FC8301",
"5. c #F68900",
"6. c #FE8D0E",
"7. c #FA9401",
"8. c #F69C00",
"9. c #FB9B00",
"0. c #FB941A",
"q. c #F3A400",
"w. c #FBA401",
"e. c #FAAB01",
"r. c #FFA509",
"t. c #F8B400",
"y. c #F8BD03",
"u. c #FAA21D",
"i. c #FAA913",
"p. c #F7B511",
"a. c #F9B91C",
"s. c #FFA029",
"d. c #F4A624",
"f. c #F8C304",
"g. c #F8CC05",
"h. c #FAC10A",
"j. c #F8D607",
"k. c #F8CB17",
"l. c #F8DA13",
"z. c #F8D218",
"x. c #FBC620",
"c. c #FAD824",
"v. c #F7D438",
"b. c #F9E428",
"n. c #F8EC2B",
"m. c #F8E927",
"M. c #F8FE2A",
"N. c #F8E83F",
"B. c #F8EC36",
"V. c #F8FC36",
"C. c #F8F33D",
"Z. c #F8F83A",
"A. c #F7D447",
"S. c #F8EC40",
"D. c #F8FE44",
"F. c #F7FF4F",
"G. c #F8FD4C",
"H. c #F8EE59",
"J. c #F8FD55",
"K. c #F8FF5A",
"L. c #F8DC64",
"P. c #F8D271",
"I. c #F8FA64",
"U. c #F8F16C",
"Y. c #F8F86D",
"T. c #F8FF7E",
"R. c #F8FF88",
"E. c #F8F886",
"W. c #F8F791",
"Q. c #F8FB9B",
"!. c #F8F999",
"~. c #F8E6A8",
"^. c #F8E2A5",
"/. c #F8F8A3",
"(. c #F8FDAD",
"). c #F8FBB3",
"_. c #F8FBBB",
"`. c #F9DDCD",
"'. c #F8FACC",
"]. c #F8F9D2",
"[. c #F8FADB",
"{. c #F8F7DA",
"}. c #F8FBE4",
"|. c #F8F8E9",
" X c #F8F9F5",
".X c #F8F7FF",
"XX c #F8FAFE",
/* pixels */
"a y y y y y y y y y w q + h g . f T O. .H d j H ",
"a y y y y y y w q 6 2 < , % g d N ^ ;.;.W d f H ",
"i y y y y y 0 w 0 @ c g 4 1 f B ! *.w.w.O.j j H ",
"i 0 q 0 y w <.5 @ m V B L A . m ! +.e.9.O.G T | ",
"i q q r 8 < 3 F b V R ^ ( V j H  .>.e.7...T ^ +.",
"u 0 0 w < h P R T H ^ *.=.| T } 4.y.y.7.O.R ~ @.",
"u 1 k D J B / ^ H ! @.9.c.d. .` 0.n.y.w.5. .o.7.",
"u 4 * v I ] >.&.Q @.s.L.J.x.+.#.p.D.L.A.g.4.9.l.",
"u w 0 O n #.e.9.*.7.P.XXR.a.@.7.l.K. X'.Z.h.z.F.",
"e 4 @   M *.e.t.w.l.Q.XX}.P.8.g.Y.{.XXXX'.S.U.].",
"7 * g j G | >.e.f.l.H._.XX^.l.Y.[.XX.X{.Q.V.W.XX",
"g d s G T U ) :.e.e.g.G.].).J.]..X X.X/.Z.Z./. X",
"h d . G R U H ^ :.5.z.G.K.).}.T.(..X.X}.'.{. X X",
"$ @ d c C R ~ _ #.k.m.c.j.U._.b.N._. XXX.X).].XX",
"q 2 f X f T  .X.@.v.b.w.9.z.n.t.f.G.'. X{.J.E.|.",
"q 0 4 9 > g j N ] -.r.t.:.7.f.&.u.G.J._.XX{.!.Y.",
"y q w 1.8 # X s m E &.3.^ | 4.>.i.m.M.H.^.XX).V.",
"y y y q q 9 k d s N { +.W ~ =.8.q.t.B.g.i.`.Q.S.",
"y y y w < j h g g C | #.X.3.q.' { 4.h.9.#.,.d.k.",
"y t y q 3 * - , ; v Y { { >.3.T I | >.:.../ o.6.",
"q 0 q 0 q w w r 0 + c H C Q X.T B U } #.| H W $.",
"0 q 0 t q q q q y 0 & c h Z R c g c T ~ U c B ~ ",
"q 0 q 0 0 q t t y e 6 > , l z & : $ v M z , S K ",
"q y 0 q t t 0 q y t t y w ; f 4 1.6 k h k t > x "
};
