/* XPM */
static char *bomb_explode_hrz_r_24x24[] = {
/* columns rows colors chars-per-pixel */
"24 24 191 2 ",
"   c #7D0000",
".  c #730506",
"X  c #7F180D",
"o  c #6C1211",
"O  c #7D1710",
"+  c #771C10",
"@  c #7E1D11",
"#  c #6C291A",
"$  c #752716",
"%  c #732B19",
"&  c #7D2513",
"*  c #66351E",
"=  c #6C331D",
"-  c #70321C",
";  c #5C3C24",
":  c #593420",
">  c #643821",
",  c #3F5733",
"<  c #147731",
"1  c #1C7432",
"2  c #107830",
"3  c #1B7936",
"4  c #1E7939",
"5  c #296F33",
"6  c #336834",
"7  c #227233",
"8  c #237D3D",
"9  c #5C4428",
"0  c #564A2C",
"q  c #5B4D2C",
"w  c #58512E",
"e  c #4C5C33",
"r  c #445D33",
"t  c #525431",
"y  c #604226",
"u  c #61552E",
"i  c #446233",
"p  c #820100",
"a  c #8D0101",
"s  c #8C0B04",
"d  c #940000",
"f  c #9C0101",
"g  c #930C00",
"h  c #9C0E02",
"j  c #83130B",
"k  c #881009",
"l  c #81190F",
"z  c #991403",
"x  c #A20200",
"c  c #AF0300",
"v  c #A70D00",
"b  c #A90800",
"n  c #BE0D00",
"m  c #A41300",
"M  c #AC1500",
"N  c #AE1B00",
"B  c #B41500",
"V  c #B31B00",
"C  c #BC1B00",
"Z  c #BB1600",
"A  c #84210E",
"S  c #843115",
"D  c #9F3110",
"F  c #9D3911",
"G  c #B42100",
"H  c #BD2400",
"J  c #A93109",
"K  c #C61900",
"L  c #CC1C00",
"P  c #C02700",
"I  c #CF2300",
"U  c #C52B00",
"Y  c #CC2E00",
"T  c #C73400",
"R  c #CC3100",
"E  c #D53500",
"W  c #DE3300",
"Q  c #D53A00",
"!  c #DB3B00",
"~  c #EA2E00",
"^  c #E53500",
"/  c #E23C00",
"(  c #EC3E00",
")  c #F83D00",
"_  c #DD4300",
"`  c #CD5300",
"'  c #E54500",
"]  c #ED4600",
"[  c #E54A00",
"{  c #EA4A00",
"}  c #F34C00",
"|  c #FC4C00",
" . c #F04400",
".. c #EC5600",
"X. c #FB5500",
"o. c #F45E02",
"O. c #FA5C00",
"+. c #F55500",
"@. c #EF6400",
"#. c #F36300",
"$. c #FC6400",
"%. c #FF6802",
"&. c #F7680C",
"*. c #F77400",
"=. c #FD7500",
"-. c #FB7C00",
";. c #FD6C26",
":. c #298347",
">. c #F78700",
",. c #FE8300",
"<. c #FC8C01",
"1. c #F99401",
"2. c #F69D00",
"3. c #FB9C01",
"4. c #FA9C1A",
"5. c #F4A500",
"6. c #F9A501",
"7. c #FAAC00",
"8. c #FCA40A",
"9. c #F8B400",
"0. c #F8BC02",
"q. c #FABF0A",
"w. c #FAAC15",
"e. c #F9BC18",
"r. c #FB9F20",
"t. c #F9A228",
"y. c #F8C303",
"u. c #F8CC05",
"i. c #F8C50B",
"p. c #F8DA0C",
"a. c #F8D607",
"s. c #FAC61A",
"d. c #F8DC15",
"f. c #F9D816",
"g. c #FAD623",
"h. c #F8D925",
"j. c #F7D237",
"k. c #F8E627",
"l. c #F9E429",
"z. c #F8EC2A",
"x. c #F8F72B",
"c. c #F8EA3E",
"v. c #F8EB36",
"b. c #F8FC35",
"n. c #F8F439",
"m. c #F7D444",
"M. c #F7FF4D",
"N. c #F8FE4B",
"B. c #F8FF44",
"V. c #F8EF52",
"C. c #F8EE5E",
"Z. c #F8FA54",
"A. c #F8FF5A",
"S. c #F8DE7C",
"D. c #F8CF66",
"F. c #F8E065",
"G. c #F8FB65",
"H. c #F8F16C",
"J. c #F7F86E",
"K. c #E9F67A",
"L. c #F4F670",
"P. c #F4F682",
"I. c #EDF790",
"U. c #EDF899",
"Y. c #F4F798",
"T. c #F5F693",
"R. c #F8E4A3",
"E. c #F5F6A2",
"W. c #F2F8AC",
"Q. c #F4F6A5",
"!. c #EDF9B4",
"~. c #F7F7B4",
"^. c #F4F9B7",
"/. c #F5F7B8",
"(. c #F3FAB9",
"). c #F9DAC7",
"_. c #F3F9C4",
"`. c #F7F7C9",
"'. c #F5F9CF",
"]. c #F4F9D4",
"[. c #F8F8D0",
"{. c #F8F7D9",
"}. c #F7F8DA",
"|. c #F8F8DE",
" X c #F6FAE0",
".X c #F8F8E5",
"XX c #F8F8F4",
"oX c #F8F7FF",
"OX c #F5FCFD",
"+X c #F8F8FD",
"@X c #F5FBF5",
/* pixels */
"d 9 < k x j 1 :.e a > 4 2 2 2 2 2 2 2 2 2 2 2 2 ",
"m & = z M z # ; % m A ; * 6 8 2 2 2 2 2 2 2 2 2 ",
"Y B f U Q U x d b R Z f x = 2 2 2 2 2 2 2 2 2 2 ",
"} Y H { X.' H B U } E V H h o 2 8 3 < 2 2 2 2 2 ",
",...^ } =.-.{ K T >.*.] ' L h - > = % t < 2 2 2 ",
"i.r.;.O.2.q.=._ ` 5.-.+.O.' V d d d s q 3 2 2 2 ",
"n.E.).8.u.v.9.5.2.$.E U +./ m p d l 7 2 2 2 2 2 ",
"b.!.OXR.V.x.k.w.-.,.[ _ >.#.I m p . : 2 8 3 2 2 ",
"G.T.].OX^.Z.B.4.#.i.3.=.9.8.&.! N g d * 1 i 2 2 ",
".XP.Z..XXX_.N.0.7.z.s.2.5.k.j.o.| [ H k . s w < ",
"oX[.^.+X+X+X^.c.l.(.H.a.g.k.e.O.( Q U V v a + - ",
"XXXX|.`..X+XoXW.K..XW.A.N.f.1.=.! H P Y G p a f ",
"XXE.n.b.E.+X+XOX].A.~.].N.u.6.7.=.( H U G   a d ",
"oXI.b.Y.{.+X+X].L.p.R.OX/.C.d.y.7.-.[ G s d $ y ",
"[.H.V._.OXOX}.J.a.1.D. XoXU.d.8.9.7.$.M . X i 4 ",
"Z.f.y.v._.@XG.d.2.+.w.K.OXS.2.$.1.7.$.n o 2 2 2 ",
"p.3.,.u.m.D.B.q.O.| s.Z.F.t.#.E @.-.' L v $ r 2 ",
"1.#.{ >.2.0.z.4.) ] r.g.6.&.W H W ^ V J D k 0 2 ",
"O.! U } <.0.q.<.{ U _ %.$._ H U U K f y < 2 2 2 ",
"X.! U  .<.7.-...U g Z ~ W R Z c S u 9 1 4 < 2 2 ",
"{ U G } 3.7.$.^ M p A F B Z M O , :.< 2 2 2 2 2 ",
"U g s { 1.7.$./ V d 0 5 s x j 1 2 2 2 2 2 2 2 2 ",
"H g p U #.*._ N a d @ > 9 q t 2 2 2 2 2 2 2 2 2 ",
"P z p G { +.R g   a f X 1 < 2 2 2 2 2 2 2 2 2 2 "
};
