/* XPM */
static char *bomb_explode_vrt_d_24x24[] = {
/* columns rows colors chars-per-pixel */
"24 24 193 2 ",
"   c #7A090A",
".  c #7D1A0F",
"X  c #7A1D12",
"o  c #711912",
"O  c #6E2618",
"+  c #662F1E",
"@  c #6B271A",
"#  c #772917",
"$  c #782F17",
"%  c #732A18",
"&  c #7B2313",
"*  c #65341F",
"=  c #793F1E",
"-  c #7D3119",
";  c #5D3823",
":  c #653C22",
">  c #633621",
",  c #137731",
"<  c #1A7632",
"1  c #107830",
"2  c #1A7936",
"3  c #1D7938",
"4  c #2C6D34",
"5  c #396534",
"6  c #217233",
"7  c #237C3D",
"8  c #5B4629",
"9  c #594D2C",
"0  c #5C4127",
"q  c #56512E",
"w  c #465C33",
"e  c #4B5732",
"r  c #515530",
"t  c #565932",
"y  c #635D2F",
"u  c #6B592B",
"i  c #6C572A",
"p  c #426033",
"a  c #616030",
"s  c #840504",
"d  c #8D0202",
"f  c #880A06",
"g  c #960200",
"h  c #9D0201",
"j  c #970901",
"k  c #9B0B01",
"l  c #8C140A",
"z  c #85170D",
"x  c #9B1306",
"c  c #931207",
"v  c #801C13",
"b  c #A40100",
"n  c #AB0000",
"m  c #A50A01",
"M  c #AF0A00",
"N  c #B30000",
"B  c #B30F00",
"V  c #AA1501",
"C  c #AD1A01",
"Z  c #B41400",
"A  c #B41C00",
"S  c #BD1E00",
"D  c #9A240C",
"F  c #8B3D18",
"G  c #B62201",
"H  c #BC2300",
"J  c #BB2D03",
"K  c #B13308",
"L  c #BA3A09",
"P  c #A7360C",
"I  c #CD0C00",
"U  c #CD1F00",
"Y  c #C31200",
"T  c #D21900",
"R  c #C22400",
"E  c #CC2100",
"W  c #C12800",
"Q  c #CB2C00",
"!  c #D22500",
"~  c #DE2D00",
"^  c #D32C00",
"/  c #C13706",
"(  c #D53400",
")  c #D43C00",
"_  c #DF3C00",
"`  c #DC3500",
"'  c #EA3300",
"]  c #E43C00",
"[  c #EE3800",
"{  c #E33500",
"}  c #88471C",
"|  c #9D4315",
" . c #DB4101",
".. c #D34C00",
"X. c #E44200",
"o. c #E24900",
"O. c #ED4D00",
"+. c #F34D00",
"@. c #F75700",
"#. c #FC5200",
"$. c #FB5B00",
"%. c #D46300",
"&. c #DE7400",
"*. c #EE6C00",
"=. c #E56B00",
"-. c #FB6200",
";. c #F26900",
":. c #FC6C00",
">. c #E47200",
",. c #E27C00",
"<. c #F47300",
"1. c #FA7400",
"2. c #F77D00",
"3. c #FC7A00",
"4. c #FE7A0A",
"5. c #28854B",
"6. c #ED8400",
"7. c #FC8400",
"8. c #FB8C00",
"9. c #FE8C0A",
"0. c #F98806",
"q. c #FB9501",
"w. c #FF9800",
"e. c #FD9214",
"r. c #FAA300",
"t. c #F9AD00",
"y. c #F9AD0A",
"u. c #F8B201",
"i. c #F9BA0B",
"p. c #FBB808",
"a. c #F8A813",
"s. c #FFA513",
"d. c #FAC101",
"f. c #F8C40C",
"g. c #F8CB0D",
"h. c #F8CA01",
"j. c #FBD20D",
"k. c #F8DB0E",
"l. c #F9C412",
"z. c #F9C812",
"x. c #F8DA13",
"c. c #F8D11C",
"v. c #F8D817",
"b. c #F8E71F",
"n. c #F8E411",
"m. c #F9CF21",
"M. c #F9E42C",
"N. c #F8EB2B",
"B. c #F8F129",
"V. c #F8F424",
"C. c #F8ED33",
"Z. c #F8FC36",
"A. c #F8F53C",
"S. c #F8FB3B",
"D. c #F8BF40",
"F. c #F8E740",
"G. c #F8E64D",
"H. c #F8FA43",
"J. c #F8FF49",
"K. c #F8EC5F",
"L. c #F8FA59",
"P. c #F8EA6E",
"I. c #F8F666",
"U. c #F8FE64",
"Y. c #F8FD6E",
"T. c #EAF77B",
"R. c #F5F674",
"E. c #F2F973",
"W. c #F4F77E",
"Q. c #F8F07D",
"!. c #F8E575",
"~. c #EDF88B",
"^. c #F4F685",
"/. c #F1F798",
"(. c #F5F6A0",
"). c #F5F6AC",
"_. c #EDF9B4",
"`. c #F7F7B9",
"'. c #F2F9BB",
"]. c #F0F8B3",
"[. c #F7F7C5",
"{. c #F6F8C7",
"}. c #F7F7CD",
"|. c #F2FACC",
" X c #F8F8DF",
".X c #F6F9D7",
"XX c #F8F8E7",
"oX c #F7F9EA",
"OX c #F8F9E9",
"+X c #F5FAF7",
"@X c #F8F8F6",
"#X c #F8F7FE",
"$X c #F8F8FC",
/* pixels */
"W H Q +.8.u.u.M.C.u.j.E.+X#X+X+X#X_.A.9.{ H J R ",
"M m C ( ;.7.1.a.x.j.I.'.+X$X#X@X).U.A.i.;._ E E ",
"  s g C _ #.@.8.c.L.|.#X@X@X#X#X^.S.H.z.7.O.L P ",
"6 @ h G ] -.r.x.Y.XX#X#X@X@X#X#X#X_.A.9.' J y , ",
"2 * b S =.q.2.y.C./.oX#X@X#X.XW./.Q.l.r.;. .| } ",
"1 0 l V >.r.-.3.p.V.~. X@X#X[.L.B.x.i.u.8.+.L K ",
"1 1 q s ! 1.r.t.f.A.Z.R.@X#X@XXXD.h.A.e.[ J y < ",
"1 5.1   I :.u.v.C.A.Y.`.@X$X#X#X!.k.m.4.' G $ * ",
", , 8 f ( 3.q.m.Z.A.[.#X@X#X@X[.I.x.r.:.] H h g ",
", : h Z ,.t.-.7.g.Z.'.#X+X#X{.H.f.u.u.1.] H g g ",
"1 @ n R ;.3.( >.p.f.G.].$X(.W.`.K.g.t.r.3.X.H V ",
"1 8 z C _ ] S &.d.p.n.U.[.^.^. XR.x.u.t.8.O.( Q ",
"1 , w f B Q S >.g.A.H.S.H.|..XH.g.t.u.3.X.H R R ",
"1 7 4 d b b k ) s.J.N.v.Z.T.P.g.d.r.<.o.Y b = i ",
"1 , 4 % O o d T 9.M.y.q.M.Z.b.t.r.3.#.^ x @ < 2 ",
"1 1 1 1 2 w s ! 3.t.2.-.t.C.C.u.;.#.@.~ F , 1 1 ",
"1 1 1 2 0 & w - H ..8.q.1.i.l.1. .X.$.' } 5., 1 ",
"1 1 1 1 : X q # b b %.6.] <.7.#.S H O.E D u < 1 ",
"1 1 1 1 3 p s Z S d V R R o.$.$.V g H j m J a 1 ",
"1 1 1 1 , , r c x 5 X N W +.$.( b g k : t u < 1 ",
"1 1 1 1 1 1 7 8 @ 9 ; v Z ] _ m & X g e 5.2 , 1 ",
"1 1 1 1 1 1 1 3 r d 9 < s Z A d 5 r d q 2 1 1 1 ",
"1 1 1 1 1 1 1 1 , q < , e l l r 1 , e < 1 1 1 1 ",
"1 1 1 1 1 1 1 1 1 1 1 , 1 X . 1 1 1 1 1 1 1 1 1 "
};
