/* XPM */
static char *bomb_explode_hrz_24x24[] = {
/* columns rows colors chars-per-pixel */
"24 24 187 2 ",
"   c #750000",
".  c #7D0000",
"X  c #137731",
"o  c #1C7532",
"O  c #127831",
"+  c #5B5D32",
"@  c #774B23",
"#  c #65592D",
"$  c #715427",
"%  c #800000",
"&  c #8A0300",
"*  c #8C0800",
"=  c #900000",
"-  c #950D00",
";  c #9B0F00",
":  c #9B1000",
">  c #A51800",
",  c #A91A00",
"<  c #BA1A00",
"1  c #B31D00",
"2  c #8D3F18",
"3  c #8C3D17",
"4  c #B52101",
"5  c #BC2500",
"6  c #BC2902",
"7  c #A1390F",
"8  c #A5370D",
"9  c #B13007",
"0  c #B83106",
"q  c #B63E0C",
"w  c #C61E00",
"e  c #CC1E00",
"r  c #D81B00",
"t  c #C02700",
"y  c #CD2100",
"u  c #C32A00",
"i  c #CB2C00",
"p  c #D02F00",
"a  c #DB2C00",
"s  c #CB3200",
"d  c #CF3C06",
"f  c #D33500",
"g  c #DB3600",
"h  c #DB3C00",
"j  c #E02A00",
"k  c #E23300",
"l  c #ED3100",
"z  c #E33C00",
"x  c #FA3E00",
"c  c #85451D",
"v  c #A84A13",
"b  c #CB4300",
"n  c #DE4100",
"m  c #ED4200",
"M  c #E54B00",
"N  c #EB4A00",
"B  c #F84400",
"V  c #F04C00",
"C  c #FA4E00",
"Z  c #E35100",
"A  c #E95900",
"S  c #F25400",
"D  c #F95200",
"F  c #F35C00",
"G  c #FB5B00",
"H  c #EE6E00",
"J  c #F16400",
"K  c #FC6300",
"L  c #F46800",
"P  c #FC6B00",
"I  c #FE7200",
"U  c #F67A00",
"Y  c #FB7B02",
"T  c #F27300",
"R  c #FA8401",
"E  c #F78B00",
"W  c #FC8C00",
"Q  c #FC9301",
"!  c #F69D00",
"~  c #FA9C01",
"^  c #F8981C",
"/  c #F4A300",
"(  c #F8A200",
")  c #F7A800",
"_  c #F8AD00",
"`  c #FCA909",
"'  c #FAB303",
"]  c #F9BC02",
"[  c #F7B008",
"{  c #F8BC0B",
"}  c #FAB308",
"|  c #F8B715",
" . c #F8BF2C",
".. c #F8CD01",
"X. c #F9C20B",
"o. c #FBCB0B",
"O. c #F8D203",
"+. c #F8D40B",
"@. c #F7DF0C",
"#. c #F9DF0B",
"$. c #F8C613",
"%. c #F8CB14",
"&. c #F8C718",
"*. c #F8CD1A",
"=. c #F8DD12",
"-. c #F8D918",
";. c #F8D31A",
":. c #F8F30F",
">. c #F8E617",
",. c #F8EB17",
"<. c #F8E41C",
"1. c #F8F61C",
"2. c #F8C621",
"3. c #F8C822",
"4. c #FAD723",
"5. c #F8DF24",
"6. c #F8D92C",
"7. c #F8C13C",
"8. c #F8D03E",
"9. c #F9E323",
"0. c #F8EB22",
"q. c #F8E32A",
"w. c #F8E92C",
"e. c #F8F425",
"r. c #F8FC2C",
"t. c #F8E234",
"y. c #F8EB32",
"u. c #F8FA33",
"i. c #F8F53D",
"p. c #F8FC3D",
"a. c #F8F436",
"s. c #F7CB4D",
"d. c #F8E243",
"f. c #F8F741",
"g. c #F8FB43",
"h. c #F8F14F",
"j. c #F8F84D",
"k. c #F8EC53",
"l. c #F8FC55",
"z. c #F8FD5C",
"x. c #F8FF64",
"c. c #F7F56F",
"v. c #F8F66A",
"b. c #F8FC6C",
"n. c #F8EA72",
"m. c #EAF77E",
"M. c #F3FB73",
"N. c #F8FE70",
"B. c #F4F67D",
"V. c #F8F47B",
"C. c #F4F673",
"Z. c #F8DF82",
"A. c #F4F685",
"S. c #F6F68E",
"D. c #F5F692",
"F. c #F6F79B",
"G. c #F3F894",
"H. c #EAF798",
"J. c #EDF9AA",
"K. c #F5F6A4",
"L. c #F6F7AE",
"P. c #F2F8AA",
"I. c #F8E6BC",
"U. c #EDF9B8",
"Y. c #F7F7B2",
"T. c #F7F7BC",
"R. c #F8F2BF",
"E. c #F4F9BD",
"W. c #F8E2C4",
"Q. c #F8EFC5",
"!. c #F8F6C7",
"~. c #F7F7C9",
"^. c #F4F9CC",
"/. c #F0FAC6",
"(. c #F8F7D0",
"). c #F8F8D4",
"_. c #F5F9DB",
"`. c #F8F8DD",
"'. c #F7F9E2",
"]. c #F8F9E3",
"[. c #F8F6ED",
"{. c #F8F8EA",
"}. c #F8F8F4",
"|. c #F8F7FF",
" X c #F6FBFE",
".X c #F8F8FC",
"XX c #F4FCF2",
/* pixels */
"t $ o 9 r 8 o o X O 2 j D G N t 5 h D s 5 5 * . ",
"n v @ 4 a d c X X @ q m D Y T g a A E A f 5 & . ",
"G z w i A K j @ # i B K K } } P G W ] Y m 4 - & ",
"C f t N W ~ D u 0 V C K ! w.6.( ~ _ _ I z 5 4 4 ",
"R A k x ` >.Q V l D P / =.r.u.9.<.+.( P a < g z ",
"X.~ K I s.x.-.W G K ! q.b.M.z.g.b.k.{ R M b L I ",
"i.&._ <.L._.j.X.~ ( +.b.{.}.L.u.~.~.y.{ ! / ) ) ",
"u...| P.XX].l.,.@.5.V./.|.K.A.L.F.x.r.] X.9.] _ ",
"b.4.&.R.XX(.g.z.b.p./..X.XA.S..XD.j.v.3.-.g.8.7.",
"}.D.e.u.T.`.p.Y.).p.K.|.}.}..X}.}.}.{.v.1.g.!.[.",
"|.`.L.K.`.}.T.A.B.L.'.|..XG.F..X|.|.|.l.l.). X X",
".X.X|..X.X|..XD.V.|.|.|..XA.v.T.XX|.XXA.S.`..X.X",
"}..X.X.X.X}..X}.}..X.X}..X.XY.g.E. X}.|.K.g.^.XX",
".XY.b.M.^..X.X.X`.V.(._.m.`..X/.A.P.|.U.z.a.M.A.",
"|.G.:.#.n./.Y.[.^.u.U.Q.=.V.~.I.t.h.E.d.,.g.0.,.",
"}.H.0._ ;.g.a.T.).g./.W.' 9.w._ ( *.i.{ *.i.X._ ",
"C.z.p.y.e.x.!.J.h.$.W.{.y.@._ I K Q +.q.w.$.R I ",
"u.6. .t.<.k.^.c.O._ Z.K.y.} L z k S Q q.4.R N z ",
"i.^ S ( _ { a.*.( ) 9.w._ P z 5 1 p G ~ Q V i 5 ",
"%.R D _ W Y o.~ K I } X.I M i t - ; f P J i t i ",
"R R W Q P D H Z g k T U z i 1 > . & 5 z g 5 > > ",
"D E / A D M 6 4 5 5 N N 5 t , .   : t 6 t 5 & . ",
"D Z d s a q + c w 5 N V t : & & . - u i , * & & ",
"F n 5 6 y 7 O c y 6 N S t - % & . - t i , % & = "
};
