/* XPM */
static char *bomberman_white_right_1_24x24[] = {
/* columns rows colors chars-per-pixel */
"24 24 14 1 ",
"  c #000001",
". c #107830",
"X c #000058",
"o c #606060",
"O c #D03800",
"+ c #A08850",
"@ c #0000F8",
"# c #B80088",
"$ c #F838C0",
"% c #A098A0",
"& c gray69",
"* c #F8B890",
"= c gray91",
"- c #F8F8F8",
/* pixels */
"........................",
"......##................",
".....#$-#&&====&........",
".....#$o&========&......",
"......o&=======-==&.....",
".....o&============O....",
".....o&=========&O#.....",
".....o&======OOOO* .....",
".....o&=====O** ** .....",
".....o&=====O** ** .....",
"......o&====O** ** O....",
"......oo&===O** *OO.....",
".......ooo&&oOOOOoo.....",
".......#  ooooo##$......",
".......# X@X%%-#=$......",
"........ X@XX%%###......",
"........X      +@.$#....",
".........X@%%@@@-.$#....",
".......  #%%-@@%%-##....",
".....   ##%-    %###....",
"....    ##$      ##.....",
"....    ##-       ......",
"....    ###$     .......",
"......        .........."
};
