/* XPM */
static char *bomb_explode_ctr_24x24[] = {
/* columns rows colors chars-per-pixel */
"24 24 120 2 ",
"   c #8B0000",
".  c #940300",
"X  c #9E0A00",
"o  c #A40800",
"O  c #A51000",
"+  c #AD1600",
"@  c #B61700",
"#  c #BE1E00",
"$  c #B62000",
"%  c #BD2400",
"&  c #CD2B00",
"*  c #D52F00",
"=  c #CE3300",
"-  c #C73B00",
";  c #D73900",
":  c #E33D00",
">  c #E93F00",
",  c #CD4400",
"<  c #E74600",
"1  c #E74C00",
"2  c #F34E00",
"3  c #E65000",
"4  c #F45500",
"5  c #F85700",
"6  c #F35A00",
"7  c #FA5B00",
"8  c #F26000",
"9  c #FA6000",
"0  c #F26B00",
"q  c #FE6E00",
"w  c #F67400",
"e  c #FC7400",
"r  c #FC7A00",
"t  c #F87508",
"y  c #F78200",
"u  c #FA8400",
"i  c #FB8E00",
"p  c #FA9500",
"a  c #F39C00",
"s  c #FB9B01",
"d  c #FD9F08",
"f  c #F8A501",
"g  c #F4AB00",
"h  c #F9AC01",
"j  c #F8B002",
"k  c #F8BA02",
"l  c #F8A912",
"z  c #FAB617",
"x  c #F8BE37",
"c  c #F8BF3B",
"v  c #F8CE07",
"b  c #F8C209",
"n  c #F8CB0B",
"m  c #F8D40B",
"M  c #F8DC0E",
"N  c #FDC215",
"B  c #F7CF12",
"V  c #F8CD11",
"C  c #F8CF1F",
"Z  c #F9D214",
"A  c #F7DB13",
"S  c #F8D41C",
"D  c #FBE413",
"F  c #F8D020",
"G  c #F7DC23",
"H  c #F8DD27",
"J  c #F8DE2C",
"K  c #F8DF3C",
"L  c #F8E125",
"P  c #F7EE27",
"I  c #FBE929",
"U  c #F8F325",
"Y  c #F8F924",
"T  c #F8F529",
"R  c #F8FA2D",
"E  c #F8EA34",
"W  c #F8F434",
"Q  c #F8FA35",
"!  c #F8F53C",
"~  c #F8FB3A",
"^  c #F8C342",
"/  c #F8CD41",
"(  c #F8E542",
")  c #F8F647",
"_  c #F8FD42",
"`  c #F8FA4C",
"'  c #F8FF55",
"]  c #F8F55B",
"[  c #F8FD5B",
"{  c #F8F965",
"}  c #F8F16F",
"|  c #F8FD6D",
" . c #F8EB71",
".. c #F8FB71",
"X. c #F8F679",
"o. c #F8FC7B",
"O. c #F8F684",
"+. c #F8FA84",
"@. c #F8F88A",
"#. c #F8F797",
"$. c #F8FC92",
"%. c #F8F79C",
"&. c #F8F99D",
"*. c #F8F8A4",
"=. c #F8F8AB",
"-. c #F8F9B3",
";. c #F8FBBC",
":. c #F8FCC2",
">. c #F8F7C9",
",. c #F8F9CD",
"<. c #F8F6D2",
"1. c #F8F9D3",
"2. c #F8F9DD",
"3. c #F8F9E4",
"4. c #F8F6EC",
"5. c #F8F8ED",
"6. c #F8F6F2",
"7. c #F8F8F5",
"8. c #F8F7FF",
"9. c #F8F8FA",
/* pixels */
".   . $ > q h D o.7.8.9.7.8.;.Q b j h q : # . . ",
"o X + * 8 s v } ,.7.9.9.9.9.2.#.L M F s 6 * + o ",
", = ; 9 p Z { ;.5.7.7.7.9.7.8.8.@.` ~ A d 6 ; = ",
"a 0 4 s f x 5.+.{ 7.8.9.7.9.9.9.7.&.T Q Z p 6 2 ",
"D h i M G E O.$.=.7.8.9.9.9.7.9.8.5.=.;.o.Z p u ",
"..J B { [ ~ ) >.8.9.7.7.7.9.9.7.,.3.8.5.$.Q Z n ",
"5.o.) 3.O.` 3.9.9.7.7.9.9.9.8.7.] @.7.| Q W ~ ! ",
"8.1.;.8.1.;.8.8.9.9.9.9.7.7.7.7.=.>.7.;.=.*._ Q ",
"9.8.8.9.8.8.9.9.7.9.9.7.9.9.7.9.8.8.7.8.9.9.@...",
"7.9.7.7.9.9.7.7.9.7.7.9.9.7.7.9.9.7.9.9.9.9.7.7.",
"9.8.8.9.7.7.7.9.9.9.7.9.9.9.9.9.9.9.7.9.9.9.9.9.",
"9.,.;.7.9.9.9.9.7.9.9.7.7.7.9.7.7.9.9.7.7.9.9.9.",
"7.+.` 3.8.7.9.7.9.7.7.9.9.9.7.9.9.7.9.9.9.7.9.9.",
"8.5.1.6.8.8.8.8.7.9.9.9.7.9.7.9.7.9.9.7.8.8.8.8.",
";.;.2.9.2.=.-.2.9.9.9.7.7.9.9.7.7.9.9.8.3.-.-.-.",
"W Y ] 5.#.Y R -.8.9.7.9.9.7.9.9.9.7.9.7.&.T Q ~ ",
"t f B K / ~ Q :.9.9.9.7.9.9.9.9.9.8.5.$.L v ! _ ",
"e r i f n H S  .>.7.9.9.9.7.9.9.9.9.7.[ k y S L ",
"g w 7 f j h j M ..7.8.9.9.9.9.9.6.5.2.| l 4 p f ",
", 3 7 7 y k E Y ..8.8.7.7.7.9.9.o.` { ' G p e q ",
"# & 1 t z L L W [ @.2.8.9.9.1.*.&.| R I N u < : ",
"$ @ - a I E h F ! _ ;.8.7.8.=.Q ,.:.P k e < & $ ",
"X O = 6 f b h j / 1.7.9.9.8.-.W [ ( j r < % . . ",
"  O * 2 i k h g ^ 7.9.7.9.8.-.~ _ L f q : $ . . "
};
