/* XPM */
static char *bomb_explose_2_verti_up_24x24[] = {
/* columns rows colors chars-per-pixel */
"24 24 188 2 ",
"   c #7A090A",
".  c #7D1A0F",
"X  c #7A1D12",
"o  c #711912",
"O  c #6E2618",
"+  c #692A1B",
"@  c #772917",
"#  c #782F17",
"$  c #732A18",
"%  c #7B2313",
"&  c #65341F",
"*  c #7B381C",
"=  c #5D3823",
"-  c #653C22",
";  c #633621",
":  c #3E673D",
">  c #5B4629",
",  c #594D2C",
"<  c #5C4127",
"1  c #56512E",
"2  c #4E5633",
"3  c #4D5A34",
"4  c #535430",
"5  c #575932",
"6  c #635D2F",
"7  c #6B592B",
"8  c #6C572A",
"9  c #4A6037",
"0  c #46653A",
"q  c #496339",
"w  c #446B3D",
"e  c #4B6C3B",
"r  c #47703E",
"t  c #616030",
"y  c #347746",
"u  c #3C7442",
"i  c #357A47",
"p  c #397945",
"a  c #377E49",
"s  c #406F40",
"d  c #407040",
"f  c #840504",
"g  c #8D0202",
"h  c #880A06",
"j  c #960200",
"k  c #9D0201",
"l  c #970901",
"z  c #9B0B01",
"x  c #8C140A",
"c  c #85170D",
"v  c #9B1306",
"b  c #931207",
"n  c #801C13",
"m  c #A40100",
"M  c #AB0000",
"N  c #A50A01",
"B  c #AF0A00",
"V  c #B30000",
"C  c #B30F00",
"Z  c #AA1501",
"A  c #AD1A01",
"S  c #B41400",
"D  c #B41C00",
"F  c #BD1E00",
"G  c #9A240C",
"H  c #8B3D18",
"J  c #B62201",
"K  c #BC2300",
"L  c #BB2D03",
"P  c #B63709",
"I  c #A7360C",
"U  c #CD0C00",
"Y  c #CD1F00",
"T  c #C31200",
"R  c #D21900",
"E  c #C22400",
"W  c #CC2100",
"Q  c #C12800",
"!  c #CB2C00",
"~  c #D22500",
"^  c #DE2D00",
"/  c #D32C00",
"(  c #C13706",
")  c #D53400",
"_  c #D43C00",
"`  c #DF3C00",
"'  c #DC3500",
"]  c #EA3300",
"[  c #E43C00",
"{  c #EE3800",
"}  c #E33500",
"|  c #88471C",
" . c #9D4315",
".. c #DB4101",
"X. c #D34C00",
"o. c #E44200",
"O. c #ED4D00",
"+. c #E24900",
"@. c #F34D00",
"#. c #F75700",
"$. c #FC5200",
"%. c #FB5B00",
"&. c #D46300",
"*. c #DE7400",
"=. c #EE6C00",
"-. c #E56B00",
";. c #FB6200",
":. c #F26900",
">. c #FC6C00",
",. c #E47200",
"<. c #E27C00",
"1. c #F47300",
"2. c #FA7400",
"3. c #F77D00",
"4. c #FC7A00",
"5. c #FE7A0A",
"6. c #28814E",
"7. c #2A8A4F",
"8. c #358149",
"9. c #30884D",
"0. c #ED8400",
"q. c #FC8400",
"w. c #FB8C00",
"e. c #FE8C0A",
"r. c #F98806",
"t. c #FB9501",
"y. c #FF9800",
"u. c #FD9214",
"i. c #FAA300",
"p. c #F9AD00",
"a. c #F9AD0A",
"s. c #F8B201",
"d. c #F9BA0B",
"f. c #FBB808",
"g. c #FCA713",
"h. c #FAC101",
"j. c #F8C40C",
"k. c #F8CB0D",
"l. c #F8CA01",
"z. c #FBD20D",
"x. c #F8DB0E",
"c. c #F9C412",
"v. c #F9C812",
"b. c #F8DA13",
"n. c #F8D11C",
"m. c #F8D817",
"M. c #F8E71F",
"N. c #F8E411",
"B. c #F9CF21",
"V. c #F9E42C",
"C. c #F8EB2B",
"Z. c #F8F327",
"A. c #F8ED33",
"S. c #F8FC36",
"D. c #F8F53C",
"F. c #F8FB3B",
"G. c #F8BF40",
"H. c #F8E740",
"J. c #F8E64D",
"K. c #F8FA43",
"L. c #F8FF49",
"P. c #F8EC5F",
"I. c #F8FA59",
"U. c #F8EA6E",
"Y. c #F8FE64",
"T. c #F8FA6A",
"R. c #F8F776",
"E. c #F8F973",
"W. c #F8FC7B",
"Q. c #F8F07D",
"!. c #F8E575",
"~. c #F8FA81",
"^. c #F8F988",
"/. c #F8F797",
"(. c #F8FE90",
"). c #F8FF9E",
"_. c #F8F8A7",
"`. c #F8FFB7",
"'. c #F8FCBC",
"]. c #F8F8C6",
"[. c #F8FACA",
"{. c #F8FCD4",
"}. c #F8FADD",
"|. c #F8F8E7",
" X c #F8FAEA",
".X c #F8F8F6",
"XX c #F8F7FE",
"oX c #F8F8FC",
/* pixels */
"Q K ! @.w.f.p.V.A.s.x.W..XoX.X.XXX].F.e.} K K Q ",
"B N A ) =.q.2.g.b.z.P.]..X.XoXoX_.Y.D.f.:.[ ~ ~ ",
"  f j A ` $.#.w.n.I.{.oXoX.XoXoX^.F.K.v.q.O.P I ",
"0 + k J [ ;.i.b.T. XoXoX.X.XoXoXXX`.D.e.] L 6 s ",
"p & M F -.t.3.a.H./. XXX.XoX{.~.).Q.c.i.:... .| ",
"d < x Z ,.i.;.3.h.Z.(.}..XoX].I.C.b.d.s.w.O.( P ",
"d u 4 f ~ 4.y.p.d.D.S.E..XoX.X|.G.l.K.u.{ L 6 e ",
"d 9.:   U >.s.m.A.F.E.'..XoXoXXX!.x.n.5.] J # & ",
"s s > h _ 4.t.B.S.D.[.XX.XXX.X].T.b.i.>.[ K k j ",
"d ; m S <.p.;.q.k.S.'.XX.XXX[.K.j.s.p.4.[ K j g ",
"d O M E :.4.) ,.s.d.J.`.XX_.W.'.P.k.p.i.4.o.K A ",
"d > c A ' [ F *.l.d.N.Y.].^.^.}.R.b.s.p.q.O.) ! ",
"d p 3 h C ! F ,.z.D.K.F.F.{.{.K.k.p.s.4.[ L E E ",
"d 8.3 g m m z _ g.L.C.m.F.W.U.k.h.i.1.+.T m * 8 ",
"s p 0 $ $ o g R e.V.a.t.V.S.C.p.i.4.@./ v O : y ",
"d d s u i 2 f R 4.p.1.:.p.A.A.p.>.$.#.^ H u u u ",
"d s d a - % 3 # K X.0.y.4.d.c.2.` o.%.] | 6.y s ",
"d d u u - X 1 @ m M &.0.o.:.q.$.F K O.W G 7 e s ",
"d d d d p 3 h S J g Z E E +.%.#.Z l K l N L t d ",
"d d d d u s 4 b v 3 X V Q @.%._ m j z - 5 7 e d ",
"d d d d d u 8.> O , = X S ` ` B % X j 4 7.y u s ",
"d d d d d d d 8.4 j , 0 f S D g 3 4 h , i u s s ",
"d d d d d d d u w 4 0 u 2 x x 4 u w 4 0 u d s s ",
"d d d d d d d d d s s u u X c d u w d d s d d s "
};
