/* XPM */
static char *bomberman_item_bomb_24x24[] = {
/* columns rows colors chars-per-pixel */
"24 24 165 2 ",
"   c #030103",
".  c #02010A",
"X  c #0B0B0C",
"o  c #0B070C",
"O  c #010411",
"+  c #000419",
"@  c #0A0A1B",
"#  c #0C0613",
"$  c #081917",
"%  c #021A1C",
"&  c #0B1B1C",
"*  c #08141A",
"=  c #191717",
"-  c #23071D",
";  c #08201F",
":  c #000D2C",
">  c #000D27",
",  c #031425",
"<  c #00132C",
"1  c #061927",
"2  c #141C26",
"3  c #001631",
"4  c #021D3B",
"5  c #0D2525",
"6  c #0F2827",
"7  c #152322",
"8  c #12272B",
"9  c #1A252B",
"0  c #122B2B",
"q  c #19312F",
"w  c #00213F",
"e  c #0D243C",
"r  c #1D2B34",
"t  c #173231",
"y  c #1B3433",
"u  c #1E323B",
"i  c #143138",
"p  c #202A39",
"a  c #203836",
"s  c #223A3A",
"d  c #2B3837",
"f  c #533E3B",
"g  c #23403E",
"h  c #001F43",
"j  c #002045",
"k  c #00254C",
"l  c #012A4D",
"z  c #1E3744",
"x  c #022C51",
"c  c #022958",
"v  c #01335C",
"b  c #233C44",
"n  c #263D4B",
"m  c #263648",
"M  c #283F51",
"N  c #013561",
"B  c #043E6E",
"V  c #0B3C69",
"C  c #073D64",
"Z  c #223E60",
"A  c #284040",
"S  c #29454D",
"D  c #3A4B4A",
"F  c #3E584F",
"G  c #2A4354",
"H  c #2A475B",
"J  c #2D4C5D",
"K  c #244558",
"L  c #3D5656",
"P  c #3F595A",
"I  c #044173",
"U  c #00477C",
"Y  c #01497D",
"T  c #0F4B7F",
"R  c #284D60",
"E  c #244860",
"W  c #314F65",
"Q  c #2B5163",
"!  c #32556B",
"~  c #365C73",
"^  c #3A627B",
"/  c #3C767E",
"(  c #49514D",
")  c #475855",
"_  c #545B53",
"`  c #49615E",
"'  c #4C6564",
"]  c #5A6765",
"[  c #416173",
"{  c #686E6F",
"}  c #6C7F7C",
"|  c #850008",
" . c #DB1803",
".. c #A64113",
"X. c #FF6606",
"o. c #5D8964",
"O. c #658079",
"+. c #70857A",
"@. c #A28A3B",
"#. c #AC9231",
"$. c #DA9F13",
"%. c #ED9B0A",
"&. c #004E86",
"*. c #004F88",
"=. c #00528C",
"-. c #005996",
";. c #005E9D",
":. c #005691",
">. c #116595",
",. c #266380",
"<. c #3F6B87",
"1. c #386685",
"2. c #005CAB",
"3. c #0059A5",
"4. c #0061A1",
"5. c #0068AD",
"6. c #0F6CA0",
"7. c #006CB3",
"8. c #0B6EB2",
"9. c #0064B2",
"0. c #0D71B6",
"q. c #0070B8",
"w. c #3F74A3",
"e. c #4F758D",
"r. c #426E94",
"t. c #427295",
"y. c #45769D",
"u. c #457EB0",
"i. c #4678A9",
"p. c #7E8E84",
"a. c #7B9383",
"s. c #4D80A6",
"d. c #548BB1",
"f. c #5990BC",
"g. c #4784B5",
"h. c #7792AE",
"j. c #6391B9",
"k. c #1B83CC",
"l. c #5F9BCA",
"z. c #5997C5",
"x. c #639FD0",
"c. c #78B7DB",
"v. c #7DC2E2",
"b. c #949F9D",
"n. c #839989",
"m. c #8BA594",
"M. c #A2AEAD",
"N. c #B1BAB6",
"B. c #B8C1BD",
"V. c #8DBEDE",
"C. c #B1C7D8",
"Z. c #84C9E6",
"A. c #85C9E6",
"S. c #9ACEEF",
"D. c #B6D0E7",
"F. c #B8D6EF",
"G. c #B9D6F0",
"H. c #B2E5F3",
"J. c #C4D0C6",
"K. c #E4DFE4",
"L. c #C8EAF7",
"P. c #D2F2F7",
"I. c #E7E1E6",
"U. c #E3ECF5",
"Y. c #FFFFFE",
/* pixels */
"4.4.4.4.4.4.4.4.4.;.0.k.k.8.;.3.4.4.2.#.$.>.2.4.",
"4.;.4.;.4.7.q.Y l l v V V v k j =.3.c ..X.@./ 4.",
"4.4.4.4.-.=.:.w   . . .     X = C Y 2 |  .%.o.4.",
"4.4.4.q.N . + + % r n p 5 6 ( n.m 1 a.f - ,.6.3.",
"4.4.-.N e 9 1 { b.[ H b 5 +.M.] ( _ _ 7 : 3.9.4.",
"4.7.&.. r y.1.C.U.e.E z % N.K.O D +.@   3 ;.5.;.",
"4.7.=.. m z.g.z.j.^ ~ R , N.K.@   2 D = : 3.7.4.",
"4.U x Z h.G.D.V.l.i.t.R % n.J.] d r ' a * l &.;.",
";.4 # u.L.Y.Y.P.A.x.y.Q t F a.m.O.P L g $   v ;.",
";.h @ w.F.Y.Y.L.v.l.t.~ ~ A y ' ' ) A t $ . N 4.",
"8.x @ i.S.L.L.H.A.l.t.~ <.K 8 u s s t 0 & . I 0.",
"k.N # w.c.v.v.A.Z.f.r.~ ~ Q b 6 ; 5 6 0 & . T k.",
"k.C o W d.x.l.x.f.<.^ ~ H G m 0 5 6 6 0 & . T k.",
"8.c . n <.y.y.y.t.^ ! H M G n y q t 6 0 & . B 8.",
";.k . p J ! ! ! ! ~ H n n S b s s u 0 0 &   v ;.",
"3.k   a S G G G G G G S s u s s s y 0 0 &   v 4.",
"4.&.x 1 9 A s b s b b b a a a s y 0 0 * 1 v =.4.",
"4.q.-.+ X g a a a y a a a a s y 0 0 6   > 4.7.4.",
"4.5.=.+ X y s s a s s s s s y 0 0 0 0   > -.5.4.",
"4.4.-.I 3   X 7 y t t t y y t 0 *   o e Y 4.4.4.",
"4.4.4.q.I , , , & & & & & & & ; 1 < , Y q.4.4.4.",
"4.4.4.4.-.-.4.l   .   .   .     v 4.-.;.4.4.4.4.",
"4.4.4.4.4.5.5.&.v N V &.T B v N =.7.5.4.;.4.4.;.",
"4.4.4.4.4.4.4.4.4.;.0.k.k.8.-.4.4.4.;.4.4.4.4.4."
};
