/* XPM */
static char *display_white_icon_24x24[] = {
/* columns rows colors chars-per-pixel */
"24 24 160 2 ",
"   c #010102",
".  c #0D0302",
"X  c #000509",
"o  c #00080A",
"O  c #070D03",
"+  c #1B0C04",
"@  c #120A08",
"#  c #061106",
"$  c #131300",
"%  c #18180A",
"&  c #000A10",
"*  c #000712",
"=  c #00131B",
"-  c #041B18",
";  c #2D1B00",
":  c #291B1C",
">  c #002A00",
",  c #023305",
"<  c #002413",
"1  c #153718",
"2  c #3A2E00",
"3  c #2B201D",
"4  c #001422",
"5  c #011A23",
"6  c #241925",
"7  c #08272F",
"8  c #002431",
"9  c #02303C",
"0  c #212121",
"q  c #2C232E",
"w  c #392B26",
"e  c #263530",
"r  c gray23",
"t  c #403000",
"y  c #533400",
"u  c #44302D",
"i  c #493733",
"p  c #074B15",
"a  c #1D5B33",
"s  c #107830",
"d  c #187D37",
"f  c #1A7E39",
"g  c #664D00",
"h  c #6A4D00",
"j  c #784F00",
"k  c #59433E",
"l  c #454A3B",
"z  c #003342",
"x  c #313C45",
"c  c #263D47",
"v  c #014549",
"b  c #10575A",
"n  c #034758",
"m  c #05586D",
"M  c #464245",
"N  c #4B4A4B",
"B  c #49434D",
"V  c #504C4F",
"C  c #544F47",
"Z  c #504E50",
"A  c #5D5451",
"S  c #695C5A",
"D  c #6B605D",
"F  c #71605C",
"G  c #6B6462",
"H  c #68636B",
"J  c #6F7077",
"K  c #7B7879",
"L  c #893000",
"P  c #933500",
"I  c #A34200",
"U  c #B74600",
"Y  c #B27E00",
"T  c #C24A00",
"R  c #D64E00",
"E  c #CD5600",
"W  c #E25D00",
"Q  c #DF6505",
"!  c #E56300",
"~  c #E36109",
"^  c #EB7705",
"/  c #F27500",
"(  c #F07900",
")  c #E16612",
"_  c #DD7432",
"`  c #E2772E",
"'  c #E56D32",
"]  c #EC7C33",
"[  c #E77937",
"{  c #1F803D",
"}  c #278544",
"|  c #AB8600",
" . c #D09C00",
".. c #D39200",
"X. c #F88700",
"o. c #F98A00",
"O. c #F58A08",
"+. c #EFAD00",
"@. c #EDA200",
"#. c #FBAD00",
"$. c #EFB000",
"%. c #FFBB00",
"&. c #DF8B3F",
"*. c #F48332",
"=. c #EE9031",
"-. c #D38E54",
";. c #E6894E",
":. c #E79147",
">. c #E29367",
",. c #ED9C66",
"<. c #F69F76",
"1. c #F5A167",
"2. c #FAA668",
"3. c #166E84",
"4. c #17738A",
"5. c #187A92",
"6. c #777980",
"7. c #847982",
"8. c #1E98B6",
"9. c #1F9BBB",
"0. c #209FBF",
"q. c #21A7C8",
"w. c #26BCE2",
"e. c #28C5EC",
"r. c #29CFF8",
"t. c #93928F",
"y. c #8C8988",
"u. c #ADAAA8",
"i. c #AFAFB3",
"p. c #AEB3B8",
"a. c #B8B7B8",
"s. c #CFB09B",
"d. c #E4B597",
"f. c #D5B5A1",
"g. c #CCC4BD",
"h. c #DCC5B7",
"j. c #F4D0BC",
"k. c #BCBFC3",
"l. c #AAC0D0",
"z. c #B5C4D3",
"x. c #C8C8C9",
"c. c #D0C9C6",
"v. c #CACED2",
"b. c #D6D5D4",
"n. c #D8DBDD",
"m. c #DBD7D4",
"M. c #EFD7C7",
"N. c #E5D6CD",
"B. c #F4DFD2",
"V. c #E9E3DE",
"C. c #FAE1D1",
"Z. c #D2DBE2",
"A. c #DFE8EF",
"S. c #DDE6ED",
"D. c #D7EAF8",
"F. c #ECE5E0",
"G. c #E4E5E6",
"H. c #F0F0EF",
"J. c #E2ECF3",
"K. c #EBEEF0",
/* pixels */
"s s s s s s s s s s s s s s s s s s s s s s s s ",
"s s s s s s s s s s s s s s s s s s s s s s s s ",
"s s s s s s s s s s s s s s s s s s s s s s s s ",
"s s s s s s s s s #   X X   < d s s s s s s s s ",
"s s s s s s } a , C S S A S l > p f s s s s s s ",
"s s s s s s % 6 B x.G.Z.n.K.i.q 6 1 f s s s s s ",
"s s s s v O t.v.Z.S.A.A.A.J.Z.k.k.K   s s s s s ",
"s s s b x 7.S.j.<.2.,.>.>.1.,.>.h.z.H e s s s s ",
"s s s o S H.N.:.R U T ! ! T U W -.c.G.i * s s s ",
"s s s   J B._ O.Y + j #.@.y ; ..^ ;.V.N 4 s s s ",
"s s s X K C.Q X.|   g %.+.2 $  ./ ] F.N 4 s s s ",
"s s s X J M.) o.|   h %.+.t $  .( ] F.V 4 s s s ",
"s s s o H h.Q o.|   g %.+.2 $  .( ] F.V = s s s ",
"s s s   D V.d.=.E L U ( ^ I P Q &.f.b.u = s s s ",
"s s s { N i.D.d.' *.] _ ` ] *.` s.l.K e s s s s ",
"s s s s d 3 a.m.g.g.g.g.g.g.g.c.x.7.@ s s s s s ",
"s s s s s   r Z M M M M M M M M N 0   s s s s s ",
"s s s s d 0     = = = = = = = =     r } s s s s ",
"s s s - A y.. n q.8.8.8.8.8.9.0.8 w b.A 5 f s s ",
"s s s   F u.@ m r.w.w.w.w.w.e.e.z w b.k & f s s ",
"s s f   i D . 9 5.3.3.3.3.3.4.4.5 + G : 5 f s s ",
"s s f -   O                         .   7 f s s ",
"s s s s s s s s dss s s s s s s s s s s s s s s ",
"s s s s s s s s s s s s s s s s s s s s s s s s "
};
