/* XPM */
static char *display_white_icon[] = {
/* columns rows colors chars-per-pixel */
"24 24 180 2 ",
"   c #020301",
".  c #040A02",
"X  c #0C0A04",
"o  c #130C04",
"O  c #1D0B05",
"+  c #1B0C0A",
"@  c #140705",
"#  c #04140D",
"$  c #151000",
"%  c #090E10",
"&  c #031B18",
"*  c #041C13",
"=  c #1A1814",
"-  c #260C03",
";  c #210F0C",
":  c #221619",
">  c #351E17",
",  c #0D2200",
"<  c #142500",
"1  c #0A2616",
"2  c #032216",
"3  c #162318",
"4  c #09351F",
"5  c #221D22",
"6  c #0A2524",
"7  c #132C2A",
"8  c #162227",
"9  c #093622",
"0  c #093A26",
"q  c #0A3C2C",
"w  c #053626",
"e  c #163A34",
"r  c #1D3C37",
"t  c #222A32",
"y  c #2B302B",
"u  c #623F00",
"i  c #42322F",
"p  c #09471D",
"a  c #09481B",
"s  c #044E11",
"d  c #036D18",
"f  c #0A4B23",
"g  c #0A4427",
"h  c #094B37",
"j  c #0A4735",
"k  c #0A5B32",
"l  c #0D503D",
"z  c #0A5732",
"x  c #045B24",
"c  c #354230",
"v  c #0A632E",
"b  c #047120",
"n  c #0C633D",
"m  c #0B6836",
"M  c #0F7531",
"N  c #0C7239",
"B  c #0C7D3C",
"V  c #107630",
"C  c #107830",
"Z  c #117A3C",
"A  c #10703E",
"S  c #4D4700",
"D  c #4D4A00",
"F  c #554700",
"G  c #604000",
"H  c #473544",
"J  c #0D5A4B",
"K  c #2B4643",
"L  c #0D6544",
"P  c #0D6A43",
"I  c #0D6F4F",
"U  c #0F7342",
"Y  c #0F7F44",
"T  c #117D42",
"R  c #117549",
"E  c #107B4C",
"W  c #127644",
"Q  c #0D6D50",
"!  c #147A59",
"~  c #13795A",
"^  c #4F4A49",
"/  c #584847",
"(  c #5A5559",
")  c #5A5556",
"_  c #604D4A",
"`  c #61605E",
"'  c #504B66",
"]  c #5A5167",
"[  c #615761",
"{  c #6A6668",
"}  c #776A67",
"|  c #882D00",
" . c #A53C00",
".. c #A03700",
"X. c #B94200",
"o. c #9E7A00",
"O. c #A66F00",
"+. c #A57B00",
"@. c #AD7800",
"#. c #CC5C00",
"$. c #D05C00",
"%. c #CC6000",
"&. c #E06F0F",
"*. c #FB6E04",
"=. c #E5760A",
"-. c #FC7202",
";. c #F67506",
":. c #F87A16",
">. c #E5781A",
",. c #F37C35",
"<. c #F07332",
"1. c #E87B39",
"2. c #82716D",
"3. c #857D7C",
"4. c #DD7D4A",
"5. c #0E833E",
"6. c #0F8942",
"7. c #108342",
"8. c #A58000",
"9. c #E88900",
"0. c #F78200",
"q. c #EB9300",
"w. c #FFBF00",
"e. c #EB8039",
"r. c #F38137",
"t. c #FFCE00",
"y. c #FFD600",
"u. c #88847E",
"i. c #FD8B49",
"p. c #FA9248",
"a. c #E7905D",
"s. c #E7884B",
"d. c #E89C65",
"f. c #D8A475",
"g. c #E9A17A",
"h. c #F0AF74",
"j. c #958A88",
"k. c #929095",
"l. c #8B8682",
"z. c #A2918E",
"x. c #A39999",
"c. c #A2A09E",
"v. c #8B9AAD",
"b. c #94A1B6",
"n. c #A9A4A7",
"m. c #ADAFB4",
"M. c #B2B1B5",
"N. c #B3B4B9",
"B. c #B7B7BB",
"V. c #E4A482",
"C. c #F2AE87",
"Z. c #FDB38A",
"A. c #EFBE92",
"S. c #FBB791",
"D. c #DABDAC",
"F. c #CEBBB4",
"G. c #D5BEB0",
"H. c #FFC29F",
"J. c #DDC1AE",
"K. c #CEC6BF",
"L. c #FFC8A8",
"P. c #ADB9C6",
"I. c #BCBBC4",
"U. c #C2BEC2",
"Y. c #B8C1D3",
"T. c #DACBC5",
"R. c #D4D8DA",
"E. c #CBC2C7",
"W. c #E4D5CD",
"Q. c #EADEDB",
"!. c #EEE4DB",
"~. c #F5E8DB",
"^. c #F3E4DD",
"/. c #CFDCE8",
"(. c #E5DCE1",
"). c #DFF2FD",
"_. c #EEE8E3",
"`. c #EDFFFF",
"'. c #E9F4FC",
"]. c #F9F4F3",
/* pixels */
"C C C C C C C C C C C C C C C C C C C C C C C C ",
"C C C C C C C C 5.N k k k k k V 5.6.C C C C C C ",
"C C C C C C M N B s 3 3 3 3 3 a d b T N C C C C ",
"C C C C C B C 2   y u.j.3.j.u.c     x Y C C C C ",
"C C C C C m , i ] b.'.`.'.`.).C.' H < x Z C C C ",
"C C C C z 9 / U.Q.Q.~.!.Q.!.~.T.U.U._ 8 P C C C ",
"C C C C 7 ( Y.].S.i.p.s.4.s.p.i.C.R.P.[ e E C C ",
"C C C a 8 x.].A.>.X...#.;.$...X.&.f._.n.; L C C ",
"C C C f t N.L.:.9.F O O.t.O.- u 9.:.H.B.: P C C ",
"C C C f t m.S.*.q.S . o.y.+.. S q.-.C.M.5 P C C ",
"C C C f t n.C.*.q.F . o.y.8.X S q.-.S.B.5 L C C ",
"C C C f 8 k.C.;.q.G o +.t.@.$ F q.;.S.N.: L C C ",
"C C C a = x.^.h.=. .| #.0.%.| X.=.d.W.k.O L C C ",
"C C C M e } /._.d.<.e.1.1.e.,.1.a.E.N.` 7 W C C ",
"C C C C ! 7 { R.W.J.J.G.F.J.J.J.T.N./ 6 ~ N C C ",
"C C C C T 0 + [ { ( ( ) ) ( ( ) { ^ @ 6 R C C C ",
"C C C C ! j @ X 1 0 9 4 4 4 g g 1   + K ! C C C ",
"C C C A r } / # P Z Z Z Z Z Z C P # } x.K U C C ",
"C C C L - z.} 6 E C C C V V C C Z 9 j.F.> n C C ",
"C C C v ; } _ # R Z Z Z Z Z Z T R & / 2.O m C C ",
"C C C f % ; +   * q q 0 q q 0 0 &   o O   P C C ",
"C C C N J j j l j q q q q q q q j l h j l C C C ",
"C C C C C Z C C C Z C Z Z C C Z C Z C Z C C C C ",
"C C C C C C C C C C C C C C C C C C C C C C C C "
};
