/* XPM */
static char *display_bomb[] = {
/* columns rows colors chars-per-pixel */
"24 24 218 2 ",
"   c black",
".  c #010000",
"X  c #000100",
"o  c #000001",
"O  c #010200",
"+  c #010300",
"@  c #020300",
"#  c #000206",
"$  c #030800",
"%  c #000A00",
"&  c #000B00",
"*  c #040E00",
"=  c #050F00",
"-  c #00040B",
";  c #041100",
":  c #061000",
">  c #061300",
",  c #001400",
"<  c #021900",
"1  c #091A00",
"2  c #091B00",
"3  c #0B1A00",
"4  c #091D00",
"5  c #0A1E00",
"6  c #0A1F00",
"7  c #131F0C",
"8  c #000011",
"9  c #030311",
"0  c #000013",
"q  c #000510",
"w  c #020115",
"e  c #000016",
"r  c #0D0610",
"t  c #040911",
"y  c #00021E",
"u  c #1B1617",
"i  c #16111D",
"p  c #181619",
"a  c #1D1D1C",
"s  c #0B2201",
"d  c #0C2101",
"f  c #0C2005",
"g  c #0D2204",
"h  c #0C2902",
"j  c #0D2A03",
"k  c #0F3408",
"l  c #0F3908",
"z  c #000C24",
"x  c #00062E",
"c  c #030F28",
"v  c #000E2A",
"b  c #000F2B",
"n  c #00102F",
"m  c #000831",
"M  c #000C36",
"N  c #000538",
"B  c #030F38",
"V  c #011131",
"C  c #001133",
"Z  c #001235",
"A  c #00143F",
"S  c #1B2334",
"D  c gray14",
"F  c #2A232B",
"G  c #28202C",
"H  c #2C252F",
"J  c #332D36",
"K  c #552C00",
"L  c #403A00",
"P  c #513B00",
"I  c #642200",
"U  c #6D2600",
"Y  c #632E00",
"T  c #11490F",
"R  c #114D11",
"E  c #0F5013",
"W  c #125616",
"Q  c #1C501B",
"!  c #135818",
"~  c #125C1A",
"^  c #135E1B",
"/  c #125F1B",
"(  c #375001",
")  c #305505",
"_  c #12611D",
"`  c #12641F",
"'  c #137516",
"]  c #324727",
"[  c #1A6F20",
"{  c #0F7022",
"}  c #117322",
"|  c #117426",
" . c #117129",
".. c #11722A",
"X. c #11732B",
"o. c #117428",
"O. c #11742C",
"+. c #11752D",
"@. c #11762C",
"#. c #11762D",
"$. c #11772D",
"%. c #11762E",
"&. c #11772E",
"*. c #10772F",
"=. c #11782E",
"-. c #10782F",
";. c #107830",
":. c #4A463F",
">. c #000F41",
",. c #00174C",
"<. c #00154F",
"1. c #000C5D",
"2. c #001051",
"3. c #001557",
"4. c #001853",
"5. c #001C58",
"6. c #031E58",
"7. c #001C5B",
"8. c #001E5A",
"9. c #00185E",
"0. c #001C5C",
"q. c #001E5C",
"w. c #001F5C",
"e. c #001E5D",
"r. c #001F5F",
"t. c #0D2250",
"y. c #0A275F",
"u. c #162B5B",
"i. c #000F63",
"p. c #001465",
"a. c #001A60",
"s. c #001F60",
"d. c #001D66",
"f. c #00176B",
"g. c #002060",
"h. c #002061",
"j. c #002062",
"k. c #002162",
"l. c #042361",
"z. c #002164",
"x. c #002264",
"c. c #002265",
"v. c #002266",
"b. c #002267",
"n. c #092761",
"m. c #0C2861",
"M. c #002269",
"N. c #00246D",
"B. c #00256D",
"V. c #1A3366",
"C. c #1F396F",
"Z. c #002570",
"A. c #002670",
"S. c #002671",
"D. c #002771",
"F. c #002175",
"G. c #002576",
"H. c #002975",
"J. c #002A74",
"K. c #3F4757",
"L. c #2C4177",
"P. c #464446",
"I. c #434B59",
"U. c #5F5F5F",
"Y. c #65625A",
"T. c #515864",
"R. c #575F72",
"E. c #686868",
"W. c #6D6E6E",
"Q. c #7E796F",
"!. c #6C6F7A",
"~. c #7C7971",
"^. c gray47",
"/. c #9F0000",
"(. c #930A00",
"). c #801800",
"_. c #6DAF69",
"`. c #002C80",
"'. c #073787",
"]. c #093381",
"[. c #193D84",
"{. c #003690",
"}. c #003693",
"|. c #003496",
" X c #003B97",
".X c #003B9A",
"XX c #0040A3",
"oX c #0143A5",
"OX c #0848A1",
"+X c #0044A8",
"@X c #0053BD",
"#X c #0750BD",
"$X c #0955BE",
"%X c #045FCB",
"&X c #0D60C6",
"*X c #1165C8",
"=X c #0667D3",
"-X c #186ED0",
";X c #2066CB",
":X c #3185DE",
">X c #2387E7",
",X c #278BEA",
"<X c #3B9AF0",
"1X c #808593",
"2X c #9B9B9B",
"3X c #87B284",
"4X c #A9BA9F",
"5X c #9A9DA3",
"6X c #B0ACA8",
"7X c #B6AABC",
"8X c #BFBAB7",
"9X c #98A4C3",
"0X c #8BB2E2",
"qX c #B3C9E4",
"wX c #A8D3F3",
"eX c #C4C2C4",
"rX c gray87",
"tX c #EDE7DD",
/* pixels */
";.;.;.;.;.;.;.;.;.;.;.;.;.;.;.;.;.;.;.;.;.;.;.;.",
";.;.;.;.;.;.;.;.;.;.;.;.;.;.;.;.;.;.;.;.;.;.;.;.",
";.;.;.;.;.;.;.;.;.;.;.;.;.;.;.;.&.} Y /.P ;.;.;.",
";.;.;.;.;.;.;.;.;.-.-.-.-.-.-.-.$.{ L U ( | ;.;.",
";.;.;.;.;.;.;.;.;.;.;.;.;.;.;.;.;.;.;.;.;.;.;.;.",
";.;.;.;.;.;.;.$.+.d d 4 , & % < ] 4X_.@.K ).;.;.",
";.;.;.;.;.;.;.-.k 8 0 w i F H r G 7X3X;.I (.;.;.",
";.;.;.;.;.$.;.3 9 ,.2.u.!.8XeXP.  p Q =.[ ) ;.;.",
";.;.;.-.-.O.h m i.`.f.C.5XtXrXW.D a 7 W o.' ;.;.",
";.;.;.-.;.g y '.#XoXF.V.1X6X2X^.U.E.J   E ;.;.;.",
";.;.;...s B [.9X0X-X+X].L.R.~.Q.Y.:.u   ; 6 ;.;.",
";.;.;.!   1.;XqXwX,X%X|.p.t.I.T.K.S t       ;.;.",
";.;.;.^ . 3.$X:X<X>X&X}.M.6.y.m.n.l.V       ;.;.",
";.;.;._ O >. X@X=X*XOXH.x.0.a.9.d.G.A       ;.;.",
";.;.;.` + x B.{.XX.XJ.5.r.g.g.h.k.k.C       ;.;.",
";.;.;.~   N S.S.D.A.z.q.r.g.g.Z.w.v q       ;.;.",
";.;.;. .5 c <.7.s.e.j.c.c.b.z.8.Z       : 1 ;.;.",
";.;.;.;.;.f e 4.A.c.v.v.v.N.c.b # o     W *.;.;.",
";.;.;.-.=.X.j z M n n n n C n -     = R ;.-.;.;.",
";.;.;.;.;.$.-.2 @               O $ T -.-.;.;.;.",
";.;.;.;.;.-.;.%.l               * / ;.-.;.;.;.;.",
";.;.;.;.;.;.;.=./ X             > #.=.;.;.;.;.;.",
";.;.;.;.;.;.;.;.;.;.;.;.;.;.;.;.;.;.;.;.;.;.;.;.",
";.;.;.;.;.;.;.;.;.;.;.;.;.;.;.;.;.;.;.;.;.;.;.;."
};
