/* XPM */
static char *ennemy_left_l_24x24[] = {
/* columns rows colors chars-per-pixel */
"24 24 7 1 ",
"  c #292829",
". c #107830",
"X c #F70000",
"o c #0081A4",
"O c #00E3FF",
"+ c #ADAAAD",
"@ c #FFFBFF",
/* pixels */
"...... XXXX ............",
"..... X@@XXX ...........",
"..... X@@XX     ........",
"..... XXXX OO@@o .......",
"..... X   OOO@@Oo  .....",
"...... OO OOOOOOo O ....",
"......     OOOOOo O ....",
"...... XXXX OOOoo O ....",
"..... X@@XXX ooo oO ....",
"..... X@@XXX    oOO ....",
"..... XXXXXX OOOOOO ....",
"..... XXXXXX    OOO ....",
"...... XXXX o@@o o@ ....",
"......      O@@Oo O ....",
"...... O  +  oOOO O ....",
"...... O +@+   O  O ....",
"...... O @@+ +@  oO ....",
".....  @ @@@ @+ oo@ ....",
"....     +@ ++      ....",
"....          ooooo ....",
"....  @OOo oO ooooO ....",
".... @@OOOOOO       ....",
".... @@oooooo       ....",
".... @ooooooO      ....."
};
