/* XPM */
static char *ennemy_up_l_24x24[] = {
/* columns rows colors chars-per-pixel */
"24 24 7 1 ",
"  c #292829",
". c #107830",
"X c #F70000",
"o c #0081A4",
"O c #00E3FF",
"+ c #ADAAAD",
"@ c #FFFBFF",
/* pixels */
"..                    ..",
". X@@X OO      OO X@@X .",
" XX@@XX  OOO@@O  XX@@XX ",
" XXXXXX OOOO@@OO XXXXXX ",
" XXXXXX OOOOOOOO XXXXXX ",
" XXXXXX oOOOOOOo XXXXXX ",
". XXXX   oOOOOo   XXXX .",
".     OOo  oo  oOO     .",
" O@@o OOOOo  oOOOO o@@O ",
" @OOO OOOOOOOOOOOO OOO@ ",
" OOOO @oooooooooo@ OOOO ",
".     OooooooooooO     .",
".. ++ OooooooooooO ++ ..",
"...   OooooooooooO   ...",
"..... OooooooooooO .....",
"..... OooooooooooO .....",
"..... @oooooooooo@ .....",
".....              .....",
"..... oooo    oooO .....",
"..... Oooo        ......",
"..... Oooo        ......",
"..... Oooo        ......",
"..... @OOO       .......",
"......         ........."
};
