/* XPM */
static char *ennemy_down_r_24x24[] = {
/* columns rows colors chars-per-pixel */
"24 24 8 1 ",
"  c #292829",
". c #107830",
"X c #F70000",
"o c #FFFB00",
"O c #0081A4",
"+ c #00E3FF",
"@ c #ADAAAD",
"# c #FFFBFF",
/* pixels */
"......            ......",
"..    ++ +##+++ ++    ..",
". X##X  ++##++++  X##X .",
" XX##XX +++O  O+ XX##XX ",
" XXXXXX +++  X + XXXXXX ",
" XXXXXX  +O oX   XXXXXX ",
" XXXXXX O   X  O XXXXXX ",
". XXXX +++O  O+++ XXXX .",
" @    ++++++++++++    @ ",
" ## # ++++++++++++ # ## ",
" ##   #OOOOOOOOOO#   ## ",
" @@ . +OO X  X OO+ . @@ ",
".  .. +OO      OO+ ..  .",
"..... +OO      OO+ .....",
"..... +OO#++++#OO+ .....",
"..... #OOOOOOOOOO# .....",
".....              .....",
"..... ###+    OOOO .....",
"......        OOO+ .....",
"......        ++++ .....",
"......        +++# .....",
".......       +### .....",
".........         ......",
"........................"
};
