/* XPM */
static char *ennemy_up_0_24x24[] = {
/* columns rows colors chars-per-pixel */
"24 24 7 1 ",
"  c #292829",
". c #107830",
"X c #F70000",
"o c #0081A4",
"O c #00E3FF",
"+ c #ADAAAD",
"@ c #FFFBFF",
/* pixels */
"......            ......",
"..    OOO      OOO    ..",
". XXXX   OO@@OO   XXXX .",
" XX@@XX OOO@@OOO XX@@XX ",
" XX@@XX OOOOOOOO XX@@XX ",
" XXXXXX oOOOOOOo XXXXXX ",
" XXXXX   oOOOOo   XXXXX ",
".     OOo  oo  oOO     .",
" O@@O OOOOo  oOOOO O@@O ",
" @OOO OOOOOOOOOOOO OOO@ ",
" OOOO @oooooooooo@ OOOO ",
".     OooooooooooO     .",
".. @+ OooooooooooO +@ ..",
".. +@ OooooooooooO @+ ..",
"...   OooooooooooO   ...",
"..... OooooooooooO .....",
"..... @oooooooooo@ .....",
".....              .....",
"..... Oooo    oooO .....",
"..... Oooo    oooO .....",
"..... @OOO    OOO@ .....",
".....              .....",
"......            ......",
"........................"
};
