/* XPM */
static char *ennemy_right_0_24x24[] = {
/* columns rows colors chars-per-pixel */
"24 24 7 1 ",
"  c #292829",
". c #107830",
"X c #F70000",
"o c #0081A4",
"O c #00E3FF",
"+ c #ADAAAD",
"@ c #FFFBFF",
/* pixels */
".............    .......",
"............ XXXX ......",
"........     XXXXX .....",
"....... oO@@O @@XX .....",
".....  oOO@@ o   X .....",
".... O oOOOO o OO  .....",
".... O oOOOOO  OO ......",
".... O ooOOOO     ......",
".... Oo oooO XXXX ......",
".... OOo    XXXXXX .....",
".... OOOOOO XX@@XX .....",
".... OOOOOO XX@@XX .....",
".... @oo    XXXXXX .....",
".... Oo o@@o XXXX ......",
".... O oOO@O      ......",
".... O ooOOo +  o ......",
".... Oo     +++ o  .....",
".... @oo ++ +@+ O   ....",
"....     ++ +++     ....",
"....   Oo + ++      ....",
"....   OOO    @     ....",
"....   oooooo@@     ....",
".....  Ooooooo@    .....",
".......          ......."
};
