/* XPM */
static char *ennemy_dead_24x24[] = {
/* columns rows colors chars-per-pixel */
"24 24 186 2 ",
"   c #4E0000",
".  c #550000",
"X  c #560000",
"o  c #570000",
"O  c #510204",
"+  c #5A0000",
"@  c #5B0000",
"#  c #5D0000",
"$  c #5C0600",
"%  c #5B0B06",
"&  c #5F180D",
"*  c #5E1114",
"=  c #610000",
"-  c #630000",
";  c #670A01",
":  c #760100",
">  c #731107",
",  c #731409",
"<  c #711D0F",
"1  c #621D10",
"2  c #631B15",
"3  c #67101B",
"4  c #681519",
"5  c #6C1A18",
"6  c #6E1A19",
"7  c #5E321B",
"8  c #5C371F",
"9  c #762403",
"0  c #682515",
"q  c #6B2A15",
"w  c #682418",
"e  c #61391E",
"r  c #5B3621",
"t  c #5D382C",
"y  c #5E3830",
"u  c #5E3932",
"i  c #5F3E34",
"p  c #5D3E36",
"a  c #762B2B",
"s  c #683725",
"d  c #6E3427",
"f  c #6E3A25",
"g  c #70312A",
"h  c #78322F",
"j  c #703A2C",
"k  c #7A2E30",
"l  c #107830",
"z  c #107830",
"x  c #117831",
"c  c #127831",
"v  c #137831",
"b  c #127931",
"n  c #137932",
"m  c #147932",
"M  c #157932",
"N  c #167A33",
"B  c #187B34",
"V  c #396A38",
"C  c #267333",
"Z  c #227735",
"A  c #2D7337",
"S  c #485F37",
"D  c #595937",
"F  c #644224",
"G  c #6B442A",
"H  c #67482D",
"J  c #634133",
"K  c #6F4C35",
"L  c #466137",
"P  c #4A6434",
"I  c #506638",
"U  c #821D00",
"Y  c #A31200",
"T  c #AC1200",
"R  c #AE1200",
"E  c #AB1600",
"W  c #AC1400",
"Q  c #AA1900",
"!  c #BA1000",
"~  c #82220F",
"^  c #9A2008",
"/  c #803600",
"(  c #853B00",
")  c #883A00",
"_  c #C21B00",
"`  c #C51E00",
"'  c #E11F00",
"]  c #C82000",
"[  c #E52900",
"{  c #E92D00",
"}  c #E63000",
"|  c #E13600",
" . c #E43800",
".. c #EE3900",
"X. c #F33F00",
"o. c #8C4200",
"O. c #8E4400",
"+. c #944F00",
"@. c #9D5900",
"#. c #B64F00",
"$. c #A55D00",
"%. c #B05600",
"&. c #BF5700",
"*. c #B35E00",
"=. c #B95900",
"-. c #A26100",
";. c #A06A00",
":. c #AC6A00",
">. c #B96200",
",. c #AC7700",
"<. c #B17300",
"1. c #B6601E",
"2. c #975E36",
"3. c #C35F00",
"4. c #C65D00",
"5. c #F14206",
"6. c #F34208",
"7. c #CE6803",
"8. c #D47917",
"9. c #EE7D00",
"0. c #88474B",
"q. c #945D61",
"w. c #9A5571",
"e. c #966769",
"r. c #AC6C76",
"t. c #A97274",
"y. c #2A833F",
"u. c #B78300",
"i. c #BE9800",
"p. c #BF9B00",
"a. c #C19700",
"s. c #C99900",
"d. c #CC9F00",
"f. c #DD9500",
"g. c #EF8C00",
"h. c #FF8A00",
"j. c #CDA000",
"k. c #CCA100",
"l. c #CEAD00",
"z. c #D4B100",
"x. c #CAA811",
"c. c #FFBF00",
"v. c #FFBE0A",
"b. c #D4AD27",
"n. c #FFB821",
"m. c #FFC000",
"M. c #EEE100",
"N. c #FFE100",
"B. c #FFE500",
"V. c #F6EB00",
"C. c #FFF800",
"Z. c #FFFA00",
"A. c yellow",
"S. c #FFFB04",
"D. c #FFFF1A",
"F. c #EDDD21",
"G. c #BDAF74",
"H. c #EF815E",
"J. c #FFB750",
"K. c #CDA27F",
"L. c #FFFF48",
"P. c #FFFF4F",
"I. c #FDE866",
"U. c #EEF578",
"Y. c #A57A80",
"T. c #A67A82",
"R. c #A67A95",
"E. c #96B09B",
"W. c #A8A59C",
"Q. c #ADAAA4",
"!. c #A5B6B0",
"~. c #D7B39C",
"^. c #FDA98D",
"/. c #C6B1AF",
"(. c #F6BBA7",
"). c #BFDB80",
"_. c #97C0A8",
"`. c #9EC3AF",
"'. c #ACC4A1",
"]. c #B1CAB8",
"[. c #BDD8B3",
"{. c #ADD3C1",
"}. c #BBDAC6",
"|. c #BCD9C5",
" X c #BFDBC4",
".X c #BFDBC8",
/* pixels */
"l l ~ ` _ E D n l l l l l l l l n D E _ ` ~ l l ",
"z < ' ^. X6.Y V b l l l l l l b V Y 6. X^.' < z ",
"z , { H.(.5.W L n l l l l l l n L W 5.(.H.{ , z ",
"z > ..} [ X.R S n l l l l l l n S R X.[ } ..> z ",
"l A ^  .| ] f l l l l l l l l l l f ] |  .^ A l ",
"l B 7 + = s m l l l l l l l l l l m s = + 7 B l ",
"l K q.e.6 l l c n n n n n n n n c l l 6 e.q.K l ",
"l 5 `.{.a v b G q 2 0 w w 0 2 q G b v a {.`.5 l ",
"j Q.|.E.g z i s.z.-.V.'.'.V.-.z.s.i z g E.|.Q.j ",
"T..X}.0.C y.y j.o.A.A.U.U.A.A.o.j.y y.C 0.}..XT.",
"Y._.W.4 & H p d.O.A.N.$.$.N.A.O.d.p H & 4 W._.Y.",
"d k * ,.F.8.% l.) :.;.! ! ;.:.) l.% 8.F.,.* k d ",
"1 ].R.u.).[.%.p.A.f.( T T ( f.A.p.%.[.).u.R.].1 ",
"I t.!.2.M.P.*.i.A.A.Z.a.a.Z.A.A.i.*.P.M.2.!.t.I ",
"M P h 3 9 / ; x.S.C.A.A.A.A.C.S.x.; / 9 3 h P M ",
"l l z l x c r K.n.g.9.h.h.9.g.n.K.r c x l z l l ",
"l l l l l M u k.m.3.: Q Q : 3.m.k.u M l l l l l ",
"l l l l l M u k.c.7.O o o O 7.c.k.u M l l l l l ",
"l l l l l M t b.v.J.I.B.B.I.J.v.b.t M l l l l l ",
"l l l l l M F w.1.#.&.4.4.&.#.1.w.F M l l l l l ",
"l l l l l M J @.>.=.U     U =.>.@.J M l l l l l ",
"l l l l l M 8 ~.L.D.<.. . <.D.L.~.8 M l l l l l ",
"l l l l l N e r./.G.+.@ @ +.G./.r.e N l l l l l ",
"l l l l l x Z $ X X # - - # X X $ Z x l l l l l "
};
