/* XPM */
static char *ennemy_down_0_24x24[] = {
/* columns rows colors chars-per-pixel */
"24 24 7 1 ",
"  c #292829",
". c #107830",
"X c #F70000",
"o c #0081A4",
"O c #00E3FF",
"+ c #ADAAAD",
"@ c #FFFBFF",
/* pixels */
"......            ......",
"..... OO OO@@OO OO .....",
"..    O OOO@@OOO O    ..",
". XXXX  OOOOOOOO  XXXX .",
" XX@@XX OOo  oOO XX@@XX ",
" XX@@XX  O oo O  XX@@XX ",
" XXXXXX o  oo  o XXXXXX ",
" XXXXXX OOo  oOO XXXXXX ",
". XXXX OOOOOOOOOO XXXX .",
" +    OOOOOOOOOOOO    + ",
" @+ + @oooooooooo@ + +@ ",
" ++ + Ooo  XX  ooO + ++ ",
" ++   Ooo      ooO   ++ ",
".  .. Ooo      ooO ..  .",
"..... Ooo@OOOO@ooO .....",
"..... @oooooooooo@ .....",
".....              .....",
"..... Oooo    oooO .....",
"..... @OOO    OOO@ .....",
"..... @@@O    O@@@ .....",
".....              .....",
"......            ......",
"........................",
"........................"
};
