/* XPM */
static char *exit_1_24x24[] = {
/* columns rows colors chars-per-pixel */
"24 24 186 2 ",
"   c #30392E",
".  c #490C0E",
"X  c #570908",
"o  c #5D180B",
"O  c #650400",
"+  c #6B0300",
"@  c #680800",
"#  c #650F04",
"$  c #7B190F",
"%  c #6A1509",
"&  c #442B1B",
"*  c #5A331B",
"=  c #50321E",
"-  c #7D2A06",
";  c #632F1E",
":  c #7F2F16",
">  c #67371A",
",  c #422820",
"<  c #562A22",
"1  c #423220",
"2  c #443627",
"3  c #533F22",
"4  c #503F29",
"5  c #34462C",
"6  c #3F522E",
"7  c #315E31",
"8  c #1A6F3C",
"9  c #137632",
"0  c #197635",
"q  c #107830",
"w  c #1C7B34",
"e  c #1C753A",
"r  c #1D7938",
"t  c #276D33",
"y  c #226533",
"u  c #386333",
"i  c #217533",
"p  c #247D34",
"a  c #297F35",
"s  c #21793E",
"d  c #2D7434",
"f  c #357135",
"g  c #62401E",
"h  c #74501B",
"j  c #554F29",
"k  c #425B30",
"l  c #5C5D34",
"z  c #684223",
"x  c #635A2D",
"c  c #775827",
"v  c #4D6835",
"b  c #586834",
"n  c #487533",
"m  c #6D6A2F",
"M  c #7C652A",
"N  c #7C682B",
"B  c #7F6424",
"V  c #666932",
"C  c #757A36",
"Z  c #186A40",
"A  c #176C48",
"S  c #1E764B",
"D  c #237941",
"F  c #8F0000",
"G  c #870800",
"H  c #850600",
"J  c #831700",
"K  c #981B08",
"L  c #A70B02",
"P  c #BA0F01",
"I  c #832501",
"U  c #802E16",
"Y  c #BE2603",
"T  c #A13008",
"R  c #AB3404",
"E  c #B33005",
"W  c #82302A",
"Q  c #C52200",
"!  c #CB3C02",
"~  c #8E4F1A",
"^  c #9A5D1E",
"/  c #A55618",
"(  c #AA6819",
")  c #B3671A",
"_  c #925B20",
"`  c #8B692A",
"'  c #966824",
"]  c #887F2B",
"[  c #AC7923",
"{  c #CB520C",
"}  c #D35E0E",
"|  c #D15209",
" . c #C25F13",
".. c OrangeRed",
"X. c #FC4C00",
"o. c #F54700",
"O. c #E55A06",
"+. c #EB5C06",
"@. c #E95604",
"#. c #FF5500",
"$. c #D46412",
"%. c #CD7719",
"&. c #DB7A17",
"*. c #E66C0C",
"=. c #2F8337",
"-. c #3B8337",
";. c #368839",
":. c #5A963D",
">. c #468839",
",. c #65832D",
"<. c #739D37",
"1. c #7BA23F",
"2. c #3B8955",
"3. c #70A140",
"4. c #79A942",
"5. c #BA9C13",
"6. c #9C9822",
"7. c #878134",
"8. c #879E3B",
"9. c #B49F2D",
"0. c #AC9A33",
"q. c #87A93F",
"w. c #92AD3E",
"e. c #98A426",
"r. c #B1AD37",
"t. c #BABE3B",
"y. c #ACA737",
"u. c #D79F06",
"i. c #DF9300",
"p. c #ED9E00",
"a. c #FF9B00",
"s. c #D1A509",
"d. c #E7AD0F",
"f. c #FFAC00",
"g. c #F1AF03",
"h. c #F8B302",
"j. c #F7A61F",
"k. c #FFA414",
"l. c #CEA829",
"z. c #A8C436",
"x. c #B5C738",
"c. c #FFC000",
"v. c #F8C70D",
"b. c #F9C310",
"n. c #FFD212",
"m. c #CCC62C",
"M. c #CCD82C",
"N. c #DBD62F",
"B. c #CDCC3C",
"V. c #DAC236",
"C. c #CEDD3A",
"Z. c #FFC629",
"A. c #E6DF28",
"S. c #F1C631",
"D. c #F2D434",
"F. c #E7DA37",
"G. c #FFF82C",
"H. c #EBEE30",
"J. c #F7E037",
"K. c #FDE838",
"L. c #FEFC3F",
"P. c #F9F73E",
"I. c #8EAE44",
"U. c #86B243",
"Y. c #9DB540",
"T. c #ADC542",
"R. c #A9CC46",
"E. c #B3C943",
"W. c #B9DB46",
"Q. c #CDDB41",
"!. c #D5DE47",
"~. c #DCE340",
"^. c #CAE348",
"/. c #E2ED43",
"(. c #ECEF40",
"). c #E8F846",
"_. c #F5F640",
"`. c #F7F840",
"'. c #FDFD41",
"]. c #FFFF5D",
"[. c #ECDF79",
"{. c #E9FA64",
"}. c #F1EF7A",
"|. c #FFFF98",
" X c #EAEEF3",
".X c #F5E6E9",
/* pixels */
"q q q q 9 -.P.:.=.P.<.9 q 9 4.`.>.q q q q q q q ",
"q q 9 R.;.9 w.w q w.p q q q a w.g B x.w 9 q q q ",
"q 9 p D.0.y q q q q q q q q 9 9 . ) /.p q p q q ",
"q e u K L $ 9 9 q q q q q q q q 9 0 0 q Y.(.w q ",
"q 4.E.4 < z q q q q q q q q q q q 9 q 8 -.I.q q ",
"q y.S.,.9 e q q q q q q q q q q q q q m f 9 w =.",
"q ; P X.' S q q q q q q q q q q q 9 0 O./ r Q.(.",
"E.C 2 c n 9 q q q q q q q q q q 9 9 9 ` / %.K.'.",
"'.t.v V i q q q q q q q q q q q q q q S c *.J.`.",
"'.j.o.#.' e q q q q q q q q q q q q q q q w ~.`.",
":.&.X.' d q q q q q q q q q q q q q q e 8 q ).'.",
"5 ~ ) q e q 9 q q q q q q q q q q q q M l q 9.l.",
"@ = q q q q q q q q q q q q q q q 0 0 O.) q o O ",
"+ j s q 0 b  .N 9 q 9 9 q q q q 0 e 9 x r.W.f 7 ",
"+ 2 r 4.r V #.' A 9 M N q q q q c ] 3.S q.Z.m k ",
"@ 1 a _.U.x @.' D 9 } { q q q q | k.).w ^ o.J + ",
"+ E %.=.[ { l I.^.Q.7.7.M.C.1.q B.B.-.) +.X.G + ",
"* T ! c / ) ,.m.G.'.p 0 |.].z.q N.z.9 @...R ; * ",
"9 1 H X.` w h.f.n.'.<.2. X}.x.=.u.5.d $.Y X 9 q ",
"9 & F X.` w g.f.d._.H.I.9 !.x.q s.a.} C * O t q ",
"q 6 > ( z h h.c.n.'.'.{.2.{.H.6.e.) Q *   j 9 9 ",
"q q 0 s & J i.g.d.F.A.[..X[.v.p.n   X O * p q 9 ",
"q q q q 9 j - J - - U U : : I - % = i y 9 q q q ",
"q q q q 0 7 # + @ @ @ @ # # O # + * q q 9 q q q "
};
