/* XPM */
static char *exit_3_24x24[] = {
/* columns rows colors chars-per-pixel */
"24 24 195 2 ",
"   c #530406",
".  c #5A0203",
"X  c #560905",
"o  c #59170C",
"O  c #620000",
"+  c #6B0000",
"@  c #680800",
"#  c #650F04",
"$  c #750000",
"%  c #7E0B00",
"&  c #592E18",
"*  c #4F381F",
"=  c #50381F",
"-  c #442A1C",
";  c #7D2C04",
":  c #7D370D",
">  c #6C3613",
",  c #6B2C15",
"<  c #433220",
"1  c #385830",
"2  c #147631",
"3  c #197533",
"4  c #117830",
"5  c #1A7A34",
"6  c #1E753C",
"7  c #256C32",
"8  c #366432",
"9  c #217633",
"0  c #2C7F35",
"q  c #257D35",
"w  c #514F29",
"e  c #5D6D34",
"r  c #497034",
"t  c #746A2E",
"y  c #78682C",
"u  c #7F672B",
"i  c #636C33",
"p  c #6B6A31",
"a  c #706A30",
"s  c #1B764B",
"d  c #1F7547",
"f  c #207543",
"g  c #890700",
"h  c #841504",
"j  c #881707",
"k  c #921808",
"l  c #9A0C04",
"z  c #BA1500",
"x  c #892400",
"c  c #842C04",
"v  c #853B0C",
"b  c #863409",
"n  c #84381A",
"m  c #972C08",
"M  c #A42709",
"N  c #BE2A00",
"B  c #B82700",
"V  c #B73902",
"C  c #843730",
"Z  c #CB1B00",
"A  c #C52B01",
"S  c #C92D00",
"D  c #D42A00",
"F  c #CB3903",
"G  c #C93200",
"H  c #D23E00",
"J  c #E03100",
"K  c #FC3400",
"L  c #FB3D00",
"P  c #9C5B1C",
"I  c #9E551C",
"U  c #A85312",
"Y  c #B85A15",
"T  c #9F641F",
"R  c #9D731F",
"E  c #A6631D",
"W  c #AD621A",
"Q  c #B66117",
"!  c #BB6016",
"~  c #B7671A",
"^  c #A2741E",
"/  c #B17219",
"(  c #B76A02",
")  c #895D23",
"_  c #8B6726",
"`  c #846729",
"'  c #806829",
"]  c #9D6521",
"[  c #966623",
"{  c #A07B21",
"}  c #B37222",
"|  c #CE4D00",
" . c #CD5D0F",
".. c #D55D0D",
"X. c #C55F12",
"o. c #C85E11",
"O. c #EA4400",
"+. c #E54B00",
"@. c #EB4E00",
"#. c #F54700",
"$. c #FE4400",
"%. c #F54A00",
"&. c #FB4C00",
"*. c #EC5400",
"=. c #E75B07",
"-. c #F45502",
";. c #FE5500",
":. c #F65C04",
">. c #FC5B00",
",. c #C3761E",
"<. c #E2630D",
"1. c #FD6301",
"2. c #FC6C04",
"3. c #F96507",
"4. c #FF7C0B",
"5. c #FF7100",
"6. c #FD7A11",
"7. c #598E3A",
"8. c #4E913C",
"9. c #A3962E",
"0. c #B49427",
"q. c #9FB03E",
"w. c #AFA02C",
"e. c #A8BB3E",
"r. c #BAB939",
"t. c #EA8900",
"y. c #F88E00",
"u. c #E29700",
"i. c #FE9200",
"p. c #E1891C",
"a. c #FC8713",
"s. c #F68D16",
"d. c #F88819",
"f. c #F8931B",
"g. c #F89B1B",
"h. c #F0951A",
"j. c #ECA100",
"k. c #F8AB00",
"l. c #F6A800",
"z. c #ECB20F",
"x. c #F5B100",
"c. c #FBB300",
"v. c #FFBE00",
"b. c #FCA61F",
"n. c #FFAB1F",
"m. c #F8B11B",
"M. c #D8AB29",
"N. c #CEB22D",
"B. c #E4A021",
"V. c #EAB72A",
"C. c #FFB422",
"Z. c #FCBA27",
"A. c #F8C00E",
"S. c #FFC800",
"D. c #ECCF15",
"F. c #FFD011",
"G. c #F8CC1A",
"H. c #F8E015",
"J. c #FFF219",
"K. c #D5C136",
"L. c #FFCB25",
"P. c #FCCC2E",
"I. c #FCCF32",
"U. c #E7D036",
"Y. c #FBD434",
"T. c #F9DA37",
"R. c #F8E92E",
"E. c #F8FD2F",
"W. c #ECE73C",
"Q. c #FCE939",
"!. c #FAE039",
"~. c #F8F634",
"^. c #FCFC35",
"/. c #FAF43D",
"(. c #FCFF39",
"). c #ECE92C",
"_. c #9BC346",
"`. c #B4C640",
"'. c #ABD449",
"]. c #A5CC4A",
"[. c #DCED44",
"{. c #EBEF40",
"}. c #EBFF49",
"|. c #FAFB41",
" X c #FAFF4B",
".X c #F8FF5E",
"XX c #F8FF63",
"oX c #ECE474",
"OX c #ECEA80",
"+X c #F7F782",
"@X c #F0FA8B",
"#X c #FEFE89",
"$X c #FFFF97",
"%X c #ECE4E3",
"&X c #FAFAFF",
/* pixels */
"4 4 4 4 2 0 {.|.|.|.|./.|./.|.|.(.`.4 2 4 4 4 4 ",
"4 2 4 _.].e.{ R R ^ { ^ / ^ R R R 9.].'.8.2 4 4 ",
"4 2 7.U.T.M.% + $ $ $ +   + $ $ O U !.T.r.4 4 4 ",
"4 _.U.m h M +.*.@.%.%.U 3 Y %.+.*.F k h ,.[.q 4 ",
"2 '.(.F z D >.>.<.[ 3.<.2 9 ~ >.1.O.Z z h. Xq 4 ",
"0 q.V.2.;.3. .-.o.3 ] Q 4 4 u ..-.>.1.;.s.K.7.0 ",
"{.} l @.>...2 ! =.2 4 4 4  .X.4 o.;.:.1.S k K.W.",
"|.p.Z -.>.=.! ] t 4 3 3 4 y W Q _ E ;.>.J G T.|.",
"|.b.;.;.;.;...i s 4 4 4 4 d p ..2 e ;.;.;.2.T./.",
"|.b.%.-.;...9 6 4 4 4 4 4 4 4 4 d ' ;.;.&.3.T./.",
" Xb.K ;.T p E X.W 4 d 6 9 6 p X.Y [ p ..L >.Q. X",
"N.B.6.;.[ y >.-.E 4 r u t 4 e  .;.o.e ..3.s.M.N.",
"@ 0./.2.%.>.;._ f 2 Y ;.:.y d 4 o.;.-.#.b.{.v @ ",
"O w.|.:.K $.;.i 2 ! ` [ ;.p 4 Q =.;.$.K C.}.v . ",
"@ ~ P.g.f.a.;.I P &.P ) &.P U ;.$.3.g.f.C.V.c @ ",
"@ B 4.Q. XY.3.;.>.:.>.:.:.:.:.:.#.g.|. XZ.O.h @ ",
"+ N 2.a.6.g.Y.Y.Y.P.P.L.G.L.Y.Y.Y.Z.d.d.a.&.g + ",
"& b H #.L 3.R.~.~. X|..X@XXX^.~.~.m.L $.O.V > & ",
"2 < % +.;.2.l.l.A./.E.+X&X@XD.k.x.y.-.>.A X 7 4 ",
"2 - g -.1.5.l.l.A./.E.+X&X@XH.c.x.i.>.2.S . 7 4 ",
"4 1 , B A | c.v.F.|.(.#X&X$XJ.v.S.t.N A m = 3 4 ",
"4 5 2 o   ; u.j.z.U.).oX%XoXD.j.x.( X . * 2 4 4 ",
"4 4 4 7 2 w ; x c v v n C n b c x > 7 7 2 4 4 4 ",
"4 4 4 2 5 8 # + @ @ @ @ @ @ @ @ + & 4 4 4 4 4 4 "
};
