/* XPM */
static char *exit_4_24x24[] = {
/* columns rows colors chars-per-pixel */
"24 24 176 2 ",
"   c #5E0000",
".  c #650000",
"X  c #6B0000",
"o  c #690900",
"O  c #720000",
"+  c #651307",
"@  c #711704",
"#  c #7F1400",
"$  c #422B1D",
"%  c #5D2511",
"&  c #4A331E",
"*  c #72230F",
"=  c #3D4E2E",
"-  c #38562F",
";  c #137731",
":  c #1A7735",
">  c #117830",
",  c #1E763B",
"<  c #2E6A33",
"1  c #2D6531",
"2  c #316232",
"3  c #227C34",
"4  c #257533",
"5  c #387335",
"6  c #46492A",
"7  c #40472B",
"8  c #534724",
"9  c #72692F",
"0  c #6F6A30",
"q  c #1B754A",
"w  c #850700",
"e  c #861B08",
"r  c #981705",
"t  c #B30E00",
"y  c #A01600",
"u  c #832A06",
"i  c #9C3D00",
"p  c #963609",
"a  c #A52206",
"s  c #B72401",
"d  c #A93209",
"f  c #C21C00",
"g  c #C51600",
"h  c #CB2600",
"j  c #C73A02",
"k  c #D23C01",
"l  c #D63900",
"z  c #E53B00",
"x  c #F73700",
"c  c #F83400",
"v  c #FA3B00",
"b  c #884108",
"n  c #974203",
"m  c #975109",
"M  c #974E13",
"N  c #975810",
"B  c #975413",
"V  c #B55B18",
"C  c #97631A",
"Z  c #9C741F",
"A  c #A4631E",
"S  c #AA621B",
"D  c #B66017",
"F  c #BB6016",
"G  c #B56119",
"H  c #A1761F",
"J  c #B1751E",
"K  c #97582C",
"L  c #8A6626",
"P  c #866728",
"I  c #976522",
"U  c #A27F23",
"Y  c #B27523",
"T  c #DE4600",
"R  c #D34300",
"E  c #CE5E0F",
"W  c #D55C0D",
"Q  c #D95C0B",
"!  c #D85200",
"~  c #C45F12",
"^  c #E54B00",
"/  c #EA4D01",
"(  c #F44700",
")  c #F84500",
"_  c #F54C00",
"`  c #FA4C00",
"'  c #EA5300",
"]  c #E45A07",
"[  c #EC5904",
"{  c #E25B09",
"}  c #F65501",
"|  c #FC5400",
" . c #F55801",
".. c #FB5A00",
"X. c #FC6301",
"o. c #FD6C03",
"O. c #F87C0F",
"+. c #FA700D",
"@. c #E16F11",
"#. c #F87C15",
"$. c #975650",
"%. c #518A39",
"&. c #54943D",
"*. c #749C3D",
"=. c #68A341",
"-. c #A38E2A",
";. c #AC9B2C",
":. c #B59226",
">. c #9DB23F",
",. c #A6BD3F",
"<. c #D38400",
"1. c #DF881C",
"2. c #FF800C",
"3. c #F79800",
"4. c #FB8311",
"5. c #FF8E14",
"6. c #FD9216",
"7. c #FA9B1B",
"8. c #ECA200",
"9. c #F9AC01",
"0. c #F9A700",
"q. c #F7B000",
"w. c #F9B503",
"e. c #FFBC01",
"r. c #F8BB0A",
"t. c #FAA61E",
"y. c #FFAB1F",
"u. c #F8BD19",
"i. c #F79821",
"p. c #C5A02D",
"a. c #DEB32B",
"s. c #E5A824",
"d. c #EDB529",
"f. c #F8BD2A",
"g. c #F8BD23",
"h. c #F9C10E",
"j. c #FFC507",
"k. c #F9E91E",
"l. c #F8E61B",
"z. c #FFF21E",
"x. c #CBC239",
"c. c #D7C232",
"v. c #EBC02C",
"b. c #F9C42D",
"n. c #FFCF2E",
"m. c #F8C726",
"M. c #FFD72F",
"N. c #F8C334",
"B. c #E5D137",
"V. c #F7D533",
"C. c #E5CA34",
"Z. c #E3E73F",
"A. c #FAE339",
"S. c #FBEA36",
"D. c #FAFF33",
"F. c #F9F33C",
"G. c #FAFE3C",
"H. c #F8F736",
"J. c #96BF45",
"K. c #97C045",
"L. c #A7CB48",
"P. c #ABDA4A",
"I. c #C7D440",
"U. c #E6EB40",
"Y. c #FBFB42",
"T. c #F9FE4B",
"R. c #F8FF54",
"E. c #F8FF60",
"W. c #F8F86F",
"Q. c #FCFD74",
"!. c #F5FA75",
"~. c #F3FB9E",
"^. c #F0FA96",
"/. c #FFFFA5",
"(. c #FBFBFD",
"). c #F8F8F1",
/* pixels */
"> > > > ; 3 U.Y.F.Y.Y.Y.F.F.Y.Y.Y.I.> > > > > > ",
"> ; > J.L.,.-.Z H H H H Z U H Z Z -.L.L.=.> ; > ",
"> > %.B.A.a.e X O O O O O O O O . p V.V.x.3 ; > ",
"> J.B.d e y T ' ^ ^ ^ ^ ^ ^ ^ ^ [ R r e D U.&.; ",
"> P.G.k t h | X...X...X.....X...X._ f t @.T.=.; ",
"4 J.v.o.| X..... .W [  .Q [  .W [ ..X.| 2.C.*.3 ",
"U.Y r / ......| Q : D [ 5 F Q > S | ..X.k r p.U.",
"Y.1.g ( ....| G L S S 0 , S  .S Q } ....z f d.Y.",
"Y.y.` ....| | 9 > Q P q : D | { [ ..} } | ..b.F.",
"Y.t.` } } ..| L q > > : q ~ ] > S | ....` ..b.G.",
"T.y.x } ....| E S G 5 > A A L C W | .. ._ ) M.T.",
"a.s.+...} } ......] P L | 9 ; ..| ..} } ..#.s.c.",
"@ :.S.o.`  ...| E : I  ...9 4  .|  ...) 5.F.C @ ",
"  ;.T.X.x _ } | { A W | ..~ D  ...} ) c 6.T.C   ",
"o Y M.6.#.O..._ | ` ` | | ` ` | ( X.O.#.t.M.B o ",
"o s 2.S.T.V.X.) ` | } | _ } | | v O.Y.T.M...r o ",
". s o.6.i.t.b.N.b.f.f.g.u.u.v.b.N.f.t.i.5.| y X ",
"% p T ) v X.A.G.H.T.Y.R.!.E.Y.H.G.m.` v ( R u % ",
"> & w ^ } X.0.q.r.F.D.Q.).^.k.w.w.3. ...k o 6 > ",
"; $ w } X.o.0.q.r.F.D.!.(.~.l.q.q.3.X.o.l . 7 ; ",
"> 7 * j k ! 0.e.j.Y.D.Q.(./.z.e.j.3.R k d % 2 > ",
"> > < +   u 8.e.h.F.D.Q.(.~.k.w.e.<.o o % : > > ",
"> > > - - 8 p i n B N K $.K m n i b 6 6 < > > > ",
"> > > > > < + X o o o o o o o o . % > > > > > > "
};
