/* XPM */
static char *exit_2_24x24[] = {
/* columns rows colors chars-per-pixel */
"24 24 197 2 ",
"   c #530102",
".  c #500908",
"X  c #5B0304",
"o  c #56150C",
"O  c #4B0808",
"+  c #640300",
"@  c #6C0000",
"#  c #680800",
"$  c #650F04",
"%  c #7B0200",
"&  c #7E1000",
"*  c #4B221B",
"=  c #452A1B",
"-  c #41311F",
";  c #58321A",
":  c #7D2503",
">  c #7E2C05",
",  c #7A2D09",
"<  c #7D300B",
"1  c #6A2D17",
"2  c #7C2B14",
"3  c #673616",
"4  c #4C3F24",
"5  c #7E2D27",
"6  c #603D20",
"7  c #395E32",
"8  c #147632",
"9  c #197634",
"0  c #107830",
"q  c #1A7A34",
"w  c #1C753A",
"e  c #1E783B",
"r  c #226F32",
"t  c #3F6E35",
"y  c #237333",
"u  c #2C7F35",
"i  c #367235",
"p  c #6B5B29",
"a  c #755726",
"s  c #526C36",
"d  c #5C6533",
"f  c #557536",
"g  c #73692D",
"h  c #79672C",
"j  c #6B6A31",
"k  c #646D34",
"l  c #6D7033",
"z  c #50512A",
"x  c #1A6E41",
"c  c #1C754A",
"v  c #107650",
"b  c #227743",
"n  c #870600",
"m  c #831E00",
"M  c #861409",
"N  c #961507",
"B  c #A10B03",
"V  c #8E2C0A",
"C  c #9A250C",
"Z  c #88330C",
"A  c #B52200",
"S  c #B42A00",
"D  c #BB2600",
"F  c #AD3503",
"G  c #CC1300",
"H  c #C32B00",
"J  c #CC2005",
"K  c #D22C00",
"L  c #CD3A01",
"P  c #DF3A00",
"I  c #F72A00",
"U  c #E43A00",
"Y  c #FA3C00",
"T  c #FF3400",
"R  c #8F591F",
"E  c #90531D",
"W  c #AB4F13",
"Q  c #A45B1A",
"!  c #A95516",
"~  c #B75313",
"^  c #9F6F1E",
"/  c #9F721E",
"(  c #AD6303",
")  c #A36C1C",
"_  c #A8661C",
"`  c #BA6217",
"'  c #B0751B",
"]  c #885C22",
"[  c #8A6524",
"{  c #8D6B24",
"}  c #826729",
"|  c #976924",
" . c #A26A22",
".. c #B37321",
"X. c #CA4B00",
"o. c #DA5C0B",
"O. c #C45F13",
"+. c #D84D08",
"@. c #E74800",
"#. c #FC4600",
"$. c #F54C00",
"%. c #FD4C01",
"&. c #F34600",
"*. c #EB5B08",
"=. c #E65606",
"-. c #FD5400",
";. c #FF5D01",
":. c #F75701",
">. c #C46615",
",. c #CD6412",
"<. c #D66610",
"1. c #D47417",
"2. c #CC7B1B",
"3. c #FB6A03",
"4. c #FF7100",
"5. c #FF7B09",
"6. c #FD7C13",
"7. c #32893A",
"8. c #448D3B",
"9. c #5A8D3A",
"0. c #53963E",
"q. c #349142",
"w. c #4E9D42",
"e. c #929D3C",
"r. c #889E38",
"t. c #B49127",
"y. c #A7B63D",
"u. c #B3AD37",
"i. c #DE9300",
"p. c #E68200",
"a. c #FB8C00",
"s. c #FF850F",
"d. c #FF8D0E",
"f. c #EB9D00",
"g. c #FC8415",
"h. c #FA9A1B",
"j. c #E68717",
"k. c #EBAB08",
"l. c #F8AA00",
"z. c #F8A900",
"x. c #FCB400",
"c. c #FBB800",
"v. c #EFA41F",
"b. c #FCA61C",
"n. c #F8A918",
"m. c #FFB81E",
"M. c #C59322",
"N. c #D79925",
"B. c #CCAC2C",
"V. c #D7A82B",
"C. c #D9BE33",
"Z. c #FEB524",
"A. c #FFB920",
"S. c #E8B028",
"D. c #FDC405",
"F. c #F8C110",
"G. c #FAD913",
"H. c #E7C513",
"J. c #FFF017",
"K. c #C4D82F",
"L. c #DDCB37",
"P. c #EAD92B",
"I. c #F0D22C",
"U. c #E6CF36",
"Y. c #E8D537",
"T. c #FAD433",
"R. c #FDDC35",
"E. c #FCDC3B",
"W. c #F1D537",
"Q. c #F8E62C",
"!. c #F8FC2E",
"~. c #F8E538",
"^. c #FBF532",
"/. c #F9F53E",
"(. c #FFFF3D",
"). c #FAFB33",
"_. c #E7E93D",
"`. c #9FC646",
"'. c #AAC846",
"]. c #B3C742",
"[. c #BBCB40",
"{. c #ADDD4B",
"}. c #B0D247",
"|. c #CBD740",
" X c #D8E843",
".X c #ECEF40",
"XX c #E8F846",
"oX c #FCFC41",
"OX c #FDFE49",
"+X c #E7DB73",
"@X c #FEFF60",
"#X c #E7E274",
"$X c #F8F886",
"%X c #FFFF8D",
"&X c #F2FB85",
"*X c #E7DBDA",
"=X c #FAFAFE",
/* pixels */
"0 0 0 0 8 u .X(.oXoXoX[.0 [.(./.(.].0 0 0 0 0 0 ",
"0 8 0 `.'.y.' ) ^ ^ r.7.0 { ' / ) t.].}.8.8 0 0 ",
"0 0 9.U.E.B.o X % % 6 0 0 * + %   [ XXE.u.8 0 0 ",
"0 '.Y.C N 2 8 _ #.$.$.` 0 w R $.a b 8 M 1. Xq 0 ",
"0 {.(.L G K `  .| |  .h 0 w f | 8 k W * u.OX8 0 ",
"y y.S.3.*.<.*.g c w w 8 0 0 0 9 e [ o.g r.C.9.7.",
".X..B #.| 9 9 0 0 0 0 0 0 0 0 0 0 8 y ,.G C L._.",
"oXj.A g _ _ 0 9 0 0 0 0 0 0 0 0 8 j >.;.I P R.(.",
"oXb.=.d _ >.0 q 0 0 0 0 0 0 0 0 w h =.-.=.2.~./.",
"/.b.#.:.[ q 0 0 0 0 0 0 0 0 0 0 0 8 i *.! 0  X/.",
"OXb.T -.[ 8 ~ h 8 0 0 0 0 0 0 0 8 9 b y E ` /.OX",
"B.v.g.>.s s -.| c 0 0 0 0 0 0 0 w i } s ..d.V.B.",
"# M.XX0 x j :.| 9 0 0 0 0 0 0 0 w [ -.#.Z._.< # ",
"X p q.w a +.-.h c 0 c k o.d v 8 _ Q p U m.XX, + ",
"@ 1 j w.V.g.-.W d 0 d Q ~ R g R #.1.w.N.A.S.: # ",
"# A 5.~.OXT.3.%.,.0 ,.<.0 ` ;.;.$.h.(.OXZ.U M # ",
"@ H 4.s.6.h.W.E.W.|.W.I.K.I.T.R.E.Z.s.g.5.$.n # ",
"; Z L &.Y 3.R.^.^.(.(.@X%X@X).Q.).v.Y #.U F 3 ; ",
"0 - n @.-.3.z.z.F./.!.$X=X&XG.z.x.a.:.;.S . 9 8 ",
"0 = n :.3.3.z.z.F./.!.$X=X&XG.z.c.a.:.3.H   r 0 ",
"0 7 1 S A X.x.c.G.oX).%X=X%XJ.c.D.p.S D V 4 8 8 ",
"0 8 8 o . , i.z.k.Y.P.#X*X#XH.f.k.( . X 4 9 0 0 ",
"0 0 0 r 8 z : & Z , < 2 5 2 > : m 3 8 r 0 0 0 0 ",
"0 0 0 0 8 t $ # # # # # # # # + @ ; 8 0 0 0 0 0 "
};
