/* XPM */
static char *exit_0_24x24[] = {
/* columns rows colors chars-per-pixel */
"24 24 141 2 ",
"   c #3A3B29",
".  c #6E0000",
"X  c #6F0000",
"o  c #690600",
"O  c #660C03",
"+  c #680800",
"@  c #65120B",
"#  c #67130B",
"$  c #621609",
"%  c #631609",
"&  c #62170A",
"*  c #641609",
"=  c #601B0C",
"-  c #5A2512",
";  c #5D2612",
":  c #5C2713",
">  c #542C18",
",  c #592F18",
"<  c #57321A",
"1  c #55341C",
"2  c #583019",
"3  c #55391E",
"4  c #533F22",
"5  c #3F4028",
"6  c #3B532E",
"7  c #117731",
"8  c #127631",
"9  c #127731",
"0  c #137731",
"q  c #137632",
"w  c #137732",
"e  c #177531",
"r  c #157631",
"t  c #147731",
"y  c #157731",
"u  c #167631",
"i  c #147732",
"p  c #147633",
"a  c #157633",
"s  c #157733",
"d  c #167535",
"f  c #167734",
"g  c #1C7332",
"h  c #1F7232",
"j  c #1C7632",
"k  c #1E7633",
"l  c #197635",
"z  c #197636",
"x  c #107830",
"c  c #117830",
"v  c #117831",
"b  c #127830",
"n  c #127831",
"m  c #137831",
"M  c #147831",
"N  c #157831",
"B  c #157931",
"V  c #167831",
"C  c #147832",
"Z  c #167932",
"A  c #167833",
"S  c #177833",
"D  c #177834",
"F  c #1B7831",
"G  c #187832",
"H  c #1C7A33",
"J  c #187934",
"K  c #1B7936",
"L  c #1B723A",
"P  c #1C7639",
"I  c #1A723C",
"U  c #1F783B",
"Y  c #206C32",
"T  c #276D33",
"R  c #286E33",
"E  c #247433",
"W  c #2A7433",
"Q  c #297334",
"!  c #2D7434",
"~  c #2C7735",
"^  c #237D34",
"/  c #2A7C32",
"(  c #287E35",
")  c #2C7F35",
"_  c #207B3A",
"`  c #3D7636",
"'  c #454328",
"]  c #4F4B29",
"[  c #4D4D2B",
"{  c #415C30",
"}  c #644F25",
"|  c #576134",
" . c #427B31",
".. c #4B7D31",
"X. c #7E6B2C",
"o. c #606C33",
"O. c #6A6B32",
"+. c #257B46",
"@. c #884013",
"#. c #B16018",
"$. c #B3641A",
"%. c #835722",
"&. c #8A5D26",
"*. c #806228",
"=. c #826629",
"-. c #846728",
";. c #8D6D29",
":. c #916F29",
">. c #A36A21",
",. c #CB5A0E",
"<. c #CB5D0F",
"1. c #CF5D0E",
"2. c #D15E0E",
"3. c #E25B08",
"4. c #F05903",
"5. c #CD6010",
"6. c #248036",
"7. c #468839",
"8. c #4B8B39",
"9. c #518D3A",
"0. c #7BA23E",
"q. c #7FA33E",
"w. c #6CA542",
"e. c #978E22",
"r. c #908C24",
"t. c #80A33E",
"y. c #90AD3F",
"u. c #F2AE02",
"i. c #9AB440",
"p. c #A0B840",
"a. c #A7BF41",
"s. c #ADC140",
"d. c #B3C540",
"f. c #B7C840",
"g. c #C4D140",
"h. c #CEDA40",
"j. c #E3E840",
"k. c #E4E940",
"l. c #E9ED40",
"z. c #F1F340",
"x. c #F8F840",
/* pixels */
"x d.k.x s.j.b 7 x x x x x x x x x x x x x x x x ",
"x 8.t.x 7.q.x x x x x x x x x x x x x x c n p.d.",
"x c 9 x c 9 x x x x x x x x x x x x x x 9 B h.l.",
"x x x x x x x x x x x x x x x x x x x x x x m N ",
"x x x x x x x x x x x x x x x x x x x x x x 7 9 ",
"x x x x x x x x x x x x x x x x x x x x x x x x ",
"x x x x x x x x x x x x x x x x x x x x x x x x ",
"q c x x x x x x x x x x x x x x x x x x x x x x ",
"9.H x x x x x x x x x x x x x x x x x x x x x x ",
"x.y.8 x x x x x x x x x x x x x x x x x x x x x ",
"w.^ x x x x x x x x x x x x x x x x x x x x x x ",
"  Y x x x x x x x x x x x x x x x x x x x x x x ",
"+ 4 A x x x x x x x x x x x x x x x x x x x x x ",
"[ R c q c x x x x x x x x x x x x x x x x x x x ",
"D i M 0.) x x x x x x x x c c x x x x s 0 x n m ",
"x 8 ( z.i.8 x x x x x x x x x x x x x 0 c x c 9 ",
"x x c 6.Z c d n x x l L x g.f.x x f j 1.>.x - % ",
"x m E %.| V e. .w x -.*.x a.p.x x z x #.:.i 1 : ",
"x P o.4.&./ u.r.I c <.2.x a x x x t k n x u c n ",
"x c y O.Q c ..F c x W ! x x x x +.;.3.` 5 $ h c ",
"x x c P m x p s J S X.=.x A K n ' @.$.~ 6 2 g x ",
"x x x x x x x r 0 e ,.5.x x t T * > U v x C x x ",
"x x x x x c v 3 @ & } G x < # = ] x c x x x x x ",
"x x x x x c v , . o [ _ x ; X O { D x x x x x x "
};
