/* XPM */
static char *exit_5_24x24[] = {
/* columns rows colors chars-per-pixel */
"24 24 172 2 ",
"   c #5E0201",
".  c #590604",
"X  c #5D160A",
"o  c #650000",
"O  c #6B0000",
"+  c #680900",
"@  c #730000",
"#  c #651105",
"$  c #7E1100",
"%  c #432A1C",
"&  c #5B2B15",
"*  c #53311B",
"=  c #7D2A03",
"-  c #6E2913",
";  c #732F10",
":  c #743D10",
">  c #453220",
",  c #3E512E",
"<  c #335F31",
"1  c #1D6F32",
"2  c #127631",
"3  c #1D7232",
"4  c #117830",
"5  c #187934",
"6  c #326332",
"7  c #287E35",
"8  c #524D27",
"9  c #850000",
"0  c #810A00",
"q  c #9B0F04",
"w  c #861908",
"e  c #8B1500",
"r  c #941404",
"t  c #921808",
"y  c #B70E00",
"u  c #BF1B00",
"i  c #B51200",
"p  c #8F2C00",
"a  c #902F00",
"s  c #9F2D06",
"d  c #8B3302",
"f  c #8B3708",
"g  c #A4290A",
"h  c #BF2600",
"j  c #B32200",
"k  c #BA3200",
"l  c #C81900",
"z  c #C62C00",
"x  c #CE2C01",
"c  c #C53100",
"v  c #CC3300",
"b  c #C83B02",
"n  c #E13400",
"m  c #F73700",
"M  c #F83300",
"N  c #FA3800",
"B  c #8B420E",
"V  c #9E480D",
"C  c #8A4616",
"Z  c #9A721F",
"A  c #BE6D1C",
"S  c #A0741F",
"D  c #B3711B",
"F  c #8B4423",
"G  c #8B423C",
"H  c #A17C22",
"J  c #B27322",
"K  c #D64100",
"L  c #D24F00",
"P  c #DF4800",
"I  c #E64C00",
"U  c #EB4C00",
"Y  c #EC4400",
"T  c #F64500",
"R  c #F84400",
"E  c #F14E00",
"W  c #F84B00",
"Q  c #EC5400",
"!  c #F75600",
"~  c #FA5300",
"^  c #F95900",
"/  c #C17301",
"(  c #FC6302",
")  c #FD6A02",
"_  c #FA6C08",
"`  c #FF7000",
"'  c #FF7B0B",
"]  c #FA7610",
"[  c #358538",
"{  c #5C993E",
"}  c #578C39",
"|  c #68953B",
" . c #A3922C",
".. c #B59427",
"X. c #9FB13E",
"o. c #AFA02C",
"O. c #A7BC3E",
"+. c #EE8E00",
"@. c #FF830D",
"#. c #E59B00",
"$. c #FB9300",
"%. c #E6881A",
"&. c #FA8C14",
"*. c #F78C1C",
"=. c #F88716",
"-. c #F89118",
";. c #F99C1C",
":. c #F89217",
">. c #F9A700",
",. c #F4AA00",
"<. c #F8AC00",
"1. c #F7B200",
"2. c #FAB300",
"3. c #FFBC00",
"4. c #F5BB0E",
"5. c #FDA51D",
"6. c #FFAB1F",
"7. c #F8B81F",
"8. c #DBAC29",
"9. c #D1B82F",
"0. c #C0BC39",
"q. c #D0B432",
"w. c #E6A021",
"e. c #FCB626",
"r. c #E8B92A",
"t. c #FFC600",
"y. c #F8C00E",
"u. c #FFCE10",
"i. c #F8C718",
"p. c #F1D717",
"a. c #F8E217",
"s. c #FFF11A",
"d. c #D8C536",
"f. c #F8C725",
"g. c #FAC52C",
"h. c #F3C52E",
"j. c #FFD02D",
"k. c #F8CC32",
"l. c #F8CD39",
"z. c #E6D036",
"x. c #F9D232",
"c. c #F8DB35",
"v. c #F8E42D",
"b. c #F5F72F",
"n. c #FFE033",
"m. c #FAE239",
"M. c #F1EC3C",
"N. c #FFEF3A",
"B. c #F8F535",
"V. c #FAFC34",
"C. c #F8F43D",
"Z. c #FCFF3A",
"A. c #99C146",
"S. c #A5CC4A",
"D. c #BACA40",
"F. c #A9D047",
"G. c #ABD649",
"H. c #DEEB43",
"J. c #E9ED40",
"K. c #FAFB41",
"L. c #FAFF4B",
"P. c #F1FF4A",
"I. c #F8FF5A",
"U. c #F8FF63",
"Y. c #F1EC73",
"T. c #F7F77B",
"R. c #EEF28A",
"E. c #F7FC82",
"W. c #F0FA91",
"Q. c #FFFF9C",
"!. c #F1ECEC",
"~. c #FAFAFE",
/* pixels */
"4 4 4 4 2 7 J.K.K.K.K.C.K.K.K.C.K.D.4 4 4 4 4 4 ",
"4 2 4 A.S.O.H Z S S S Z S S S S Z  .G.F.{ 2 4 4 ",
"4 4 } z.c.8.$ o @ @ @ @ @ @ @ @ o V c.c.0.5 2 2 ",
"4 A.z.s w g I ! I I I I I I I I ! b t w / H.[ 2 ",
"2 G.Z.b i x ^ ( ( ^ ( ^ ^ ( ( ^ ( Y l y %.L.[ 2 ",
"[ X.r._ ^ ^ ^ ^ ^ ^ ^ ! ^ ^ ^ ^ ^ ^ ( ^ &.d.| 7 ",
"J.J r U ^ ^ ^ ^ ^ ^ ^ ^ ^ ^ ^ ^ ^ ^ ^ ( x t q.J.",
"K.%.l U ( ^ ^ ^ ^ ^ ^ ^ ^ ^ ^ ^ ^ ^ ^ ^ n x k.Z.",
"K.6.W ^ ! ! ! ^ ^ ^ ^ ^ ! ! ^ ^ ^ ! ^ ! ^ _ x.K.",
"K.5.W ^ ^ ^ ^ ^ ^ ^ ! ^ ^ ^ ^ ! ^ ! ^ ! ~ ^ x.K.",
"L.5.m ^ ^ ! ^ ! ^ ! ! ! ! ^ ! ^ ! ^ ! ! R ~ c.K.",
"9.w.] ^ ! ^ ! ^ ^ ~ ^ ^ ^ ^ ! ^ ^ ^ ! ~ ( =.8.9.",
"+ ..C._ W ! ! ^ ^ ^ ^ ! ! ! ^ ^ ! ^ ^ R 5.M.C + ",
"o o.K.( M W ^ ! ! ! ^ ! ^ ^ ^ ! ! W W M 5.P.C o ",
"+ D j.;.=.=.! W ^ W ~ W ~ ~ ~ ~ W _ -.=.e.h.f + ",
"+ j ' m.L.c._ W ^ ! ! ! ! ! ! ! R &.K.K.g.E e + ",
"O z ) &.=.;.k.l.k.g.g.f.i.f.h.x.l.e.-.-.' ~ r o ",
"& f K T N _ v.V.V.K.K.I.E.U.Z.B.V.e.R R Y b ; & ",
"2 > $ I ^ ) ,.<.y.C.V.T.~.W.p.<.1.+.^ ( c . 6 2 ",
"2 % 9 ~ ^ ` >.,.y.C.b.T.~.W.a.1.1.$.( ) v   < 4 ",
"4 , - k v L <.3.u.K.Z.E.~.Q.s.3.t.+.c v g * 3 4 ",
"4 5 3 X . = #.<.4.M.b.Y.!.R.p.,.2./ . . * 5 4 4 ",
"4 4 4 6 3 8 f p f f B C G F f d d : < < 3 4 4 4 ",
"4 4 2 4 5 6 # o + + + + + + + + O & 4 4 4 4 4 4 "
};
