/* XPM */
static char *bomberman_green_tile_with_shadow_24x24[] = {
/* columns rows colors chars-per-pixel */
"24 24 42 1 ",
"  c #07551E",
". c #07551F",
"X c #07561F",
"o c #08561F",
"O c #08571F",
"+ c #085720",
"@ c #085820",
"# c #095D23",
"$ c #095E23",
"% c #095E24",
"& c #095F24",
"* c #0A5F24",
"= c #0A6024",
"- c #0A6124",
"; c #0A6125",
": c #0A6225",
"> c #0B6527",
", c #0C6527",
"< c #0C6627",
"1 c #0C6727",
"2 c #0C6728",
"3 c #0C6928",
"4 c #0D6D2B",
"5 c #0D6E2B",
"6 c #0E6E2B",
"7 c #0E6F2B",
"8 c #0E6F2C",
"9 c #0E702C",
"0 c #0E712D",
"q c #0F742E",
"w c #0F752E",
"e c #0F752F",
"r c #10752F",
"t c #10772F",
"y c #107630",
"u c #107730",
"i c #107830",
"p c #107930",
"a c #107831",
"s c #107931",
"d c #117B31",
"f c #117B32",
/* pixels */
"@@@@@@@@@@@@@@@@@@@@@@@@",
"@@@@@@@@@@@@@@@@@@@@@@@@",
"@@+@@+@@+@@+@@+@@+@@+@@+",
"@oX@OX@OX@oX@oX@oX@oo@O.",
" ;2X*1X=<.-< ;< ;, :> =3",
"#8a&4i&5u%7u$9y$9r#0e#6f",
"qtiwtiwtiwtiwtiwtiquiqti",
"dsidsidsidsidsidspdppdsi",
"iiiiiiiiiiiiiiiiiiiiiiii",
"iiiiiiiiiiiiiiiiiiiiiiii",
"iiiiiiiiiiiiiiiiiiiiiiii",
"iiiiiiiiiiiiiiiiiiiiiiii",
"iiiiiiiiiiiiiiiiiiiiiiii",
"iiiiiiiiiiiiiiiiiiiiiiii",
"iiiiiiiiiiiiiiiiiiiiiiii",
"iiiiiiiiiiiiiiiiiiiiiiii",
"iiiiiiiiiiiiiiiiiiiiiiii",
"iiiiiiiiiiiiiiiiiiiiiiii",
"iiiiiiiiiiiiiiiiiiiiiiii",
"iiiiiiiiiiiiiiiiiiiiiiii",
"iiiiiiiiiiiiiiiiiiiiiiii",
"iiiiiiiiiiiiiiiiiiiiiiii",
"iiiiiiiiiiiiiiiiiiiiiiii",
"iiiiiiiiiiiiiiiiiiiiiiii"
};
