/* XPM */
static char *bomberman_grey_tile_24x24[] = {
/* columns rows colors chars-per-pixel */
"24 24 77 1 ",
"  c gray15",
". c gray17",
"X c #2C2C2C",
"o c #2D2D2D",
"O c gray18",
"+ c #2F2F2F",
"@ c gray19",
"# c #313131",
"$ c #323232",
"% c gray21",
"& c #373737",
"* c gray22",
"= c #393939",
"- c #3A3A3A",
"; c gray23",
": c #3C3C3C",
"> c #3F3F3F",
", c gray25",
"< c #414141",
"1 c #444444",
"2 c #464646",
"3 c #484848",
"4 c #494949",
"5 c gray31",
"6 c gray32",
"7 c gray36",
"8 c gray37",
"9 c gray38",
"0 c gray39",
"q c #646464",
"w c gray40",
"e c #6A6A6A",
"r c gray42",
"t c #6F6F6F",
"y c #717171",
"u c gray46",
"i c #767676",
"p c #777777",
"a c gray47",
"s c #797979",
"d c gray48",
"f c #7B7B7B",
"g c #7C7C7C",
"h c gray49",
"j c #7E7E7E",
"k c gray50",
"l c #808080",
"z c #818181",
"x c gray51",
"c c #838383",
"v c gray52",
"b c #888888",
"n c #909090",
"m c gray57",
"M c gray58",
"N c #959595",
"B c #A0A0A0",
"V c gray63",
"C c gray65",
"Z c #A7A7A7",
"A c gray66",
"S c #AAAAAA",
"D c #ACACAC",
"F c gray68",
"G c #B2B2B2",
"H c gray70",
"J c gray71",
"K c #B6B6B6",
"L c gray72",
"P c #BCBCBC",
"I c gray74",
"U c #C0C0C0",
"Y c #C8C8C8",
"T c gray91",
"R c #EAEAEA",
"E c gray92",
"W c gray97",
/* pixels */
",NWRTTTTTTTTTTTTTTTTERUA",
",wBKPLLLLLLLLLLLLLLKIYJA",
",#;yxjjjjjjjjjjjjjjfbVAA",
",-10dzllllllllllllllnCSA",
",:28izkkkkkkkkkkkkkzmZSA",
",:29axlllllllllllllzmZSA",
",:29axlllllllllllllzmZSA",
",:29axlllllllllllllzmZSA",
",:29axlllllllllllllzmZSA",
",:29axlllllllllllllzmZSA",
",:29axlllllllllllllzmZSA",
",:29axlllllllllllllzmZSA",
",:29axlllllllllllllzmZSA",
",:29axlllllllllllllzmZSA",
",:29axlllllllllllllzmZSA",
",:29axlllllllllllllzmZSA",
",:29svcccccccccccccxmZSA",
",:20phgggggggggggggzMZSA",
",:2qtrrrrrrrrrrrreegNZSA",
",>156555555555555555uGHA",
"<>;*&**************X3vCF",
"<=@################@o#zD",
"%$O++++++++++++++++@. 47",
"@@@@@@@@@@@@@@@@@@@@@@@@"
};
