/* XPM */
static char *item_speed[] = {
/* columns rows colors chars-per-pixel */
"24 24 196 2 ",
"   c #010203",
".  c #0A0200",
"X  c #060709",
"o  c #120600",
"O  c #19150B",
"+  c #000312",
"@  c #0C0F1C",
"#  c #04121D",
"$  c #081417",
"%  c #191915",
"&  c #210000",
"*  c #3F0200",
"=  c #231702",
"-  c #2C2402",
";  c #2A250B",
":  c #31250F",
">  c #262319",
",  c #191629",
"<  c #1D2021",
"1  c #3A333E",
"2  c #2A2B33",
"3  c #771315",
"4  c #6A1D1F",
"5  c #782400",
"6  c #413F3C",
"7  c #403334",
"8  c #6F2C2E",
"9  c #702223",
"0  c #4B4422",
"q  c #564A23",
"w  c #484D31",
"e  c #7E6C22",
"r  c #000E40",
"t  c #011A4F",
"y  c #011448",
"u  c #1A2648",
"i  c #112C50",
"p  c #373A48",
"a  c #2A3854",
"s  c #282553",
"d  c #031F64",
"f  c #072966",
"g  c #002378",
"h  c #0E397C",
"j  c #0C3665",
"k  c #293E66",
"l  c #460F48",
"z  c #55174C",
"x  c #551C52",
"c  c #3D4E5A",
"v  c #11457D",
"b  c #2F416A",
"n  c #2E5C6F",
"m  c #275B73",
"M  c #315568",
"N  c #465359",
"B  c #4D4E56",
"V  c #685F54",
"C  c #5A6158",
"Z  c #656856",
"A  c #484D61",
"S  c #515568",
"D  c #5D657E",
"F  c #811A19",
"G  c #803901",
"H  c #852C00",
"J  c #903129",
"K  c #E43C1C",
"L  c #845A06",
"P  c #B64E10",
"I  c #AB480E",
"U  c #886F13",
"Y  c #8C7217",
"T  c #AE7D00",
"R  c #AC5B2D",
"E  c #DC4227",
"W  c #DF3E4B",
"Q  c #E63642",
"!  c #B7574F",
"~  c #BD6279",
"^  c #C35A4D",
"/  c #C96279",
"(  c #AA820F",
")  c #AC8618",
"_  c #B88F17",
"`  c #A4913B",
"'  c #AF9A36",
"]  c #BEAC34",
"[  c #CBA61D",
"{  c #EBA41D",
"}  c #FF912E",
"|  c #FF9230",
" . c #E58E32",
".. c #CFA520",
"X. c #D8AC21",
"o. c #E6B73A",
"O. c #DDC431",
"+. c #F3DF2B",
"@. c #FFD23A",
"#. c #E8CD31",
"$. c #AB9446",
"%. c #B49E40",
"&. c #9EA151",
"*. c #CD9250",
"=. c #C2874F",
"-. c #C9B05A",
";. c #FDD441",
":. c #012C86",
">. c #063E93",
",. c #0C4B8F",
"<. c #205E87",
"1. c #1A6F9B",
"2. c #2D6C8D",
"3. c #316B8B",
"4. c #37738A",
"5. c #286A90",
"6. c #327798",
"7. c #2676A3",
"8. c #2E6DB1",
"9. c #5C6981",
"0. c #666A8B",
"q. c #6B7A9A",
"w. c #727B98",
"e. c #727589",
"r. c #6E7DA1",
"t. c #2065F4",
"y. c #307FF2",
"u. c #2D79F3",
"i. c #3F829D",
"p. c #798398",
"a. c #4290AE",
"s. c #4699AC",
"d. c #478DB9",
"f. c #588CB5",
"g. c #4597B9",
"h. c #4186A3",
"j. c #6988AD",
"k. c #6A92BA",
"l. c #6694BC",
"z. c #7694BA",
"x. c #728DB1",
"c. c #398DD0",
"v. c #398DEF",
"b. c #3689E6",
"n. c #3A8EF1",
"m. c #3C92F2",
"M. c #3C95FA",
"N. c #5C98C4",
"B. c #569BD3",
"V. c #479DC4",
"C. c #679DC7",
"Z. c #4CA7D8",
"A. c #59A9D9",
"S. c #4FB2DF",
"D. c #4EACD4",
"F. c #68ABD8",
"G. c #7EB3DF",
"H. c #75A3CE",
"J. c #439CEE",
"K. c #419AF0",
"L. c #439FFF",
"P. c #4AADE5",
"I. c #50ACE2",
"U. c #4EB2E8",
"Y. c #55BAEE",
"T. c #5BBCEE",
"R. c #57B6E6",
"E. c #45A3FE",
"W. c #4AADFF",
"Q. c #4DBAFC",
"!. c #54BCF3",
"~. c #52BCFF",
"^. c #6DB9EA",
"/. c #5AC1ED",
"(. c #5AC5ED",
"). c #4ECBFF",
"_. c #5CC5F3",
"`. c #52C2FA",
"'. c #5AC5FA",
"]. c #5ECCFE",
"[. c #57C5F6",
"{. c #61CCEF",
"}. c #63C5F9",
"|. c #65D9FF",
" X c #62D5FF",
".X c #68E2FF",
"XX c #81AFDB",
"oX c #90DAFE",
"OX c #82D8FF",
"+X c #BCFDFF",
"@X c #B9F6FF",
"#X c #FAD5D5",
"$X c #C0DCED",
"%X c #C7ECFD",
"&X c #DEE7EE",
"*X c #F2F0F3",
/* pixels */
"t.t.t.t.t.t.t.t.t.t.t.t.t.t.t.t.t.t.t.t.t.t.t.t.",
"t.y.K.K.K.J.K.E.b.h s x x z z l l z z s f c.M.t.",
"t.m.{.(././.T.|.A.$ o 3 3 4 8 J J 9 F * . s.W.t.",
"t.n./.Y.Y.Y.Y. XS.# , w.0.d.T.&X$XZ.j.1 X a.W.t.",
"t.v./.Y.Y.Y.'.7.a Y ..-.*.^ / *X+XQ.C.p X a.W.t.",
"t.n./.Y.Y.!.'.5.< ) #.-. .E W #X@XU.k.1   a.W.t.",
"t.n./.Y.Y.Y.Y._.D.$ 2 p.q.N.^.*X%XU.l.1 X a.W.t.",
"t.n./.Y.'. X Xc.M e ' *.$.! ~ #X@XU.l.1 X a.W.t.",
"t.n./.[.Z.d.V.i   ( #.o. .K W #X+XU.k.p   a.W.t.",
"t.n.[. X2.+ X     . 6 p.~ h.F.*X%XU.k.1   a.W.t.",
"t.E./.m 2 p m 5.2.<.8.B.B.P.).oXOX!.x.2   g.`.t.",
"t.b.i.$ p H.^.}.}. X].`.`.`./.S.I.F.C.A , 4.c.t.",
"t.h % S C.Y.k.r.x.R.`.!.U.`.Y.k.w.x.R.A.9.% f t.",
"t.d   D XXN.a , u f.F.l.Y._.l.a , u f.XXq.X , t.",
"t.f . 9.r.S : - - A 0.w.A.N.A : - = B q.q.X t t.",
"t.f . 0.b o _ +...O u x.H.k X _ +.X.= i r.% t t.",
"t.8.n a q U ` &.` U q p p q U ` &.` U q p   y t.",
"t.E.S.+ L @.C f N @.(     L @.Z f c @._   $ v t.",
"t.L.D.+ H } C f B @.(     G } V j N ;.(   6.J.t.",
"t.M.S.6.7 5 R $.' e w 3.4.1 5 R $.%.L 0 3.R.W.t.",
"t.n._.|.1.@ P { [ % ,. X.X7.# I { [ % ,.|.}.J.t.",
"t.n.{.{._.a.> = ; h./.(._.!.V.> = - i.Y._.{.J.t.",
"t.u.m.v.L.n.>.g :.v.E.n.n.L.M.,.g g b.E.n.n.b.t.",
"t.t.t.t.t.t.t.t.t.t.t.t.t.t.t.t.t.t.t.t.t.t.t.t."
};
