/* XPM */
static char *item_bomb[] = {
/* columns rows colors chars-per-pixel */
"24 24 145 2 ",
"   c #000001",
".  c #01060A",
"X  c #02090B",
"o  c #090B0D",
"O  c #0F0B06",
"+  c #140F0C",
"@  c #130A04",
"#  c #15120F",
"$  c #030D14",
"%  c #000F18",
"&  c #0C0E11",
"*  c #001016",
"=  c #0E1412",
"-  c #0A1917",
";  c #04161F",
":  c #171616",
">  c #14191C",
",  c #1C1C1C",
"<  c #13171A",
"1  c #041923",
"2  c #0A1D26",
"3  c #001628",
"4  c #0A1F28",
"5  c #191F22",
"6  c #0F242F",
"7  c #1D2325",
"8  c #1E2428",
"9  c #162623",
"0  c #182A33",
"q  c #1E323D",
"w  c #202426",
"e  c #222A2E",
"r  c #242729",
"t  c #202636",
"y  c #252E34",
"u  c #2C2E39",
"i  c #2A3236",
"p  c #28303F",
"a  c #2F393F",
"s  c #36333E",
"d  c #6C0500",
"f  c #740D04",
"g  c #7B160D",
"h  c #7D180F",
"j  c #661215",
"k  c #6B1D23",
"l  c #003144",
"z  c #2E3C43",
"x  c #2E3647",
"c  c #383F47",
"v  c #314046",
"b  c #35444A",
"n  c #38464C",
"m  c #3B494F",
"M  c #28455D",
"N  c #224D5B",
"B  c #374850",
"V  c #3D4C53",
"C  c #324652",
"Z  c #3D5058",
"A  c #144B68",
"S  c #13546F",
"D  c #1D556E",
"F  c #1E5670",
"G  c #1B5975",
"H  c #2E4E64",
"J  c #27607E",
"K  c #404F56",
"L  c #44535B",
"P  c #47585F",
"I  c #72695D",
"U  c #475661",
"Y  c #4A5B64",
"T  c #4D5E68",
"R  c #4C5668",
"E  c #515562",
"W  c #505F70",
"Q  c #51626D",
"!  c #516271",
"~  c #596A7D",
"^  c #5D647E",
"/  c #F52B1B",
"(  c #874617",
")  c #CD5D0D",
"_  c #813B46",
"`  c #934C54",
"'  c #94525C",
"]  c #CD4F50",
"[  c #D86269",
"{  c #22698D",
"}  c #2E6F91",
"|  c #327495",
" . c #5C6D82",
".. c #5B6D8C",
"X. c #566583",
"o. c #5E7091",
"O. c #62738C",
"+. c #68728A",
"@. c #647593",
"#. c #677894",
"$. c #697997",
"%. c #6C7C9B",
"&. c #6F7FA0",
"*. c #9B778F",
"=. c #9E788E",
"-. c #9C7A92",
";. c #A37285",
":. c #A97B90",
">. c #69809F",
",. c #6C82A1",
"<. c #7685A0",
"1. c #7F8CA6",
"2. c #7889AB",
"3. c #708EB1",
"4. c #6592B8",
"5. c #249DCD",
"6. c #339AD2",
"7. c #38A6D8",
"8. c #3BACE1",
"9. c #3FB8EF",
"0. c #3FB8F0",
"q. c #4C94C5",
"w. c #4BA4D3",
"e. c #5CB1DA",
"r. c #6BACDB",
"t. c #42BAEE",
"y. c #41BAF3",
"u. c #62BDF2",
"i. c #39D3FF",
"p. c #47CDFF",
"a. c #5DDAFF",
"s. c #808289",
"d. c #AF869E",
"f. c #B6AA98",
"g. c #8694B3",
"h. c #B18DA6",
"j. c #B38EA9",
"k. c #ADACAD",
"l. c #A2ACC3",
"z. c #B9C0CD",
"x. c #BFC6D6",
"c. c #84C5F5",
"v. c #D6E0E3",
"b. c #D5E7FF",
"n. c #EAECF0",
/* pixels */
"/ / / / / / / / / / / / / / / / / / / / / / / / ",
"/ ] =.;.:.h.h.` f f f f h g f d ' :.h d k -.[ / ",
"/ =.i.p.y.7.t.G . . X .     X * { 7.l - 9 5.*./ ",
"/ ;.p.a.| ; ; 0 B b Z v   X C o.x 1 6.f.) = j / ",
"/ :.y.| p : # i P P c y p s.k.E M J { I ( N _ / ",
"/ d.7.. # T T Y P T : . X.b.v.@ A w.<   3 y.j./ ",
"/ h.9.% O Y +.o...$.u . ~ c.e.o   4 v : 1 y.j./ ",
"/ ` G 0 b ~ @.l.x.g.t   Y 4.q.} H s T r $ F ` / ",
"/ d   b O.&.$.l.n.g.x & i E &.u.r.+.P ,     f / ",
"/ f . v  .%.%.<.g.%.$.R o 7 ~ 3.,.K < .     g / ",
"/ f . v  .%.%.@...@.2.#.u = 7 u u >         g / ",
"/ f . v  .%.%.$.@.#.%.#.Q e .               g / ",
"/ f X v  .<.$.$.$.$.%.@.Y n n V 8           g / ",
"/ f X B ! ~ $.,.&.<.O.W L L L z :           g / ",
"/ f . z m L  .#.@.@.W m K Y n .             g / ",
"/ f   . u U U U U U L K K Y V o             f / ",
"/ ` D . , T K m V V K Y Y b 7 .         $ D ` / ",
"/ h.t.1 # K K L K L V n V 5             2 y.j./ ",
"/ d.7.$   < K T P T i o o .             $ 8.d./ ",
"/ :.y.| 6   + w e y &                 0 | t.:./ ",
"/ ;.p.a.| 2 1 .                 * 2 2 | a.p.;./ ",
"/ =.i.p.y.8.t.S                 S y.8.y.p.i.=./ ",
"/ ] =.;.:.d.h.` g g g g g g g g ` h.d.:.;.=.] / ",
"/ / / / / / / / / / / / / / / / / / / / / / / / "
};
