/* XPM */
static char *item_fire[] = {
/* columns rows colors chars-per-pixel */
"24 24 196 2 ",
"   c #010201",
".  c #040802",
"X  c #050506",
"o  c #250000",
"O  c #2C1A00",
"+  c #291700",
"@  c #390608",
"#  c #322000",
"$  c #5D0000",
"%  c #5A0C09",
"&  c #56091A",
"*  c #650000",
"=  c #750302",
"-  c #790004",
";  c #750608",
":  c #751609",
">  c #761403",
",  c #61111C",
"<  c #702F02",
"1  c #633C0F",
"2  c #57192D",
"3  c #4B1831",
"4  c #691729",
"5  c #752637",
"6  c #6A303A",
"7  c #2B334E",
"8  c #232D4D",
"9  c #793443",
"0  c #683946",
"q  c #6C5059",
"w  c #5B5779",
"e  c #584A69",
"r  c #6B5D72",
"t  c #840301",
"y  c #94140C",
"u  c #A9050C",
"i  c #AA0708",
"p  c #AF1F00",
"a  c #B41F00",
"s  c #9C2A0A",
"d  c #812F10",
"f  c #9F2D10",
"g  c #932C10",
"h  c #9C3516",
"j  c #A52A07",
"k  c #B42200",
"l  c #B42F04",
"z  c #A73504",
"x  c #BA3D16",
"c  c #B12F13",
"v  c #87332F",
"b  c #A92C33",
"n  c #EC1018",
"m  c #E12216",
"M  c #E12419",
"N  c #F52B1B",
"B  c #DE352D",
"V  c #DF3F39",
"C  c #E02B21",
"Z  c #F22E20",
"A  c #E6352B",
"S  c #E03E36",
"D  c #CF0F13",
"F  c #805F00",
"G  c #9A470B",
"H  c #B14C18",
"J  c #826101",
"K  c #856709",
"L  c #B8690C",
"P  c #8D552E",
"I  c #DE5309",
"U  c #DB5A19",
"Y  c #E65514",
"T  c #D46715",
"R  c #E8781E",
"E  c #DF433C",
"W  c #E34039",
"Q  c #FD7E23",
"!  c #AE5B57",
"~  c #A85362",
"^  c #AF6067",
"/  c #B6636E",
"(  c #A96E7E",
")  c #D14B4A",
"_  c #9E801D",
"`  c #AD890E",
"'  c #A88F20",
"]  c #BE9920",
"[  c #D69218",
"{  c #C4931E",
"}  c #EE811B",
"|  c #F08510",
" . c #D1A91F",
".. c #F6BF18",
"X. c #D49423",
"o. c #DA8D22",
"O. c #FF8725",
"+. c #FF8B26",
"@. c #E89324",
"#. c #FF9629",
"$. c #F99826",
"%. c #CBA324",
"&. c #DBA226",
"*. c #DCAA26",
"=. c #D6B133",
"-. c #E6A925",
";. c #EAB629",
":. c #FFB12C",
">. c #FCBA2C",
",. c #FFBF26",
"<. c #FFB02D",
"1. c #F7C217",
"2. c #F8C519",
"3. c #F6C425",
"4. c #F7C72C",
"5. c #FDC52E",
"6. c #F6CE2E",
"7. c #FBCB2E",
"8. c #FFCE23",
"9. c #FCD22F",
"0. c #FBD82A",
"q. c #FBCB31",
"w. c #F6C93A",
"e. c #FEDC31",
"r. c #FCD23C",
"t. c #FFEA37",
"y. c #E78E40",
"u. c #EE9F7F",
"i. c #FDD648",
"p. c #DAC378",
"a. c #FAD777",
"s. c #F7D460",
"d. c #FFF169",
"f. c #FDE775",
"g. c #3A7F9F",
"h. c #3F6395",
"j. c #466695",
"k. c #587393",
"l. c #5A728F",
"z. c #736D8D",
"x. c #656E91",
"c. c #4A7FAC",
"v. c #A96F81",
"b. c #A76E80",
"n. c #A57689",
"m. c #A77E94",
"M. c #A87F93",
"N. c #4283A8",
"B. c #5386B2",
"V. c #7087AB",
"C. c #3B8EC4",
"Z. c #599DCA",
"A. c #719FC8",
"S. c #4CA4D8",
"D. c #56ACDE",
"F. c #6DA4CF",
"G. c #70A1CA",
"H. c #6BAAD7",
"J. c #4AAEE4",
"K. c #49B5ED",
"L. c #55B7EB",
"P. c #48BDF4",
"I. c #52BDF4",
"U. c #6DB6E5",
"Y. c #39D2FF",
"T. c #49C5FE",
"R. c #44CBFF",
"E. c #49C5F9",
"W. c #53C5FA",
"Q. c #43D4FF",
"!. c #48D8FD",
"~. c #6DC7F1",
"^. c #6DC9ED",
"/. c #49E1FF",
"(. c #9F9E9B",
"). c #A6899E",
"_. c #B0ADA7",
"`. c #C9B29E",
"'. c #F8B79D",
"]. c #D9B8B7",
"[. c #FFC58A",
"{. c #E6D797",
"}. c #FFEB8A",
"|. c #FFE987",
" X c #FFFFBA",
".X c #FFF7BF",
"XX c #F8E7AE",
"oX c #CECEB1",
"OX c #84ACD3",
"+X c #A5AFCC",
"@X c #A6B0CD",
"#X c #FFFFD3",
"$X c #FFFFDA",
"%X c #F2F5FD",
"&X c #FEFFFF",
"*X c #F9F9F7",
/* pixels */
"N A S S S S S S S E A M B E E C N S W W M B W N ",
"N / H.F.G.G.G.A.A.^.z.- z.~.U.5 4 H.^.V.; r OXW ",
"N n.Y.Y.E.R.!.Y.R.Z.q g r N.j.P P l.g.w h q x.S ",
"N ( T.I.W.L.D.D.Z.2 p O.j $ ; *.-.= $ s O.z - M ",
"N b.T.I.W.W.e 2 , l | >.y * [ t.X.* G -.O.f - M ",
"N ( E.!.S.w s j ! u.a.6.L L 0.t.*.H &.e.+.f - M ",
"N ( T.W.w t I [.&X&XXX4.7.r.4.4.4.9.9.>.O.f ; M ",
"N m.K.e y Y '.&X&X|.3.4. X X1...q.7.9.>.O.f - M ",
"N ).K.& c [..XoX(.p.i.3.(._.|.i.3.4.9.>.O.f - M ",
"N m.S.& ^ *Xd.J   +X$X4.# 7 %X|.2.4.6.>.O.f - M ",
"N b 0 x y.f.t.J   @X$X4.+ 8 %X|.1.4.6.>.O.f - M ",
"N i - R ,.1.0.J   @X$X4.+ 8 %X|.1.4.6.>.O.f - M ",
"N u : X.e.4.e.K X @X#X4.O 7 %X|.1.4.6.>.O.j - m ",
"N u : =.0.r. X{.] s.d.t.%.=.f.i.3.4.6.q.#.j - m ",
"Z u : o.8.w.].`.%.` ` ' %.%.` *.q.4.5.@.U P 9 C ",
"N i ; U >.;.h @ . . . . . . . K e.5.<.U t j.H.V ",
"N i - Y >.6.[ < o ; u y X X d X.e.6.:.Y - h.~.E ",
"N b 6 H } 5.t.&.g D n n % 1 $.5.9.>.} x 5 N.H.V ",
"N ( S.4 k +.7.t.;.g $ = x @.>.t.5.#.p 4 Z.Q.G.S ",
"N ).E.N.9 p z [ t.&.` ] <.5.<.T z k 9 c.I.!.G.S ",
"N ( R./.B.2 3 P -.;.;.;.*.@.U v 3 2 B.!.I.R.F.V ",
"N n.Y.R.P.J.K.l.> : : : : > = k.E.J.E.E.T.Y.H.V ",
"N ) v.v.n.m.).~ i i u u u i u ~ ).m.n.( ( n./ A ",
"N N N N N N N N N N N N N Z N N N N N N N N N N "
};
