/* XPM */
static char *set_bomb_0_24x24[] = {
/* columns rows colors chars-per-pixel */
"24 24 168 2 ",
"   c #000004",
".  c #00010C",
"X  c #060A0C",
"o  c #0B000D",
"O  c #010312",
"+  c #040913",
"@  c #0A0D15",
"#  c #000019",
"$  c #040D19",
"%  c #080F18",
"&  c #071017",
"*  c #06131B",
"=  c #0C141D",
"-  c #0C1B1E",
";  c #001E1C",
":  c #121E1C",
">  c #1A2E1C",
",  c #152615",
"<  c #1C301D",
"1  c #010622",
"2  c #0C1423",
"3  c #081A28",
"4  c #081922",
"5  c #121D2C",
"6  c #0E2426",
"7  c #0F2927",
"8  c #0F2928",
"9  c #122625",
"0  c #142825",
"q  c #192D24",
"w  c #102728",
"e  c #1C242A",
"r  c #122B2A",
"t  c #182B2E",
"y  c #1F3525",
"u  c #17302F",
"i  c #1C322C",
"p  c #162334",
"a  c #1A2D3F",
"s  c #192A35",
"d  c #1C3534",
"f  c #1D333C",
"g  c #1A363B",
"h  c #213928",
"j  c #2B332D",
"k  c #203837",
"l  c #21393A",
"z  c #2D3D3E",
"x  c #262935",
"c  c #6D121F",
"v  c #1E5234",
"b  c #27442D",
"n  c #28452E",
"m  c #2E502F",
"M  c #22403D",
"N  c #2F5232",
"B  c #355B37",
"V  c #365F38",
"C  c #396439",
"Z  c #3E6D3F",
"A  c #40703F",
"S  c #51793B",
"D  c #627F34",
"F  c #1B2F43",
"G  c #1C3647",
"H  c #243B44",
"J  c #263D4A",
"K  c #283E4F",
"L  c #283F51",
"P  c #2B4443",
"I  c #28404F",
"U  c #274143",
"Y  c #39474A",
"T  c #294252",
"R  c #234558",
"E  c #2D4A5C",
"W  c #274556",
"Q  c #344959",
"!  c #3D5555",
"~  c #3F6F40",
"^  c #3B7346",
"/  c #2D4B62",
"(  c #254A61",
")  c #304D60",
"_  c #2F556C",
"`  c #2F5467",
"'  c #33556A",
"]  c #335569",
"[  c #2D5479",
"{  c #365D73",
"}  c #385F77",
"|  c #386077",
" . c #39627A",
".. c #485F5E",
"X. c #406F40",
"o. c #417141",
"O. c #477D46",
"+. c #497F47",
"@. c #4B6457",
"#. c #56625E",
"$. c #4A6361",
"%. c #57716F",
"&. c #526B78",
"*. c #63746D",
"=. c #667A71",
"-. c #BE0009",
";. c #80320B",
":. c #FF4B00",
">. c #498047",
",. c #6C8479",
"<. c #939225",
"1. c #E7AE05",
"2. c #3E6A84",
"3. c #3F6C8A",
"4. c #3C6681",
"5. c #3874A0",
"6. c #3F7DAC",
"7. c #416E8F",
"8. c #43718D",
"9. c #437193",
"0. c #467A98",
"q. c #4B7DA3",
"w. c #4175A4",
"e. c #7B9183",
"r. c #7D948D",
"t. c #4F84AD",
"y. c #5084AE",
"u. c #4985B4",
"i. c #4C87B8",
"p. c #5187B7",
"a. c #538ABC",
"s. c #5990BF",
"d. c #558DC1",
"f. c #5A93C4",
"g. c #5D98CA",
"h. c #5B95C8",
"j. c #6B9EC2",
"k. c #66A5CE",
"l. c #6BA7CE",
"z. c #65A2D1",
"x. c #69A5D0",
"c. c #7FACD4",
"v. c #79BADC",
"b. c #7BC2E2",
"n. c #809789",
"m. c #A3BAA7",
"M. c #AFADB4",
"N. c #B9BFBC",
"B. c #98B5CE",
"V. c #86B1D8",
"C. c #B7BFC4",
"Z. c #C6BDC7",
"A. c #BAC4C1",
"S. c #84C3E2",
"D. c #9BDBEE",
"F. c #96D4EA",
"G. c #B2D1EA",
"H. c #A6C9E3",
"J. c #B8E1F0",
"K. c #B7E6F3",
"L. c #D5DBDD",
"P. c #C4DAEF",
"I. c #CBEFF7",
"U. c #E3E6E4",
"Y. c #E7F8FB",
"T. c #E5F3F6",
"R. c white",
"E. c #F4F6F8",
/* pixels */
"o.o.Z o.Z O.o.q . . O O . O . O V m . -.:.1.D ~ ",
"X.~ o.+.m > < - 4 5 p w = * z #.h j #.c ;.<.S o.",
"o.o.o.C e # O Q &.) E G r ..r.e.x K e.3 ; ^ ^ ~ ",
"o.>.C X p ' ( C.L. .R s 8 A.M.= =.*.@   y O.o.~ ",
"o.m 0 p [ 6.5.V.B. ._ G w U.Z.  j Y e 9 - h C o.",
"o., # 4.j.V.c.z.u.3.2.R 6 N.N.e X s $.l O . V o.",
"O., 1 w.G.E.E.J.v.s.9.W 6 ,.m.n.@.! ..d + O V o.",
"q t ( u.P.R.R.I.b.g.9.` W P @.,.%.! U u 4 - 0 q ",
". F 0.i.H.Y.T.K.b.f.3.| 4.g 7 U Y P u r r 8 O . ",
". a 8.i.V.D.F.D.S.f.3.{ | / g 8 w w 7 8 r 6 + . ",
"O a 8.f.z.k.k.l.l.g.9.{ } ) J g d u d r 8 6 + O ",
". F 3.t.a.d.d.d.a.t.3.|  .E L W H l d r 8 6 + O ",
"O G 4.{ 0.f.s.f.u. .{  .} / K K l l d r w 6 + O ",
". p ' } 7.7.7.9.7. . .| E T J l l l l t w 6 + O ",
". 5 E ] { { { { { ] ' ) J L J k l l d t r 6 O . ",
"O p T J ]  .|  .' I J K L T J k l l d r w 6 + O ",
"N q 2 f I Q E / E J T I T H l d l d r r * % b N ",
"O.q   k U H H H H J J J J l k l d t 7 r $ O C O.",
"A h O s l d k k k k l d d d k k t 6 7 8 % @ B ~ ",
"A A b O = d l l l l l d l d r r r u 8 O - V Z ~ ",
"A +.A h * * = t d d d d d r 7 w * $ % : N >.o.o.",
"A A o.>.h X O - w 6 6 6 6 6 6 9 * X @ V >.~ o.o.",
"o.X.o.o.C V C 9 O + + O + + + + b C B Z o.~ ~ o.",
"A o.A o.A o.o.q . . O O O O . O N O.o.o.o.o.~ o."
};
