/* XPM */
static char *set_bomb_2_24x24[] = {
/* columns rows colors chars-per-pixel */
"24 24 137 2 ",
"   c #010205",
".  c #01010D",
"X  c #020412",
"o  c #050B14",
"O  c #090E15",
"+  c #00061F",
"@  c #030D1B",
"#  c #05121A",
"$  c #09121F",
"%  c #011918",
"&  c #0B1A1D",
"*  c #12191F",
"=  c #1B1F1C",
"-  c #0E2619",
";  c #13261F",
":  c #15291F",
">  c #0D1622",
",  c #0A1C21",
"<  c #1A1B2A",
"1  c #0D2525",
"2  c #012D20",
"3  c #0D2A26",
"4  c #0D252A",
"5  c #0F2B28",
"6  c #142D21",
"7  c #122D2B",
"8  c #1E282D",
"9  c #173322",
"0  c #183322",
"q  c #163A22",
"w  c #183C23",
"e  c #15322E",
"r  c #0E2A34",
"t  c #172E32",
"y  c #173531",
"u  c #193332",
"i  c #1F3A37",
"p  c #1E363C",
"a  c #1E3E3A",
"s  c #213B3B",
"d  c #2C3A3F",
"f  c #323A3F",
"g  c #580604",
"h  c #70000A",
"j  c #184227",
"k  c #194825",
"l  c #184628",
"z  c #194B29",
"x  c #195C2D",
"c  c #135E33",
"v  c #214039",
"b  c #2A4F3B",
"n  c #2C513F",
"m  c #18662F",
"M  c #176B2F",
"N  c #186A38",
"B  c #137630",
"V  c #107830",
"C  c #197834",
"Z  c #1B703B",
"A  c #1F3745",
"S  c #253D45",
"D  c #263D49",
"F  c #2B4744",
"G  c #254349",
"H  c #2A414D",
"J  c #3B4446",
"K  c #33464D",
"L  c #314B49",
"P  c #395A4F",
"I  c #214052",
"U  c #2A4254",
"Y  c #374F54",
"T  c #3B5353",
"R  c #2A4D60",
"E  c #344F62",
"W  c #315367",
"Q  c #34566B",
"!  c #365A71",
"~  c #385F77",
"^  c #365F7B",
"/  c #43514C",
"(  c #4E4759",
")  c #495756",
"_  c #425C5B",
"`  c #53515E",
"'  c #60404A",
"]  c #46635F",
"[  c #4D635C",
"{  c #4B636A",
"}  c #566461",
"|  c #576969",
" . c #517462",
".. c #5F7E74",
"X. c #5E727D",
"o. c #657574",
"O. c #687570",
"+. c #72777A",
"@. c #FF1905",
"#. c #926516",
"$. c #8B701B",
"%. c #7F922D",
"&. c #678935",
"*. c #6B8577",
"=. c #6A827E",
"-. c #9E9D1E",
";. c #A9A11A",
":. c #978322",
">. c #FF8801",
",. c #FF9200",
"<. c #3973A0",
"1. c #426A81",
"2. c #437597",
"3. c #5A7C95",
"4. c #667986",
"5. c #6A7983",
"6. c #4E80A7",
"7. c #4E82AB",
"8. c #4887BE",
"9. c #7597B2",
"0. c #4A8CC7",
"q. c #5993C4",
"w. c #5E9ACE",
"e. c #829B8D",
"r. c #8A9993",
"t. c #8DA695",
"y. c #96AE9C",
"u. c #A6AEAE",
"i. c #A5B2B5",
"p. c #AAB1B7",
"a. c #A9C9E4",
"s. c #BBDAF6",
"d. c #CAD4DC",
"f. c #E1E7E3",
"g. c #EAECEC",
"h. c #F4F2F1",
"j. c white",
/* pixels */
"V V V V V V V V V V V V V B B V V V V V V V V V ",
"V V V V V V V V V V V V V B V V C &.-.C Z V V V ",
"V V V V V V V V V V B B V V B V N $.,.:.V V V V ",
"V V V V V V V V V O o o X   q V 2 g @.>.;.B V V ",
"V V V V V V z l 6 @ o @ > ) / - P ' h #.%.V V V ",
"V V V V V m X   o 5 1 b =.e.} < O.[ . m C V V V ",
"V V V V z X 1 5 7 i % | g.` 8 e.f   X M V V V V ",
"V V V V 9   1 r.u.H o o.j.(   J d > . B V V V V ",
"V V B B 6 @ 4 i.d.E % [ f.+.; o T K o x V V V V ",
"V V B O > s A Q 1.~ r F t.y.*.T _ L 1 X q V V V ",
"V V B . @ { p.9.<.7.^ G n  .o.{ F u 1 . 6 V V V ",
"V V B o + 4.j.s.0.w.2.W 1 u L L e 1 1 X 9 V V V ",
"V V B . + X.h.a.8.q.2.Q I t 1 5 5 7 1 X 9 V V V ",
"V V V o > Y 5.3.2.2.! U U s e t 7 5 1 X 9 V V V ",
"V V B . > a r I Q W U D S s s s u 5 5 . : V V V ",
"V V B o > v s D D H U S s s s s 7 7 1 X 0 V V V ",
"V V V B 6 > s s s s s s i s i 7 7 > @ x V V V V ",
"V V V V 0   e s s i s s s i e 3 e @   B B V V V ",
"V V V V l X 1 u s s i s i 7 3 1 7 $ o B V V V V ",
"V V V V V x X . @ e y e e e , X   & V V V V V V ",
"V V V V V V j w ; @ @ o # # & 9 0 M V V V V V V ",
"V V V V V V V V B o . o o . 9 V V V V V V V V V ",
"V V V V V V V V V B B B B B V V V V V V V V V V ",
"V V V V V V V V V V V V V B V V V V V V V V V V "
};
