/* XPM */
static char *set_bomb_1_24x24[] = {
/* columns rows colors chars-per-pixel */
"24 24 158 2 ",
"   c #010103",
".  c #00010B",
"X  c #030B0F",
"o  c #010213",
"O  c #040A15",
"+  c #090F16",
"@  c #04041A",
"#  c #030C19",
"$  c #0B0B1A",
"%  c #091217",
"&  c #091119",
"*  c #0C1A1A",
"=  c #08221F",
"-  c #112212",
";  c #14331C",
":  c #222816",
">  c #272615",
",  c #010428",
"<  c #080E2B",
"1  c #070C28",
"2  c #0D1E24",
"3  c #151924",
"4  c #2B1828",
"5  c #211423",
"6  c #0C2424",
"7  c #0F2827",
"8  c #132920",
"9  c #15252D",
"0  c #122C2A",
"q  c #063124",
"w  c #153223",
"e  c #173B22",
"r  c #1A3824",
"t  c #15322E",
"y  c #172732",
"u  c #192F33",
"i  c #132A38",
"p  c #173531",
"a  c #1B3432",
"s  c #1F3A36",
"d  c #173439",
"f  c #1A333C",
"g  c #222D34",
"h  c #203C37",
"j  c #20353E",
"k  c #213A3A",
"l  c #2D3A3A",
"z  c #174226",
"x  c #184325",
"c  c #194E27",
"v  c #194628",
"b  c #194D2A",
"n  c #1A512A",
"m  c #1D4036",
"M  c #17692F",
"N  c #166F30",
"B  c #186733",
"V  c #137630",
"C  c #1C7734",
"Z  c #107830",
"A  c #1C7832",
"S  c #227A33",
"D  c #367A34",
"F  c #162A40",
"G  c #1A2F4F",
"H  c #1F3641",
"J  c #253D45",
"K  c #263D4B",
"L  c #283C4F",
"P  c #213545",
"I  c #253D50",
"U  c #283F51",
"Y  c #1F4252",
"T  c #2D4046",
"R  c #344F4C",
"E  c #3C4743",
"W  c #294152",
"Q  c #2A465A",
"!  c #2B4C5B",
"~  c #234151",
"^  c #395150",
"/  c #3E5859",
"(  c #3A614E",
")  c #254067",
"_  c #2C4D62",
"`  c #2A4C6D",
"'  c #304B60",
"]  c #2F5063",
"[  c #315266",
"{  c #32556B",
"}  c #37596E",
"|  c #375E74",
" . c #385F77",
".. c #3A627B",
"X. c #434F4E",
"o. c #495D5C",
"O. c #555F5F",
"+. c #44605C",
"@. c #5B6B61",
"#. c #566561",
"$. c #4F7364",
"%. c #55746D",
"&. c #A30010",
"*. c #DB4202",
"=. c #E44A04",
"-. c #F47508",
";. c #698D75",
":. c #9E941E",
">. c #B79417",
",. c #D7AB0C",
"<. c #E5A206",
"1. c #3C6781",
"2. c #3E6B8B",
"3. c #376B8C",
"4. c #3F6D90",
"5. c #406E8F",
"6. c #426F91",
"7. c #437296",
"8. c #43769B",
"9. c #447AAB",
"0. c #7C8487",
"q. c #7C9988",
"w. c #4D80A7",
"e. c #4F82AA",
"r. c #5486AE",
"t. c #4C86B9",
"y. c #578FBF",
"u. c #5A94C6",
"i. c #5797CB",
"p. c #5E95C8",
"a. c #5E99CB",
"s. c #5EA1C8",
"d. c #6BADD5",
"f. c #76BCDF",
"g. c #75B0D4",
"h. c #7BC2E4",
"j. c #829689",
"k. c #8C9C9A",
"l. c #95A59A",
"z. c #98A4A3",
"x. c #B9B4BC",
"c. c #B4C2B6",
"v. c #86A3C1",
"b. c #83C6E6",
"n. c #98CEEF",
"m. c #91C3E1",
"M. c #BBD8EE",
"N. c #BED3E5",
"B. c #AAE3F2",
"V. c #BDE6F2",
"C. c #D6DBD9",
"A. c #C2D6E9",
"S. c #C6DFF3",
"D. c #C0ECF6",
"F. c #CCE8FC",
"G. c #C9F0F7",
"H. c #FFFEFD",
"J. c #E5E9E7",
/* pixels */
"Z Z Z Z Z Z Z V V V Z Z Z Z Z Z Z C C <.>.C Z Z ",
"Z Z Z Z Z Z Z V x z e x v z ; w V B : =.-.:.A Z ",
"Z Z Z Z Z V Z * . o @ o o o $ 3 N M 3 &.*.,.D Z ",
"Z Z Z Z n   X o 6 H I f 6 u $.q.3 l j.4 > A V Z ",
"Z Z Z n y i i 0.z.| Q d 0 k.z.X.O.O.E # q C Z Z ",
"Z Z V   G 8.3.N.N..._ i 0 J.x.  @.#..   b V Z Z ",
"Z Z V   ) i.t.p.r. ...Y 0 C.x.    g ^ @ e V Z Z ",
"Z M 9 ` v.F.A.m.s.9.5.~ = l.c.@.l T +.9 & b Z Z ",
"V - , t.F.H.H.G.b.a.7.! f ( ;.q.%./ R p o X V Z ",
"Z ; 1 9.M.H.H.V.f.u.2.} ..d m / o.R s t O O Z Z ",
"Z ; < t.n.V.V.B.b.a.5...1.~ t a h a 0 0 # O Z Z ",
"Z ; 1 8.d.h.f.b.g.r.2.} { ' f 6 = 6 7 t # O Z Z ",
"Z e @ [ r.u.y.u.w.....{ W W P 0 0 0 6 0 O O Z Z ",
"Z e o I ..7.2.6.2...[ W W W J a a t 0 0 # O V Z ",
"Z e o H ! [ [ [ [ { Q K J K P h k s 7 t O o V Z ",
"Z b o u J W K K K K W J h h h h h a 7 0 # + Z Z ",
"Z Z M % 9 T s s k k P k h s k k u 0 7 O w V Z Z ",
"Z V V . O s k s h a h h h k k p 0 0 7 . e V Z Z ",
"Z Z Z % # 0 f s k k h h h k p 6 8 7 2 o b Z Z Z ",
"Z Z Z Z ; . o 6 p p 0 t 0 p t 0 O . o M Z Z Z Z ",
"Z Z Z Z N z v * O O O O O O # # w c n Z Z Z Z Z ",
"Z Z Z Z Z V V b X O O O O O O O Z Z Z Z Z Z Z Z ",
"Z Z Z Z Z Z Z Z V V Z V V Z Z Z Z Z Z Z Z Z Z Z ",
"Z Z Z Z Z Z Z Z Z Z Z Z Z Z Z Z Z Z Z Z Z Z Z Z "
};
