/* XPM */
static char *set_bomb_2_24x24[] = {
/* columns rows colors chars-per-pixel */
"24 24 148 2 ",
"   c #010205",
".  c #01010D",
"X  c #020412",
"o  c #050B14",
"O  c #090E15",
"+  c #00061F",
"@  c #030D1B",
"#  c #05121A",
"$  c #09121F",
"%  c #011918",
"&  c #0B191D",
"*  c #12191F",
"=  c #1B1F1C",
"-  c #00261F",
";  c #0E2118",
":  c #14221E",
">  c #17281F",
",  c #192A1E",
"<  c #0D1622",
"1  c #0A1C21",
"2  c #1A1B2A",
"3  c #0D2425",
"4  c #0F2827",
"5  c #0D252A",
"6  c #0F2928",
"7  c #162621",
"8  c #172D20",
"9  c #192A21",
"0  c #132C2B",
"q  c #1E282D",
"w  c #1D3224",
"e  c #15302F",
"r  c #0E2A34",
"t  c #172E32",
"y  c #173331",
"u  c #1D3535",
"i  c #1F3837",
"p  c #1F3C3A",
"a  c #1E363C",
"s  c #233D29",
"d  c #203837",
"f  c #223A3A",
"g  c #2C3A3F",
"h  c #323A3F",
"j  c #580604",
"k  c #70000A",
"l  c #154935",
"z  c #27432D",
"x  c #29472E",
"c  c #30463E",
"v  c #205C3F",
"b  c #2E5334",
"n  c #325634",
"m  c #345B36",
"M  c #355D38",
"N  c #376039",
"B  c #39633A",
"V  c #3E6D3E",
"C  c #43743F",
"Z  c #4F783B",
"A  c #1F3745",
"S  c #263D49",
"D  c #253D45",
"F  c #2C4545",
"G  c #2A414D",
"H  c #254349",
"J  c #314A42",
"K  c #314A4A",
"L  c #37454A",
"P  c #214052",
"I  c #2A4254",
"U  c #374F54",
"Y  c #3C5453",
"T  c #3E6F41",
"R  c #366D43",
"E  c #3D7244",
"W  c #3C784A",
"Q  c #296748",
"!  c #2A4D60",
"~  c #344F62",
"^  c #315367",
"/  c #34566B",
"(  c #365A71",
")  c #385F77",
"_  c #365F7B",
"`  c #43514C",
"'  c #4E4759",
"]  c #495756",
"[  c #435B5C",
"{  c #53515E",
"}  c #60404A",
"|  c #406F40",
" . c #417140",
".. c #467B45",
"X. c #497F46",
"o. c #4E635E",
"O. c #50625E",
"+. c #486261",
"@. c #4B636A",
"#. c #566461",
"$. c #576969",
"%. c #5A7369",
"&. c #5E727D",
"*. c #687570",
"=. c #657E7A",
"-. c #657574",
";. c #72777A",
":. c #FF1905",
">. c #926516",
",. c #8B701B",
"<. c #7F922D",
"1. c #6E8A35",
"2. c #498047",
"3. c #4C8549",
"4. c #6E857A",
"5. c #9E9D1E",
"6. c #A9A11A",
"7. c #978322",
"8. c #FF8801",
"9. c #FF9200",
"0. c #3973A0",
"q. c #426A81",
"w. c #437597",
"e. c #5A7C95",
"r. c #667986",
"t. c #6A7983",
"y. c #6C8280",
"u. c #4E80A7",
"i. c #4E82AB",
"p. c #4887BE",
"a. c #7597B2",
"s. c #4A8CC7",
"d. c #5E9ACE",
"f. c #5993C4",
"g. c #859C8D",
"h. c #879A92",
"j. c #90A797",
"k. c #98AF9D",
"l. c #A6AEAE",
"z. c #AAB1B7",
"x. c #A5B2B5",
"c. c #A9C9E4",
"v. c #BBDAF6",
"b. c #CAD4DC",
"n. c #E1E7E3",
"m. c #EAECEC",
"M. c white",
"N. c #F4F2F1",
/* pixels */
" .T C T | | | C | | C C V | | | V V V V C V C V ",
"|  .T C T C | T  ............. .W 1.5.2.Q C E C ",
"| | C T |  . . .V M M M M n M  .v ,.9.7.C V E V ",
"| | | | |  ...3.M O o X X   , ..3 j :.8.6.V R V ",
"| |  .T X.V s , ; # o @ < ] ` ; Y } k >.<.T T | ",
"C  . . .V z X . @ 6 3 c y.g.#.2 *.O.. l W |  . .",
"T T  ...w o 1 4 0 i % $.m.{ q g.h   X b .. . .E ",
"V C  .3.>   4 h.l.G o -.M.'   L g * X n 3.|  . .",
"C  .V M 7 @ 5 x.b.~ # o.n.;.= X Y L o s V T  . .",
"C ..M o < f A / q.) r c j.k.4.Y [ K 1 X 9  . . .",
"T ..m . @ @.z.a.0.i._ H J %.=.+.F y 6 . 7 .. . .",
"| ..m o + r.M.v.s.d.u.! 5 u K K 0 3 3 X 9  . . .",
"| ..m X + &.N.c.p.f.w./ S t 3 6 0 6 6 X 9  .| C ",
" ...M o < U t.e.w.w.( I I A 0 t 0 6 6 X 9  . .T ",
"C ..n . < f r A / ^ I S S f f f q 6 4 X 9  ...C ",
"V ..M o < f p S I G I S f d f f 0 4 5 o 9  . . .",
" . .V n 7 $ i f f f D f d f d 0 0 < o s B  . . .",
" .V  .3., . t z f d i d d i 0 6 0 @ . n 3. .|  .",
" . . ...q X 5 y d d d d d 0 3 6 0 # o b ..|  .| ",
" . . . .V s X X $ 0 y e t 0 1 X . & n C  . .|  .",
" .| C T 2.V w , : @ # @ # # $ 9 > x X. . . .|  .",
"C | T  .V  ...2.m o . o o . 9 .... .| T  .| T C ",
"T C V  . . .C  .V n n n n n M  ...| T C C T | | ",
"| T  .|  .V C E  .| | V C C | | | | C T T C  .| "
};
