/* XPM */
static char *set_bomb_1_24x24[] = {
/* columns rows colors chars-per-pixel */
"24 24 161 2 ",
"   c #010103",
".  c #00010B",
"X  c #030B0F",
"o  c #010213",
"O  c #040A15",
"+  c #090F16",
"@  c #04041A",
"#  c #030C19",
"$  c #0B0B1A",
"%  c #091217",
"&  c #091119",
"*  c #0C1A1A",
"=  c #111E11",
"-  c #08201F",
";  c #162716",
":  c #15281A",
">  c #192C1E",
",  c #13221F",
"<  c #222816",
"1  c #272615",
"2  c #010428",
"3  c #080E2B",
"4  c #070C28",
"5  c #0D1E24",
"6  c #151924",
"7  c #2B1828",
"8  c #211423",
"9  c #0D2525",
"0  c #052923",
"q  c #162721",
"w  c #1A2E21",
"e  c #15252D",
"r  c #122C2B",
"t  c #1D3324",
"y  c #15312E",
"u  c #172732",
"i  c #1A2F32",
"p  c #132A38",
"a  c #1D3534",
"s  c #1D3B36",
"d  c #1A333C",
"f  c #173435",
"g  c #203625",
"h  c #222D34",
"j  c #203633",
"k  c #203837",
"l  c #20353E",
"z  c #21393A",
"x  c #2D3A3A",
"c  c #1B4832",
"v  c #27452D",
"b  c #284728",
"n  c #2D4D31",
"m  c #2F5133",
"M  c #235F3A",
"N  c #355D36",
"B  c #365E38",
"V  c #39643A",
"C  c #3E6D3F",
"Z  c #4F753B",
"A  c #50773A",
"S  c #597D3A",
"D  c #162A40",
"F  c #1A2F4F",
"G  c #1F3641",
"H  c #253D45",
"J  c #263D4B",
"K  c #283C4F",
"L  c #213545",
"P  c #283F51",
"I  c #253D50",
"U  c #1F4252",
"Y  c #2D4046",
"T  c #374B49",
"R  c #294152",
"E  c #2A465A",
"W  c #2B4C5B",
"Q  c #234151",
"!  c #3A5051",
"~  c #3F5859",
"^  c #3E6F41",
"/  c #326C45",
"(  c #387549",
")  c #3F7142",
"_  c #254067",
"`  c #2C4D62",
"'  c #2A4C6D",
"]  c #304B60",
"[  c #2F5063",
"{  c #315266",
"}  c #32556B",
"|  c #37596E",
" . c #375E74",
".. c #385F77",
"X. c #3A627B",
"o. c #434F4E",
"O. c #455E5D",
"+. c #495C59",
"@. c #555F5F",
"#. c #406F40",
"$. c #407140",
"%. c #467B45",
"&. c #487F46",
"*. c #5B6B61",
"=. c #566561",
"-. c #58726B",
";. c #597471",
":. c #A30010",
">. c #DB4202",
",. c #E44A04",
"<. c #F47508",
"1. c #498046",
"2. c #4C8549",
"3. c #75907E",
"4. c #9E941E",
"5. c #B79417",
"6. c #D7AB0C",
"7. c #E5A206",
"8. c #3E6B8B",
"9. c #3A6987",
"0. c #3F6D90",
"q. c #406E8F",
"w. c #426F91",
"e. c #437296",
"r. c #43769B",
"t. c #447AAB",
"y. c #7C8487",
"u. c #4D80A7",
"i. c #4F82AA",
"p. c #5486AE",
"a. c #4C86B9",
"s. c #578FBF",
"d. c #5A94C6",
"f. c #5797CB",
"g. c #5E99CB",
"h. c #5E95C8",
"j. c #5EA1C8",
"k. c #6BADD5",
"l. c #76BCDF",
"z. c #75B0D4",
"x. c #7BC2E4",
"c. c #819689",
"v. c #889E96",
"b. c #95A59A",
"n. c #98A4A3",
"m. c #B9B4BC",
"M. c #B4C2B6",
"N. c #86A3C1",
"B. c #83C6E6",
"V. c #98CEEF",
"C. c #91C3E1",
"Z. c #BDD6EA",
"A. c #AAE3F2",
"S. c #BDE6F2",
"D. c #D6DBD9",
"F. c #C9DAEA",
"G. c #C6DFF3",
"H. c #C6EAF9",
"J. c #C9F0F7",
"K. c #FFFEFD",
"L. c #E5E9E7",
/* pixels */
"$.$.^ Z #.#.#.#.#.#.#.#.$.#.$.#.^ / Z 7.5./ #.#.",
"$.#.^ ^ #.%.&.n w t w w t w : : Z M ; ,.<.4.A #.",
"$.$.^ ^ Z N B = . o @ o o o $ 6 m c 6 :.>.6.S #.",
"$.$.$.1.g   . = 6 L P d 9 i ;.c.6 x c.7 1 S #.#.",
"$.$.V t u D p e.n. .E f r v.n.o.@.@.T O 0 ( $.$.",
"$.1.N   F r.9.Z.F.X.` f r L.m.  *.=..   t 1.$.$.",
"$.1.B   _ f.a.d.p.X.X.U r D.m.    h ! @ w 1.$.$.",
"$.b r ' N.H.F.C.j.t.q.U - b.m.*.x Y O.r & t V #.",
"^ = 2 a.H.K.K.J.B.h.e.W d +.3.y.;.~ T s o . N #.",
"#.; 4 t.Z.K.K.S.x.s.8.| X.f c O.O.T s y O O B $.",
"$.; 3 a.V.H.S.A.B.g.q.X.9.Q f a z a r r # O B $.",
"$.; 4 e.k.x.l.B.z.p.9. .} ] G - - 9 9 r # O B #.",
"$.> @ } u.d.s.d.i.X.X.} R R l 9 9 9 r r # O N ^ ",
"#.> o I X.e.q.e.8.X.{ R R R H a a f 9 r # # B ^ ",
"#.w o d W { [ [ { } E H H H H z z a 9 r # o N ^ ",
"#.g o i H R R K J K R J k j z z k a 9 r # + N Z ",
"#.C v + e H z z l k H k z a k k i r 9 O q B #.#.",
"#.1.V . # s z k k k k z k k k f r r 9 . w 2.$.#.",
"$.%.B + # r a k k k k a k k a 9 9 9 9 O g %.$.$.",
"#.$.^ V q . o 5 f y y y y y r r O . o v ^ $.$.$.",
"$.$.$.1.n t t % O O O O O O # # q g t C &.^ #.$.",
"$.$.$.$.$.&.&.t O O O O O O O % B 2.%.$.#.#.$.#.",
"$.$.$.$.$.$.$.V B B N N B B B B C $.$.$.#.$.$.#.",
"$.$.$.$.$.$.$.$.$.^ ^ ^ ^ Z $.^ $.$.#.$.$.$.#.$."
};
