/* XPM */
static char *set_bomb_0_24x24[] = {
/* columns rows colors chars-per-pixel */
"24 24 167 2 ",
"   c #000004",
".  c #00010C",
"X  c #060A0C",
"o  c #0B000D",
"O  c #010312",
"+  c #040913",
"@  c #0A0D15",
"#  c #000019",
"$  c #040D19",
"%  c #080F18",
"&  c #071017",
"*  c #06131B",
"=  c #0C141D",
"-  c #0B1A1D",
";  c #00201C",
":  c #0F201F",
">  c #13271B",
",  c #153418",
"<  c #010622",
"1  c #0C1423",
"2  c #081A28",
"3  c #081922",
"4  c #121D2C",
"5  c #0E2426",
"6  c #0F2926",
"7  c #0F2B28",
"8  c #102727",
"9  c #122B27",
"0  c #1C242A",
"q  c #122C2A",
"w  c #182B2E",
"e  c #153224",
"r  c #173B26",
"t  c #14312D",
"y  c #18332F",
"u  c #183828",
"i  c #162334",
"p  c #1A2D3F",
"a  c #192A35",
"s  c #1B3533",
"d  c #1E3A36",
"f  c #1D333C",
"g  c #15333F",
"h  c #2B332D",
"j  c #213B3A",
"k  c #2C3E3E",
"l  c #262935",
"z  c #6D121F",
"x  c #18401F",
"c  c #174227",
"v  c #194223",
"b  c #1A4D29",
"n  c #1B452A",
"m  c #19562C",
"M  c #1D4A32",
"N  c #21423D",
"B  c #18672F",
"V  c #17692F",
"C  c #137530",
"Z  c #107830",
"A  c #1B7738",
"S  c #1C7832",
"D  c #4D7D33",
"F  c #1B2F43",
"G  c #1A3947",
"H  c #1D3246",
"J  c #243B44",
"K  c #263D4A",
"L  c #283E4F",
"P  c #283F51",
"I  c #2B4443",
"U  c #28404F",
"Y  c #284543",
"T  c #3A4046",
"R  c #394C4C",
"E  c #294252",
"W  c #234558",
"Q  c #2D4A5C",
"!  c #274556",
"~  c #304D5E",
"^  c #374454",
"/  c #3E5856",
"(  c #395251",
")  c #2D4B62",
"_  c #254A61",
"`  c #304D60",
"'  c #2F5467",
"]  c #2F556C",
"[  c #33556A",
"{  c #335569",
"}  c #2D5479",
"|  c #365D73",
" . c #385F77",
".. c #386077",
"X. c #39627A",
"o. c #406850",
"O. c #46625E",
"+. c #48655C",
"@. c #58615D",
"#. c #53625E",
"$. c #53716C",
"%. c #526B78",
"&. c #63746D",
"*. c #657A70",
"=. c #BE0009",
"-. c #80320B",
";. c #FF4B00",
":. c #668374",
">. c #758F7F",
",. c #939225",
"<. c #E7AE05",
"1. c #3E6A84",
"2. c #3F6C8A",
"3. c #3C6681",
"4. c #3874A0",
"5. c #3F7DAC",
"6. c #416E8F",
"7. c #43718D",
"8. c #437193",
"9. c #467A98",
"0. c #4B7DA3",
"q. c #4175A4",
"w. c #7B9485",
"e. c #7A938B",
"r. c #4F84AD",
"t. c #5084AE",
"y. c #4985B4",
"u. c #4C87B8",
"i. c #5187B7",
"p. c #538ABC",
"a. c #5990BF",
"s. c #558DC1",
"d. c #5A93C4",
"f. c #5D98CA",
"g. c #5B95C8",
"h. c #6B9EC2",
"j. c #66A5CE",
"k. c #6BA7CE",
"l. c #65A2D1",
"z. c #69A5D0",
"x. c #7FACD4",
"c. c #79BADC",
"v. c #7BC2E2",
"b. c #A1B9A6",
"n. c #AFADB4",
"m. c #B6BFBA",
"M. c #BCBFBE",
"N. c #98B5CE",
"B. c #86B1D8",
"V. c #B7BFC4",
"C. c #C6BDC7",
"Z. c #BAC4C1",
"A. c #84C3E2",
"S. c #9BDBEE",
"D. c #96D4EA",
"F. c #A6C9E3",
"G. c #B2D1EA",
"H. c #B7E6F3",
"J. c #B8E1F0",
"K. c #D5DBDD",
"L. c #C4DAEF",
"P. c #CBEFF7",
"I. c #E3E6E4",
"U. c #E7F8FB",
"Y. c #E5F3F6",
"T. c white",
"R. c #F4F6F8",
/* pixels */
"Z Z Z Z C Z Z r . O . O . O . O S V o =.;.<.D Z ",
"Z Z Z Z C v v - 3 4 i 4 = * k #.n M @.z -.,.S Z ",
"Z Z Z Z 9 O O ^ %.~ Q H q O.e.w.l L >.2 ; A Z Z ",
"Z Z Z X p ] _ V.K.X.W a 6 Z.n.= *.&.@   v Z Z Z ",
"Z C 9 i } 5.4.B.N.X.] G 5 I.C.  h T 0 8 - m Z Z ",
"Z > # 3.h.B.x.l.y.2.1.W 6 m.M.0 X a +.N + . Z Z ",
"Z , < q.G.R.R.J.c.a.8.! 9 :.b.w.+.( / d + O C Z ",
"r w ) y.L.T.T.P.v.f.8.' ! Y o.:.$./ I t 3 - e r ",
". F 9.u.F.U.Y.H.v.d.2...1.g 5 Y ( I t q t 6 O . ",
". p 6.i.c.S.D.S.A.d.2.| ..) f 7 8 8 8 8 q 5 O O ",
"O p 7.d.l.z.j.k.k.f.8.| ..` K f y t s q 7 5 O O ",
"O F 7.0.p.s.p.p.p.r.1.....Q P ! J j j t q 5 + O ",
". H 3. .0.g.a.g.y.X. .....Q L P j d d q 8 5 O O ",
"O i ' | 1.7.6.8.7.X.X. .Q ! L j j j d w q 8 O O ",
". 4 ~ { | | | ..[ [ [ ` K P K d d j d t t 5 O . ",
". i E K { ....X.[ E K U P E J j d j d w 6 5 + O ",
"C u 1 p U ~ ~ Q Q P P E E J d j j d q t * $ B C ",
"Z r   j I J J J J J J K K j d j s w 6 t $ O Z Z ",
"Z m O w d d j s d d d d d d d d q 6 6 8 $ @ C Z ",
"Z Z B + * d j j j j j j j s 8 w q t 7 O : Z Z Z ",
"Z Z Z b * & 1 w s s s s s t 6 6 = $ @ : C C Z Z ",
"Z Z Z Z m X + - 5 5 5 5 5 5 8 8 & X @ Z C Z Z Z ",
"Z Z Z Z Z Z Z e + + O + O + + + V Z Z Z Z Z Z Z ",
"Z Z Z Z Z Z Z r . O O O O O . . C Z Z Z Z Z Z Z "
};
