/* XPM */
static char *bomberman_white_down_0_24x24[] = {
/* columns rows colors chars-per-pixel */
"24 24 15 1 ",
"  c #000001",
". c #000058",
"X c #606060",
"o c #D03800",
"O c #A08850",
"+ c #0000F8",
"@ c #B80088",
"# c #F838C0",
"$ c #58A0F8",
"% c #A098A0",
"& c gray69",
"* c #F8B890",
"= c gray91",
"- c #F8F8F8",
"; c None",
/* pixels */
"           @@           ",
"          @#-@          ",
"        &=====&         ",
"      X&========&       ",
"     X&=======-==&      ",
"     X============      ",
"    X&============&     ",
"    X&=ooooooooo==&     ",
"    X&o** *** **o=&     ",
"    X&o** *** **o=&     ",
"    X&o** *** **o&X     ",
"     Xo** *** **oX      ",
"      XoooooooooX       ",
"     %% XXXXXXX %%      ",
"     %- ..++$-..%-      ",
"     @# .+++$$+ @#      ",
"     @@.  O*O  .@@      ",
"       %..+$$+.%        ",
"       %%..++.%-        ",
"       %-%   %%%        ",
"       @#@   @#@        ",
"       @#-   @#-        ",
"       @@@   @@@        ",
"                        "
} 
