/* XPM */
static char *white_dead_5[] = {
/* columns rows colors chars-per-pixel */
"24 24 113 2 ",
"   c black",
".  c #000100",
"X  c #020000",
"o  c #000201",
"O  c #010402",
"+  c #000206",
"@  c #06020A",
"#  c #00050B",
"$  c #00050C",
"%  c #00060C",
"&  c #0D0009",
"*  c #1A0700",
"=  c #031508",
"-  c #031A0A",
";  c #000C1C",
":  c #000C1F",
">  c #001016",
",  c #00141C",
"<  c #001A1F",
"1  c #2A0A00",
"2  c #360F00",
"3  c #3A1100",
"4  c #0A2311",
"5  c #052810",
"6  c #062A11",
"7  c #062B11",
"8  c #1A211D",
"9  c #073214",
"0  c #073615",
"q  c #073716",
"w  c #083917",
"e  c #001922",
"r  c #001B26",
"t  c #01142D",
"y  c #001133",
"u  c #03163C",
"i  c #350025",
"p  c #043324",
"a  c #002439",
"s  c #00253D",
"d  c #631C00",
"f  c #690027",
"g  c #0F4019",
"h  c #0E4B1E",
"j  c #0A4E1F",
"k  c #0B5020",
"l  c #0C5723",
"z  c #0C5823",
"x  c #0C5924",
"c  c #0C5D25",
"v  c #0D5F26",
"b  c #0D6328",
"n  c #0E6B2B",
"m  c #0F6F2C",
"M  c #0F712D",
"N  c #0F722E",
"B  c #10752F",
"V  c #0C6534",
"C  c #107830",
"Z  c #107935",
"A  c #00214B",
"S  c #003140",
"D  c #002261",
"F  c #10226F",
"G  c #003D7E",
"H  c #00485A",
"J  c #097158",
"K  c #0C526D",
"L  c #056072",
"P  c #046974",
"I  c #B73503",
"U  c #D63B00",
"Y  c #E64000",
"T  c #880041",
"R  c #910068",
"E  c #9B0570",
"W  c #09867C",
"Q  c #222B81",
"!  c #762BBC",
"~  c #005E94",
"^  c #006185",
"/  c #006A8A",
"(  c #006C97",
")  c #00619D",
"_  c #006B9F",
"`  c #007097",
"'  c #007098",
"]  c #0074B0",
"[  c #005FCD",
"{  c #0065DE",
"}  c #0064E4",
"|  c #006EE9",
" . c #0072E0",
".. c #0074E2",
"X. c #006FFF",
"o. c #0073F2",
"O. c #B80083",
"+. c #FD00A5",
"@. c #009BD1",
"#. c #009BD8",
"$. c #00A2DC",
"%. c #009FE0",
"&. c #0091EF",
"*. c #00A0E0",
"=. c #00A5E0",
"-. c #00A6E2",
";. c #00A7ED",
":. c #00A9E9",
">. c #00AAEF",
",. c #00A7FF",
"<. c #00AAFF",
"1. c #00B0F3",
"2. c #00C2FF",
/* pixels */
"C C C C C C C C C C C C C C C C C C C C C C C C ",
"C C C C C C C C C C C C C C C C C C C C C C C C ",
"C C C C C C C C C C C C C C C C C C C C C C C C ",
"C C C C C C C M v h 3 2 2 3 h v M C C C C C C C ",
"C C C C C C N g * 1 Y U U Y 1 * g N C C C C C C ",
"C C C C C B w d I $ # % % # $ I d w B C C C C C ",
"C C C C C 0 . X u o.$.*.*.$.o.u X . 0 C C C C C ",
"C C C C 9 O D ..@.;.#.> > #.;.@...D O 9 C C C C ",
"C C C = E f H 2.,.[ e b b e [ ,.2.H f E = C C C ",
"C C C   i Q G S s t c C C c t s S G Q i   C C C ",
"C C C j - ) L j j z C C C C z j j L ) - j C C C ",
"C C C C 7 ` J C C C C C C C C C C J ` 7 C C C C ",
"C C C C 5 ( P l C C C C C C C C l P ( 5 C C C C ",
"C C C C 5 ' ^ 5 C Z k C C k Z C 5 ^ ' 5 C C C C ",
"C C C C 6 ~ ] p V W y x x y W V p ] ~ 6 C C C C ",
"C C C b 8 F &./ < <.{ r r { <.< / &.F 8 b C C C ",
"C C C   O.T K _ a 1.-.>.>.-.1.a _ K T O.  C C C ",
"C C C o R +.! }  .=.%.*.*.%.=. .} ! +.R o C C C ",
"C C C N 4 & @ $ A X.| :.:.| X.A $ @ & 4 N C C C ",
"C C C C m 5     + : ; , , ; : +     5 m C C C C ",
"C C C C C n v q                 q v n C C C C C ",
"C C C C C C C C C C C C C C C C C C C C C C C C ",
"C C C C C C C C C C C C C C C C C C C C C C C C ",
"C C C C C C C C C C C C C C C C C C C C C C C C "
};
