/* XPM */
static char *white_dead_3[] = {
/* columns rows colors chars-per-pixel */
"24 24 175 2 ",
"   c black",
".  c #010000",
"X  c #000001",
"o  c #040000",
"O  c #010803",
"+  c #010904",
"@  c #010B04",
"#  c #020C05",
"$  c #00010A",
"%  c #1F0000",
"&  c #1A0008",
"*  c #001500",
"=  c #031308",
"-  c #03190A",
";  c #1E0015",
":  c #2F1700",
">  c #210017",
",  c #05220E",
"<  c #052710",
"1  c #052910",
"2  c #062B11",
"3  c #142118",
"4  c #063013",
"5  c #073114",
"6  c #073214",
"7  c #073415",
"8  c #073616",
"9  c #073716",
"0  c #073816",
"q  c #083917",
"w  c #083B18",
"e  c #083E19",
"r  c #0C3C1A",
"t  c #000E23",
"y  c #001022",
"u  c #001027",
"i  c #000636",
"p  c #000F3C",
"a  c #001536",
"s  c #301925",
"d  c #00203C",
"f  c #262727",
"g  c #2E2E2D",
"h  c #2D2E2F",
"j  c #402900",
"k  c #4B3B00",
"l  c #642E00",
"z  c #40002C",
"x  c #640035",
"c  c #09451B",
"v  c #09471C",
"b  c #0A4A1E",
"n  c #0A4F1F",
"m  c #0B5221",
"M  c #2D473A",
"N  c #0E6729",
"B  c #0E6C2B",
"V  c #0F6D2C",
"C  c #0F7B3C",
"Z  c #107830",
"A  c #644300",
"S  c #714900",
"D  c #706000",
"F  c #001D44",
"G  c #380B41",
"H  c #032F40",
"J  c #0E2B6E",
"K  c #640048",
"L  c #68004A",
"P  c #69004B",
"I  c #0D7F4F",
"U  c #424A4D",
"Y  c #475054",
"T  c #4B5558",
"R  c #684A5D",
"E  c #59604E",
"W  c #6F676D",
"Q  c #626D71",
"!  c gray45",
"~  c #B33905",
"^  c #D62900",
"/  c #D23400",
"(  c #967100",
")  c #E24000",
"_  c #EA4505",
"`  c #FF5812",
"'  c #E05727",
"]  c #E86D34",
"[  c #00D11B",
"{  c #00DC1B",
"}  c #00E01F",
"|  c #0C835E",
" . c #0B8669",
".. c #0A8A78",
"X. c #00A36A",
"o. c #00AE7C",
"O. c #03B173",
"+. c #00C368",
"@. c #FF9705",
"#. c #FEAB00",
"$. c #003C89",
"%. c #002DB8",
"&. c #0144A1",
"*. c #0049AE",
"=. c #004CAC",
"-. c #004CB1",
";. c #004DB6",
":. c #0052B9",
">. c #0052D7",
",. c #005DDC",
"<. c #005EDD",
"1. c #0061DF",
"2. c #0057E5",
"3. c #005DE0",
"4. c #005BE4",
"5. c #005EE6",
"6. c #0059E8",
"7. c #0051FF",
"8. c #0067E9",
"9. c #0068E9",
"0. c #0079E5",
"q. c #007DE6",
"w. c #007BEC",
"e. c #0067F1",
"r. c #0066F3",
"t. c #0061F6",
"y. c #006BFA",
"u. c #006EFE",
"i. c #0076FF",
"p. c #0078FF",
"a. c #D8009A",
"s. c #DD0099",
"d. c #E1009C",
"f. c #EF00A9",
"g. c #FF00B7",
"h. c #069099",
"j. c #06909C",
"k. c #078CA2",
"l. c #0492BB",
"z. c #039EBC",
"x. c #00B7A6",
"c. c #769E9F",
"v. c #019DD5",
"b. c #0098DE",
"n. c #01A2D2",
"m. c #00A0DF",
"M. c #008EE3",
"N. c #008CE7",
"B. c #0095E0",
"V. c #0096E7",
"C. c #009AE3",
"Z. c #009CE7",
"A. c #0099EB",
"S. c #00A0E3",
"D. c #00A5E0",
"F. c #00A9E0",
"G. c #00AAE0",
"H. c #8B8D85",
"J. c #9FA1A0",
"K. c #9AA4A7",
"L. c #95A5AA",
"P. c gray65",
"I. c #B5A9A4",
"U. c #DEB0A3",
"Y. c #EDBDAA",
"T. c #E7C8BF",
"R. c #FECABD",
"E. c #8D9FC3",
"W. c #FFABFB",
"Q. c #DFDEDC",
"!. c #E6D9D3",
"~. c #F4E4DD",
"^. c #D3E3E8",
"/. c #FEF4EC",
"(. c #F9FEFE",
/* pixels */
"Z Z Z Z Z Z Z Z Z w         w Z Z Z Z Z Z Z Z Z ",
"Z Z Z Z Z Z Z 1 , 3 ! P.P.! 3 , 1 Z Z Z Z Z Z Z ",
"Z Z Z Z Z V 8 g Q L.^.(.(.^.L.Q g 8 V Z Z Z Z Z ",
"Z Z Z Z N r h K.T.R.Y.U.U.Y.R.T.K.h r N Z Z Z Z ",
"Z Z Z Z 7 f J.Q.] ^ / ) ) / ^ ] Q.J.f 7 Z Z Z Z ",
"Z Z Z Z 9 U !.' @.A : #.#.: A @.' !.U 9 Z Z Z Z ",
"Z Z Z Z 0 Y ~._ l D ( k k ( D l _ ~.Y 0 Z Z Z Z ",
"Z Z Z Z 6 T /.` % j S     S j % ` /.T 6 Z Z Z Z ",
"Z Z Z Z b M I.~ s p i a a i p s ~ I.M b Z Z Z Z ",
"Z Z Z Z Z m   $ *.u.9.8.8.9.u.*.$   m Z Z Z Z Z ",
"Z Z Z Z c @ X ;.2.q.S.C.C.S.q.2.;.X @ c Z Z Z Z ",
"Z Z < < E E.%.7.i.A.z. . .z.A.i.7.%.E.E < < Z Z ",
"Z Z K W H.c.o.X.+.x.l.Z Z l.x.+.X.o.c.H.W K Z Z ",
"Z Z g.W.R * } [ { O.k.| | k.O.{ [ } * R W.g.Z Z ",
"Z Z a.f.x d t.6.N...I m.m.I ..N.6.t.d x f.a.Z Z ",
"Z Z ; > J 1.5.4.M.n.j.C C j.n.M.4.5.1.J > ; Z Z ",
"Z Z n + $.p.<.3.B.G.v.h.h.v.G.B.3.<.p.$.= n Z Z ",
"Z Z Z v H -.y.r.0.b.F.D.D.F.b.0.r.y.-.F - Z Z Z ",
"Z Z Z Z e y :.=.>.w.Z.V.V.Z.w.>.=.:.y # 4 Z Z Z ",
"Z Z Z Z 0 . o o &.e.,.,.,.,.e.&.o o . q Z Z Z Z ",
"Z Z Z Z 0 z d.s.G u t t t t u G s.d.z q Z Z Z Z ",
"Z Z Z Z 5 ; P L &             & L P ; 5 Z Z Z Z ",
"Z Z Z Z m 4 2                     2 4 m Z Z Z Z ",
"Z Z Z Z Z Z B O                 O B Z Z Z Z Z Z "
};
