/* XPM */
static char *white_dead_6[] = {
/* columns rows colors chars-per-pixel */
"24 24 5 1 ",
"  c black",
". c #107830",
"X c #0060E0",
"o c #E000A0",
"O c #00A0E0",
/* pixels */
"........................",
"........................",
"........................",
"........................",
".........      .........",
"........ XXOOX  ........",
"..... . X  OO XX . .....",
".... o XO .  .OOX o ....",
".....  O ...... O  .....",
"..... X ........ X .....",
".... XOX ...... XOX ....",
".... XOOO..... OOOX ....",
"..... X ........ X .....",
"..... X ........ X .....",
"..... X ........ X .....",
"...... O ...... O ......",
"..... oOO O  O OOo .....",
"......  XOOOOOOX  ......",
"........  XOOX  ........",
"..........    ..........",
"........................",
"........................",
"........................",
"........................"
};
