/* XPM */
static char *white_dead_0[] = {
/* columns rows colors chars-per-pixel */
"24 24 220 2 ",
"   c black",
".  c #010201",
"X  c #000002",
"o  c #050000",
"O  c #0B0004",
"+  c #010904",
"@  c #000B0F",
"#  c #020B0F",
"$  c #000C0F",
"%  c #090909",
"&  c #0B0A08",
"*  c #0C0C0B",
"=  c #0D0C0B",
"-  c #0F0F0E",
";  c #11000C",
":  c #12000D",
">  c #001200",
",  c #021006",
"<  c #051507",
"1  c #061309",
"2  c #06140A",
"3  c #081709",
"4  c #030D11",
"5  c #151616",
"6  c #161616",
"7  c #1A1918",
"8  c #1D1C1B",
"9  c #2E1700",
"0  c #04200D",
"q  c #05220E",
"w  c #05260F",
"e  c #062A11",
"r  c #142017",
"t  c #1B201C",
"y  c #073314",
"u  c #073615",
"i  c #073716",
"p  c #073816",
"a  c #083917",
"s  c #083A17",
"d  c #0F351B",
"f  c #083B18",
"g  c #083C18",
"h  c #0B3E1B",
"j  c #2A2300",
"k  c #000031",
"l  c #060F3E",
"z  c #001B31",
"x  c #06123E",
"c  c #370027",
"v  c #1E3424",
"b  c #1E3725",
"n  c #242525",
"m  c #2A2A2A",
"M  c #2D2E2E",
"N  c #2F2E2E",
"B  c #263C2C",
"V  c #2D3234",
"C  c #293F30",
"Z  c #363635",
"A  c #3A3431",
"S  c #3A3A31",
"D  c #481300",
"F  c #4B1A00",
"G  c #7C3900",
"H  c #7B3C00",
"J  c #4F0036",
"K  c #4F0038",
"L  c #510038",
"P  c #54003A",
"I  c #55003C",
"U  c #413734",
"Y  c #413834",
"T  c #453E35",
"R  c #084019",
"E  c #0B5020",
"W  c #0B5422",
"Q  c #0B5622",
"!  c #0C5823",
"~  c #0E6729",
"^  c #0F6D2C",
"/  c #0F6F2C",
"(  c #10772F",
")  c #107830",
"_  c #5B5500",
"`  c #664500",
"'  c #604E00",
"]  c #6E5700",
"[  c #665800",
"{  c #003056",
"}  c #003756",
"|  c #003C56",
" . c #393E40",
".. c #002962",
"X. c #7C045A",
"o. c #3D4446",
"O. c #3D4F56",
"+. c #2C5262",
"@. c #454345",
"#. c #454346",
"$. c #42494C",
"%. c #434B4E",
"&. c #5C5750",
"*. c #6F6A63",
"=. c #78736D",
"-. c #636E72",
";. c gray45",
":. c #D52800",
">. c #D13300",
",. c #EA3F00",
"<. c #E93E11",
"1. c #977000",
"2. c #E34000",
"3. c #EC4808",
"4. c #E04711",
"5. c #EB4E11",
"6. c #E05626",
"7. c #E86F35",
"8. c #841966",
"9. c #9B0070",
"0. c #A30071",
"q. c #E27650",
"w. c #E27750",
"e. c #00CC08",
"r. c #00DF06",
"t. c #3EDE06",
"y. c #00E707",
"u. c #0BE106",
"i. c #00E807",
"p. c #58E606",
"a. c #FF9605",
"s. c #FF9A00",
"d. c #FF930C",
"f. c #FDAB00",
"g. c #EADF06",
"h. c #FEE406",
"j. c #007286",
"k. c #00758A",
"l. c #0040A6",
"z. c #0053CC",
"x. c #1C54C5",
"c. c #2257C8",
"v. c #0061CA",
"b. c #0062CA",
"n. c #0078CC",
"m. c #0076FF",
"M. c #007AFF",
"N. c #0E7AFB",
"B. c #127EFF",
"V. c #5876D1",
"C. c #C8008B",
"Z. c #CA008D",
"A. c #DA009B",
"S. c #FF0FBB",
"D. c #FF12BF",
"F. c #00B397",
"G. c #09BA91",
"H. c #00B399",
"J. c #17BE91",
"K. c #4ABB91",
"L. c #53BD91",
"P. c #00C291",
"I. c #00C391",
"U. c #0095DD",
"Y. c #009EDD",
"T. c #05A1CF",
"R. c #00ACCE",
"E. c #25AACF",
"W. c #0084FF",
"Q. c #009DFF",
"!. c #00B0FF",
"~. c #00B4FF",
"^. c #35BEFF",
"/. c #6A88E3",
"(. c #7BA5EB",
"). c #67C7CE",
"_. c #818383",
"`. c #828385",
"'. c #94908A",
"]. c #998794",
"[. c #9FA0A0",
"{. c #96A6AB",
"}. c #9AA4A8",
"|. c #A1A2A2",
" X c #A2A3A3",
".X c #A4A4A5",
"XX c gray65",
"oX c #B8A5B3",
"OX c #B0B5B1",
"+X c #DEAEA1",
"@X c #EEBCA8",
"#X c #DCD1BC",
"$X c #E6C7BE",
"%X c #FEC9BB",
"&X c #8AB6FA",
"*X c #BFC2C0",
"=X c #92E7FE",
"-X c #C3C3C1",
";X c #C2C5C4",
":X c #D9D0CB",
">X c #DBD0CC",
",X c #DBDFCE",
"<X c #DFDEDC",
"1X c #E7D9D4",
"2X c #E1DED9",
"3X c #EDDFD9",
"4X c #F5EBCE",
"5X c #E1E0DD",
"6X c #EFE0D9",
"7X c #F6EBD6",
"8X c #F3E4DC",
"9X c #D3E3E8",
"0X c #D1E4E9",
"qX c #EAE9E7",
"wX c #F7E7E0",
"eX c #F7E7E2",
"rX c #F7F5EF",
"tX c #F4ECF1",
"yX c #E7F2FE",
"uX c #F8FEFE",
/* pixels */
") ) ) ) ) ) ) ) ) g         g ) ) ) ) ) ) ) ) ) ",
") ) ) ) ) ) ) e q r ;.XXXX;.r q e ) ) ) ) ) ) ) ",
") ) ) ) ) / u N -.{.9XuXuX9X{.-.N u / ) ) ) ) ) ",
") ) ) ) ~ h M }.$X%X@X+X+X@X%X$X}.M h ~ ) ) ) ) ",
") ) ) ) i n [.<X7.:.>.2.2.>.:.7.<X[.n i ) ) ) ) ",
") ) ) ) s o.1X6.a.` 9 f.f.9 ` a.6.1Xo.s ) ) ) ) ",
") ) ) ) f $.8X3.F [ 1.j j 1.[ F 3.8X$.f ) ) ) ) ",
") ) ) ) f %.wX,.H _ ] ' ' ] _ H ,.wX%.f ) ) ) ) ",
") ) ) ) p  .>Xq.d.G D s.s.D G d.q.>X .p ) ) ) ) ",
") ) ) ) R t `.0Xw.<.5.4.4.5.<.w.0X`.t R ) ) ) ) ",
") ) ) ) ( W % _.:XeX6X3X3X6XeX:X_.% W ( ) ) ) ) ",
") ) ) ) Q b  Xm A Z V Y Y U T S m  Xb Q ) ) ) ) ",
") ) ) E C .X-Xo z +.O.{ } | ..k o -X|.C E ) ) ) ",
") ) ! B OX5X#.l n.=XyX^.!.~.Q.z.x @.qXOXv ! ) ) ",
") ) ; oXtX=.X b.U.).4X,XE.T.R.Y.v.  '.tX].; ) ) ",
") ) A.D.8.* > e.y.u.p.h.g.t.r.i.e.> - 8.S.A.) ) ",
") ) K J O   @ j.F.P.G.K.L.J.I.H.k.$   O L K ) ) ",
") ) s , c P 4 /.B.m.W.W.W.W.M.N.V.# I c , s ) ) ",
") ) ) 0 9.C.3 7X&Xc.l.l.l.l.x.(.#X< Z.9.0 ) ) ) ",
") ) ) w X.0.1 *XrX*.        &.2X;X2 0.X.w ) ) ) ",
") ) ) / d : . 5 8 =         & 7 6 . : d / ) ) ) ",
") ) ) ) i                             i ) ) ) ) ",
") ) ) ) ! a y                     y a ! ) ) ) ) ",
") ) ) ) ) ) ^ +                 + ^ ) ) ) ) ) ) "
};
