/* XPM */
static char *white_dead_1[] = {
/* columns rows colors chars-per-pixel */
"24 24 12 1 ",
"  c black",
". c #107830",
"X c #E04000",
"o c #00E000",
"O c #E0A000",
"+ c #E0E000",
"@ c #0060E0",
"# c #E000A0",
"$ c #00A0E0",
"% c #808080",
"& c #BFC0BF",
"* c #DFE0DF",
/* pixels */
"........................",
"........................",
"..........    ..........",
"........  %**%  ........",
"....... %******% .......",
"...... %*XXXXXX*% ......",
"...... *XO OO OX* ......",
"...... *X O  O X* ......",
"....   *XO OO OX*   ....",
"....## %*XXXXXX*% ##....",
"....# % %******% % #....",
".... **&        &** ....",
"..... &% $*$$$@ %& .....",
"......  @$**$$$@  ......",
"....... ooo++ooo .......",
"....... @$$$$$$@ .......",
"...... &&@@@@@@&& ......",
"..... # **    ** # .....",
"..... ##        ## .....",
"......            ......",
"........        ........",
"........................",
"........................",
"........................"
};
