/* XPM */
static char *white_dead_6[] = {
/* columns rows colors chars-per-pixel */
"24 24 123 2 ",
"   c black",
".  c #010402",
"X  c #010502",
"o  c #03180A",
"O  c #03190A",
"+  c #041D0B",
"@  c #000611",
"#  c #041C14",
"$  c #05220E",
"%  c #05250F",
"&  c #05260F",
"*  c #052513",
"=  c #032117",
"-  c #062B11",
";  c #062B17",
":  c #062B18",
">  c #042A1E",
",  c #063013",
"<  c #073214",
"1  c #063316",
"2  c #073415",
"3  c #063417",
"4  c #083817",
"5  c #083917",
"6  c #06371D",
"7  c #001024",
"8  c #031C27",
"9  c #032423",
"0  c #042723",
"q  c #032426",
"w  c #03262F",
"e  c #042B2C",
"r  c #053528",
"t  c #312224",
"y  c #4C001A",
"u  c #540D34",
"i  c #621133",
"p  c #09401A",
"a  c #09411A",
"s  c #09431B",
"d  c #09441B",
"f  c #0A481D",
"g  c #094923",
"h  c #0B5221",
"j  c #0B5522",
"k  c #0D5F26",
"l  c #06523F",
"z  c #0D6026",
"x  c #0D6328",
"c  c #0D6528",
"v  c #0E692A",
"b  c #0E6C2B",
"n  c #0F702D",
"m  c #0F742E",
"M  c #0F7935",
"N  c #107830",
"B  c #107A36",
"V  c #002F76",
"C  c #002E7B",
"Z  c #003276",
"A  c #003C79",
"S  c #003E7D",
"D  c #69004B",
"F  c #750C57",
"G  c #4F266D",
"H  c #01414C",
"J  c #02494E",
"K  c #065A4A",
"L  c #025159",
"P  c #01505B",
"I  c #024E61",
"U  c #004577",
"Y  c #005172",
"T  c #005476",
"R  c #00547C",
"E  c #098674",
"W  c #003784",
"Q  c #003788",
"!  c #00388F",
"~  c #003A94",
"^  c #003B9A",
"/  c #005483",
"(  c #00429C",
")  c #00449E",
"_  c #00479E",
"`  c #004D9F",
"'  c #006C8F",
"]  c #00709A",
"[  c #00709B",
"{  c #0046A0",
"}  c #0040A8",
"|  c #0046A8",
" . c #004AAD",
".. c #0051B1",
"X. c #005BB9",
"o. c #005ABE",
"O. c #0075A2",
"+. c #0168B3",
"@. c #007CB0",
"#. c #0078B6",
"$. c #0057C0",
"%. c #0053C6",
"&. c #0064C5",
"*. c #0073C5",
"=. c #6060C7",
"-. c #068C95",
";. c #01819D",
":. c #0597AD",
">. c #009FDA",
",. c #00A2DA",
"<. c #00A2DB",
"1. c #008AEA",
"2. c #0089EC",
"3. c #008AEE",
"4. c #0096F5",
"5. c #0095FA",
"6. c #009AF8",
"7. c #009AFC",
"8. c #00ABEB",
"9. c #00A6FF",
"0. c #00B9F1",
"q. c #00BEFF",
"w. c #00C2FF",
/* pixels */
"N N N N N N N N N N N N N N N N N N N N N N N N ",
"N N N N N N N N N N N N N N N N N N N N N N N N ",
"N N N N N N N N N N N N N N N N N N N N N N N N ",
"N N N N N N N N j             j N N N N N N N N ",
"N N N N N N N k 9 %...] ] $.@ o k N N N N N N N ",
"N N N N a c x w ! Z S w.w.A C ^ q x c a N N N N ",
"N N N < D t e &.*.X 5 T T 4 +.9.X.e t D < N N N ",
"N N N $ F y U 4.P s N , , N E ;.1.U y F $ N N N ",
"N N N N - 7 / L d N N N N N N g J / 7 - N N N N ",
"N N N z 0 o._ ; n N N N N N N n : _ o.0 z N N N ",
"N N N   } 6.7.) > N N N N N b = { 7.6.}   N N N ",
"N N N . ~ 3.<.>.:.N N N N N O O.8.<.3.~ . N N N ",
"N N N m * { V l B N N N N N m M K V { * m N N N ",
"N N N N & ( W 1 N N N N N N N N 3 W ( & N N N N ",
"N N N N +  .Q 2 N N N N N N N N 2 Q  .+ N N N N ",
"N N N N v r R I p N N N N N N p I R r v N N N N ",
"N N N N s i =.0.H 6 -., , -.6 H 0.=.i s N N N N ",
"N N N N f u G #.2.' ,.Y Y ,.' 2.#.G u f N N N N ",
"N N N N N h , 8 ` @.5.q.q.5.@.` 8 , h N N N N N ",
"N N N N N N N k % # | [ [ | # % k N N N N N N N ",
"N N N N N N N N N z         z N N N N N N N N N ",
"N N N N N N N N N N N N N N N N N N N N N N N N ",
"N N N N N N N N N N N N N N N N N N N N N N N N ",
"N N N N N N N N N N N N N N N N N N N N N N N N "
};
