/* XPM */
static char *white_dead_4[] = {
/* columns rows colors chars-per-pixel */
"24 24 10 1 ",
"  c black",
". c #107830",
"X c #E04000",
"o c #00E000",
"O c #E0A000",
"+ c #0060E0",
"@ c #E000A0",
"# c #00A0E0",
"$ c #808080",
"% c #DFE0DF",
/* pixels */
"........................",
"........................",
"..........    ..........",
"........  $%%$  ........",
"....... %XXXXXX% .......",
"...... %XO OO OX% ......",
"...... %        % ......",
".....   +######+   .....",
".... @ +#+#..#+#+ @ ....",
"....  +##.#..#.##+  ....",
"..... o##......##o .....",
"..... +##..##..##+ .....",
"..... +#+......+#+ .....",
"..... +#........#+ .....",
"..... +#..#..#..#+ .....",
".... @+##+####+##+@ ....",
".... @ ++######++ @ ....",
".....    ++++++    .....",
"......            ......",
"........        ........",
"........................",
"........................",
"........................",
"........................"
};
