/* XPM */
static char *bomberman_white_up_1_24x24[] = {
/* columns rows colors chars-per-pixel */
"24 24 12 1 ",
"  c #000001",
". c #107830",
"X c #000058",
"o c #606060",
"O c #0000F8",
"+ c #B80088",
"@ c #F838C0",
"# c #58A0F8",
"$ c #A098A0",
"% c gray69",
"& c gray91",
"* c #F8F8F8",
/* pixels */
"........................",
"........%&&&&&%.........",
"......o%&&&&&&&&%.......",
".....o%&&&&&&&*&&%......",
"....o%++&&&&&&&&&&%.....",
"....o+@*+&&&&&&&&&%.....",
"....o+@@+&&&&&&&&&%.....",
"....oo++&&&&&&&&&&%.....",
"....ooo%&&&&&&&&&%%.....",
"....ooo%%&&&&&&&%%......",
".....oooo%%%%%%%oo......",
"...... oooooooooX*......",
".....$*  oooooXX$$......",
".....$$$XOO##OOX$.......",
".....+@@XOO#*#O ........",
".....+*@       X........",
".....+++XXXOOOX$........",
"...... $$XXXOX$$........",
".....  +++   $$* .......",
"....         $$* .......",
"....         $$$ .......",
".....        +@@........",
".......      +++........",
".........    +++........"
};
