/* XPM */
static char *white_dead_1[] = {
/* columns rows colors chars-per-pixel */
"24 24 198 2 ",
"   c black",
".  c #020202",
"X  c #050000",
"o  c #010803",
"O  c #010A04",
"+  c #080807",
"@  c #000109",
"#  c #0C030A",
"$  c #001000",
"%  c #041B0B",
"&  c #041D0B",
"*  c #041E0C",
"=  c #1F0014",
"-  c #131212",
";  c #141F17",
":  c #2B1700",
">  c #210E1B",
",  c #04210D",
"<  c #0A2210",
"1  c #062911",
"2  c #18271D",
"3  c #073716",
"4  c #083817",
"5  c #083917",
"6  c #083B18",
"7  c #083C18",
"8  c #083D18",
"9  c #083E19",
"0  c #083F19",
"q  c #0B3E1B",
"w  c #103F1E",
"e  c #282100",
"r  c #000134",
"t  c #001D34",
"y  c #3B0024",
"u  c #3C002B",
"i  c #3E002C",
"p  c #202522",
"a  c #232424",
"s  c #252626",
"d  c #272C2D",
"f  c #2C2C2D",
"g  c #2E2D2C",
"h  c #352F2B",
"j  c #302F2E",
"k  c #35342B",
"l  c #3C312D",
"z  c #3C322D",
"x  c #3F372E",
"c  c #293733",
"v  c #2E3B31",
"b  c #313E35",
"n  c #4A1200",
"m  c #4B1900",
"M  c #7E3800",
"N  c #40002D",
"B  c #450033",
"V  c #50003A",
"C  c #09441B",
"Z  c #09471C",
"A  c #0B5120",
"S  c #0D5F26",
"D  c #0D6026",
"F  c #0D6127",
"G  c #0D6227",
"H  c #0D6428",
"J  c #0E6829",
"K  c #0F6F2C",
"L  c #0F702D",
"P  c #0F742E",
"I  c #107830",
"U  c #5B5500",
"Y  c #644600",
"T  c #655100",
"R  c #6B5500",
"E  c #665800",
"W  c #061144",
"Q  c #061444",
"!  c #00355D",
"~  c #003C5D",
"^  c #002D69",
"/  c #670548",
"(  c #760055",
")  c #5B2B4C",
"_  c #00415D",
"`  c #3C4245",
"'  c #3F474A",
"]  c #305869",
"[  c #43494E",
"{  c #4B4B4F",
"}  c #44565D",
"|  c #565857",
" . c #545F57",
".. c #6D675D",
"X. c #636E72",
"o. c #747474",
"O. c #7B7D7D",
"+. c #7D7E7F",
"@. c #803E00",
"#. c #D42800",
"$. c #CF3200",
"%. c #997200",
"&. c #E34000",
"*. c #EA4000",
"=. c #ED4A0A",
"-. c #EB4217",
";. c #E14916",
":. c #EE5316",
">. c #E15525",
",. c #EA7036",
"<. c #8B0063",
"1. c #E37956",
"2. c #E37A56",
"3. c #00CB04",
"4. c #00CC04",
"5. c #00DF03",
"6. c #3DDF04",
"7. c #08E103",
"8. c #00E904",
"9. c #00EA04",
"0. c #4FE404",
"q. c #FF9504",
"w. c #FF9800",
"e. c #FF920D",
"r. c #FCAC00",
"t. c #EDDF04",
"y. c #FBE304",
"u. c #003D9F",
"i. c #006D8F",
"p. c #7D7E86",
"a. c #0053CF",
"s. c #265BC7",
"d. c #0065C6",
"f. c #0076CF",
"g. c #0971F2",
"h. c #0075FF",
"j. c #C20088",
"k. c #CB0091",
"l. c #EE00AA",
"z. c #F000AC",
"x. c #F600AF",
"c. c #FF00BF",
"v. c #00BF9A",
"b. c #08B89A",
"n. c #13BB9A",
"m. c #00B0A4",
"M. c #00B1A4",
"N. c #41B89A",
"B. c #4ABB9A",
"V. c #00C19A",
"C. c #0097D9",
"Z. c #06A3CA",
"A. c #00AEC9",
"S. c #00A1D9",
"D. c #2AABCA",
"F. c #0082FF",
"G. c #009EFF",
"H. c #00B0FF",
"J. c #00B3FF",
"K. c #3ABFFF",
"L. c #6A84D6",
"P. c #65C8C9",
"I. c #818181",
"U. c #8B8788",
"Y. c gray55",
"T. c #9E9F9F",
"R. c #9DACA0",
"E. c #96A6AB",
"W. c #99A4A8",
"Q. c gray66",
"!. c #AAAAA9",
"~. c #B9B9B9",
"^. c #DEADA0",
"/. c #EEBAA6",
"(. c #E7C7BD",
"). c #FEC7B9",
"_. c #84ACED",
"`. c #92E7FE",
"'. c #C5C5C5",
"]. c #C8C6C8",
"[. c #D8D0CC",
"{. c #D1DDD4",
"}. c #DFDDDC",
"|. c #E6DBD6",
" X c #DEE0C9",
".X c #ECE0CA",
"XX c #F1EBC9",
"oX c #ECE0DB",
"OX c #EDE1DB",
"+X c #F1E5DF",
"@X c #CFE3EA",
"#X c #D3E3E8",
"$X c #F6E8E2",
"%X c #F6E8E4",
"&X c #F3EFE8",
"*X c #ECF3FE",
"=X c #F2F3F2",
"-X c #F8FEFE",
/* pixels */
"I I I I I I I I I 7         7 I I I I I I I I I ",
"I I I I I I I 1 , ; o.Q.Q.o.; , 1 I I I I I I I ",
"I I I I I L 3 g X.E.#X-X-X#XE.X.g 3 L I I I I I ",
"I I I I J q f W.(.)./.^.^./.).(.W.f q J I I I I ",
"I I I I 5 a T.}.,.#.$.&.&.$.#.,.}.T.a 5 I I I I ",
"I I I I 8 ` |.>.q.Y : r.r.: Y q.>.|.` 8 I I I I ",
"I I I I C ' +X=.m E %.e e %.E m =.+X' C I I I I ",
"I I 6 6 * [ $X*.@.U R T T R U @.*.$X[ * 6 6 I I ",
"I I N V = c [.1.e.M n w.w.n M e.1.[.c = V N I I ",
"I I z.x./ < O.@X2.-.:.;.;.:.-.2.@XO.< / x.z.I I ",
"I I l.y v | . +.[.%XOXoXoXOX%X[.+.. | v y l.I I ",
"I I u U.{.'.I.s h j d z l l x k s I.'.{.U.u I I ",
"I I 8  .].=X!.X t ] } ! ~ _ ^ r X !.=X]. .8 I I ",
"I I I 0 b Y.{ W f.`.*XK.H.J.G.a.Q { Y.b 0 I I I ",
"I I I I Z o @ d.C.P.XX XD.Z.A.S.d.@ o Z I I I I ",
"I I I I P A $ 4.8.7.0.y.t.6.5.9.3.$ A P I I I I ",
"I I I I I H   i.M.v.b.N.B.n.V.m.i.  H I I I I I ",
"I I I I D w p.L.g.h.F.F.F.F.h.g.L.p.w D I I I I ",
"I I I S p ) R..X_.s.u.u.u.u.s._..XR.) p S I I I ",
"I I I % <.j.# ~.&X..        ..&X~.# j.<.% I I I ",
"I I I & ( c.k.> - +         + - > k.c.( & I I I ",
"I I I G 2 B i                     i B 2 G I I I ",
"I I I I F 9 4                     4 9 F I I I I ",
"I I I I I I K O                 O K I I I I I I "
};
