/* XPM */
static char *white_dead_7[] = {
/* columns rows colors chars-per-pixel */
"24 24 5 1 ",
"  c black",
". c #107830",
"X c #0060E0",
"o c #E000A0",
"O c #00A0E0",
/* pixels */
"........................",
"........................",
"........................",
"..........    ..........",
"......... OOOO .........",
"...... . XXOOXX . ......",
"..... o X      X o .....",
"......  ........  ......",
"..... ............ .....",
".... O .......... O ....",
".... O .......... O ....",
".....  ..........  .....",
".... O .......... O ....",
".....  ..........  .....",
".... OO ........ OO ....",
".... o O . .. . O o ....",
"...... XO O  O OX  .....",
".......   XOOX   .......",
"..........    ..........",
"........................",
"........................",
"........................",
"........................",
"........................"
};
