/* XPM */
static char *white_dead_2[] = {
/* columns rows colors chars-per-pixel */
"24 24 180 2 ",
"   c #000000",
".  c #000009",
"X  c #04190A",
"o  c #1D1603",
"O  c #171818",
"+  c #101108",
"@  c #3F0500",
"#  c #231700",
"$  c #2E001E",
"%  c #301B0B",
"&  c #04220E",
"*  c #002100",
"=  c #073314",
"-  c #073816",
";  c #093C19",
":  c #0B3317",
">  c #28271C",
",  c #30281D",
"<  c #001A2D",
"1  c #1B1F21",
"2  c #3E0028",
"3  c #1D2620",
"4  c #222424",
"5  c #2B2A29",
"6  c #322622",
"7  c #2F3733",
"8  c #5C1100",
"9  c #402800",
"0  c #483400",
"q  c #6A2300",
"w  c #520022",
"e  c #5A003A",
"r  c #4B2039",
"t  c #004D00",
"y  c #0A4D1E",
"u  c #0B471E",
"i  c #0B5221",
"p  c #3A4F34",
"a  c #0D6428",
"s  c #0E6C2B",
"d  c #0F702D",
"f  c #107830",
"g  c #107730",
"h  c #4F4800",
"j  c #5A5500",
"k  c #655100",
"l  c #755E00",
"z  c #7D6500",
"x  c #001050",
"c  c #000E61",
"v  c #042E73",
"b  c #6E0044",
"n  c #7E0053",
"m  c #3D4447",
"M  c #00456E",
"N  c #004B6E",
"B  c #004374",
"V  c #285E6D",
"C  c #5B4150",
"Z  c #4D575B",
"A  c #545653",
"S  c #4F4B48",
"D  c #64514E",
"F  c #535A62",
"G  c #5F696E",
"H  c #666869",
"J  c #6C7478",
"K  c #707873",
"L  c #983900",
"P  c #CB2B00",
"I  c #CE3200",
"U  c #D52700",
"Y  c #E43900",
"T  c #804B00",
"R  c #A14B00",
"E  c #846100",
"W  c #906A00",
"Q  c #E44100",
"!  c #E14D19",
"~  c #E3501F",
"^  c #F25B1F",
"/  c #F14E20",
"(  c #F14F21",
")  c #ED632D",
"_  c #83004E",
"`  c #80005B",
"'  c #880061",
"]  c #940062",
"[  c #E47550",
"{  c #00DC00",
"}  c #00E100",
"|  c #00F300",
" . c #29E100",
".. c #55E000",
"X. c #AD8000",
"o. c #FC8703",
"O. c #FF9A01",
"+. c #FF9106",
"@. c #FF8C1A",
"#. c #EAA100",
"$. c #FFB400",
"%. c #E3E100",
"&. c #FAE000",
"*. c #968D7E",
"=. c #ED8451",
"-. c #E49077",
";. c #013489",
":. c #113B90",
">. c #0049B8",
",. c #0078AD",
"<. c #697891",
"1. c #5370AD",
"2. c #004FC7",
"3. c #0051CE",
"4. c #0063C0",
"5. c #007BD1",
"6. c #005EE1",
"7. c #004CF1",
"8. c #0050FF",
"9. c #007BFF",
"0. c #0070FF",
"q. c #4C7DD3",
"w. c #BB0085",
"e. c #CD008F",
"r. c #E300A3",
"t. c #FF00BD",
"y. c #B2589B",
"u. c #00ACB2",
"i. c #05ABB9",
"p. c #12AEB0",
"a. c #00B3B0",
"s. c #00B1B9",
"d. c #2FADB0",
"f. c #7D8182",
"g. c #4BBAB9",
"h. c #008FC1",
"j. c #0092DD",
"k. c #00ACC3",
"l. c #008EF0",
"z. c #0099FD",
"x. c #0099F7",
"c. c #00A6EF",
"v. c #00A2F0",
"b. c #00AAFF",
"n. c #00B1FF",
"m. c #5C96E2",
"M. c #51C9FF",
"N. c #6FD3FF",
"B. c #8A8A89",
"V. c #8E9798",
"C. c #91B29C",
"Z. c #B2A99D",
"A. c #9EAFB4",
"S. c #92A3A8",
"D. c #A9AAAA",
"F. c #B0B0AE",
"G. c #A7B7AE",
"H. c #AC8793",
"J. c #DEAA9C",
"K. c #EFB8A3",
"L. c #B5CDBE",
"P. c #CEC8BE",
"I. c #FEC4B6",
"U. c #EBC4B8",
"Y. c #DDE9B8",
"T. c #F8E7B8",
"R. c #C8C9C8",
"E. c #CFD0CF",
"W. c #D7D8D8",
"Q. c #DDCFCA",
"!. c #E9D8D1",
"~. c #E2C7C0",
"^. c #E5E1DE",
"/. c #FBE2D7",
"(. c #C7DCE4",
"). c #D9E5E9",
"_. c #C5E6F7",
"`. c #E7E6E6",
"'. c #F9FCFE",
"]. c #E9ECF0",
/* pixels */
"f f f f f f f f f y         = g f f f f f f f f ",
"f f f f f g f : & X H D.F.f.4 X & g f f f f f f ",
"f f f f g g ; 4 G S.(.'.'.).A.J 7 : s f f f f f ",
"f f f f s u 1 V.~.I.K.J.J.K.I.U.F.7 : a f f f f ",
"f f f f y O V.W.=.U I Q Q I I ^ !.D.5 = f f f f ",
"f f f f y 1 W.) o.E + #.$.% 0 O.! !.Z : f f f f ",
"f f f f y 4 `.) 8 h X.# # W z % Q /.A - f f f f ",
"f f f f y 4 ].^ L j j k z k k T Y /.Z - f f f f ",
"f f f f u O L.-.@.R 8 o.+.q q +.=.E.m - f f f f ",
"f f f d u O H (.-./ ^ ~ ! ~ ~ [ (.f.4 - d f f f ",
"f f g - 5 K   H R.`.!.^.!.`.`.Q.y.X A S & f f f ",
"f f X H ^.E.D., > 4 4 6 6 6 6 > o B.E.^.V.X f f ",
"f f ` C C.!.D v v V H v B N N B v S P.L.A n f f ",
"f f t.] r J x 6.b.N.'.M.n.n.n.b.9.c F C b t.f f ",
"f f w.r._   h.k.s.g.Y.T.g.i.i.s.s.j.< w r.w.f f ",
"f f       X { } } }  .%.&...} { } | t       f f ",
"f f       . ,.s.a.a.u.d.d.p.a.a.a.h.<       f f ",
"f f ' $ > <.7.0.z.c.v.v.v.v.v.z.9.8.1.p   ' f f ",
"f f t.e p ].m.:.4.z.l.l.l.l.x.5.;.q._.H.n t.f f ",
"f f w.2 7 F.Z.# x 3.>.>.>.>.2.;.  *.G.y.e.w.f f ",
"f f                                         f f ",
"f f a a ;                             & a a f f ",
"f f f f d y y                     u y a f f f f ",
"f f f f f f f X                   a f f f f f f "
};
