/* XPM */
static char *white_dead_4[] = {
/* columns rows colors chars-per-pixel */
"24 24 158 2 ",
"   c black",
".  c #000103",
"X  c #000302",
"o  c #010502",
"O  c #010602",
"+  c #060503",
"@  c #010803",
"#  c #070900",
"$  c #010A04",
"%  c #020C05",
"&  c #020D05",
"*  c #090A0A",
"=  c #0D0E0E",
"-  c #021006",
";  c #031709",
":  c #000210",
">  c #000310",
",  c #000810",
"<  c #000A10",
"1  c #141314",
"2  c #04210D",
"3  c #05230E",
"4  c #05240E",
"5  c #05250F",
"6  c #05260F",
"7  c #05270F",
"8  c #062E12",
"9  c #102114",
"0  c #083918",
"q  c #083B18",
"w  c #083C18",
"e  c #083F19",
"r  c #373400",
"t  c #091723",
"y  c #173F26",
"u  c #233434",
"i  c #42001B",
"p  c #500B3F",
"a  c #730036",
"s  c #403F3F",
"d  c #09411A",
"f  c #0A491D",
"g  c #006E02",
"h  c #0C5D25",
"j  c #0E692A",
"k  c #0E6C2B",
"l  c #0F6D2C",
"z  c #0F712D",
"x  c #0F722E",
"c  c #10752F",
"v  c #107830",
"b  c #00355E",
"n  c #002F60",
"m  c #002865",
"M  c #002768",
"N  c #00266B",
"B  c #00256F",
"V  c #00286A",
"C  c #002A71",
"Z  c #0D2874",
"A  c #6D004F",
"S  c #550D6E",
"D  c #00444B",
"F  c #0F7740",
"G  c #0F7C40",
"H  c #0E7845",
"J  c #0E724A",
"K  c #0E794A",
"L  c #0B7C64",
"P  c #0B7369",
"I  c #464C4E",
"U  c #7B7473",
"Y  c #902700",
"T  c #B02B00",
"R  c #BE3213",
"E  c #BB4400",
"W  c #BA6500",
"Q  c #A3533E",
"!  c #FC7200",
"~  c #ED6D3C",
"^  c #A5025F",
"/  c #8D0767",
"(  c #A10A7E",
")  c #ED7252",
"_  c #00E63E",
"`  c #0D814E",
"'  c #0C8359",
"]  c #0C835E",
"[  c #0B8564",
"{  c #0B8565",
"}  c #0B8667",
"|  c #0B8569",
" . c #B38400",
".. c #FF9C30",
"X. c #003C9D",
"o. c #003CA3",
"O. c #07688F",
"+. c #076D97",
"@. c #0040A4",
"#. c #0043AE",
"$. c #0048BA",
"%. c #0578A4",
"&. c #0372BC",
"*. c #0070CD",
"=. c #016BD4",
"-. c #0077DB",
";. c #0076E0",
":. c #007AFA",
">. c #007CF8",
",. c #007DF9",
"<. c #007FF8",
"1. c #0078FF",
"2. c #D0008E",
"3. c #822ACE",
"4. c #06939A",
"5. c #0090CC",
"6. c #0091CC",
"7. c #0099CC",
"8. c #0086D6",
"9. c #019DD2",
"0. c #019DD4",
"q. c #019DDA",
"w. c #009FDC",
"e. c #03A0C2",
"r. c #03A2C4",
"t. c #02A3CF",
"y. c #01A2D5",
"u. c #01A6D5",
"i. c #00A9D2",
"p. c #00A1DE",
"a. c #00A0DF",
"s. c #00A7DE",
"d. c #00A7DF",
"f. c #0085E7",
"g. c #008BE5",
"h. c #008CE7",
"j. c #0081EF",
"k. c #008FEB",
"l. c #009FE2",
"z. c #009DEC",
"x. c #0080F2",
"c. c #0087F6",
"v. c #0088F6",
"b. c #0080FF",
"n. c #0091FA",
"m. c #0094FF",
"M. c #00A3E1",
"N. c #00A4E0",
"B. c #00A7E0",
"V. c #00A9E0",
"C. c #00A8E3",
"Z. c #00AAE3",
"A. c #939FA3",
"S. c #8CA5AE",
"D. c #FDAD93",
"F. c #CBCCCC",
"G. c #CFDBDF",
"H. c #FEFEFA",
/* pixels */
"v v v v v v v v v v v v v v v v v v v v v v v v ",
"v v v v v v v x z 0 * = = * 0 z x v v v v v v v ",
"v v v v v v v ; & u A.G.G.A.u & ; v v v v v v v ",
"v v v v v k 2 S.Q R ~ ) ) ~ R Q S.2 k v v v v v ",
"v v v v h y U D...E Y ! ! Y E ..D.U y h v v v v ",
"v v v v w I H.T W r #  . .# r W T H.I w v v v v ",
"v v v x q s F.t > , < : : < , > t F.s q x v v v ",
"v v v 8 O + 1 $.8.7.6.5.5.6.7.8.$.1 + O 8 v v v ",
"v v 3 / a . o.g.j.k.r.} } r.k.j.g.o.. a / 3 v v ",
"v v   A S @.n.Z.+.&.e.v v e.&.+.Z.n.@.S A   v v ",
"v v 2 $ D i.C.N.H L 4.v v 4.L H N.C.i.D $ 2 v v ",
"v v v 7 g _ z.l.{ v v G G v v { l.z._ g 7 v v v ",
"v v v 5 n f.M.N.[ v ] w.w.] v [ N.M.f.n 5 v v v ",
"v v v 4 B 1.a.;.P v G | | G v P ;.a.1.B 4 v v v ",
"v v v 4 V <.q.O.J v v v v v v J O.q.<.V 4 v v v ",
"v v v 6 m ,.9.v v K ' v v ' K v v 9.,.m 6 v v v ",
"v v l 9 Z >.y.` F %.t.G G t.%.F ` y.>.Z 9 l v v ",
"v v @ ^ 3.x.s.u.=.-.d.0.0.d.-.=.u.s.x.3.^ @ v v ",
"v v   2.( b b.:.h.p.V.B.B.V.p.h.:.b.b ( 2.  v v ",
"v v e p i X C N *.m.c.v.v.c.m.*.N C X i p e v v ",
"v v v d -       M #.X.X.X.X.#.M       - d v v v ",
"v v v v f & %                     % & f v v v v ",
"v v v v c z j o                 o j z c v v v v ",
"v v v v v v v v v v v v v v v v v v v v v v v v "
};
