/* XPM */
static char *white_dead_5[] = {
/* columns rows colors chars-per-pixel */
"24 24 6 1 ",
"  c black",
". c #107830",
"X c #E04000",
"o c #0060E0",
"O c #E000A0",
"+ c #00A0E0",
/* pixels */
"........................",
"........................",
"........................",
"..........    ..........",
"........  XXXX  ........",
"....... X      X .......",
"......   o++++o   ......",
".....  o+++  +++o  .....",
".... O ++o .. o++ O ....",
"....  o   ....   o  ....",
"..... +..........+ .....",
"..... +..........+ .....",
"..... + ........ + .....",
"..... + .. .. .. + .....",
"..... o+ +o  o+ +o .....",
".... O + ++++++ + O ....",
".... OOoo++++++ooOO ....",
".....    oo++oo    .....",
"......            ......",
"........        ........",
"........................",
"........................",
"........................",
"........................"
};
